<?xml version="1.0" encoding="utf-8"?>
<!-- Generator: Adobe Illustrator 23.0.4, SVG Export Plug-In . SVG Version: 6.00 Build 0)  -->
<svg version="1.1" id="Layer_1" xmlns="http://www.w3.org/2000/svg" xmlns:xlink="http://www.w3.org/1999/xlink" x="0px" y="0px"
	 viewBox="0 0 285.2 59.4" style="enable-background:new 0 0 285.2 59.4;" xml:space="preserve">
<g id="Group_5035" transform="translate(-1020.88 -682)">
	<path id="Path_8711" d="M1136.7,698.9h4.7v-0.4c-0.4,0-0.8-0.1-1.1-0.3c-0.2-0.1-0.3-0.5-0.3-1.1V692h1.5v-0.7h-1.5v-2.2
		c0-0.4,0-0.7,0.2-1c0.2-0.2,0.4-0.3,0.6-0.2c0.1,0,0.2,0,0.3,0.1c0.1,0,0.2,0.2,0.1,0.3c0,0.1-0.1,0.3-0.2,0.4
		c-0.1,0.2-0.2,0.4-0.2,0.6c0,0.2,0.1,0.5,0.3,0.6c0.2,0.2,0.4,0.3,0.7,0.3c0.3,0,0.6-0.1,0.8-0.3c0.2-0.2,0.3-0.5,0.3-0.8
		c0-0.5-0.3-1-0.7-1.2c-0.5-0.3-1.1-0.5-1.7-0.5c-1.1-0.1-2.1,0.5-2.6,1.4c-0.3,0.6-0.4,1.3-0.4,1.9v0.6h-1v0.7h1v5.5
		c0,0.3,0,0.6-0.2,0.8c-0.2,0.2-0.5,0.2-0.7,0.2L1136.7,698.9z M1131,695.1c0-0.8,0-1.7,0.2-2.5c0.2-0.7,0.6-1.1,1.1-1.1
		c0.5,0,1,0.3,1.1,0.8c0.2,0.9,0.3,1.8,0.3,2.7c0,0.9,0,1.8-0.3,2.7c-0.1,0.5-0.6,0.9-1.1,0.8c-0.6,0-1-0.4-1.1-1.1
		C1131,696.7,1131,695.9,1131,695.1 M1128.5,695c0,1.1,0.4,2.1,1.1,2.9c0.7,0.8,1.7,1.2,2.7,1.2c1.1,0,2.1-0.4,2.8-1.2
		c0.7-0.8,1.1-1.8,1.1-2.9c0-1.1-0.4-2.1-1.1-2.9c-0.7-0.8-1.7-1.2-2.7-1.2c-1,0-2,0.4-2.7,1.2C1128.9,692.9,1128.5,694,1128.5,695
		 M1115.8,701.1c0,0.3,0.2,0.7,0.4,0.9c0.3,0.3,0.8,0.4,1.3,0.4c0.6,0.1,1.2-0.2,1.7-0.7c0.5-0.8,1-1.6,1.3-2.5l2.5-6.7
		c0.1-0.3,0.2-0.5,0.4-0.7c0.2-0.1,0.3-0.2,0.5-0.2v-0.4h-2.6v0.4c0.2,0,0.5,0,0.7,0.1c0.2,0.1,0.3,0.3,0.2,0.4c0,0.1,0,0.2-0.1,0.3
		c0,0.1-0.1,0.3-0.1,0.4l-1.1,3h-0.1l-1.3-3.3c-0.1-0.2-0.1-0.3-0.1-0.4c0-0.1,0-0.1,0-0.2c0-0.2,0.1-0.3,0.3-0.4
		c0.2-0.1,0.4-0.1,0.6-0.1v-0.4h-4.2v0.4c0.2,0,0.3,0.1,0.5,0.1c0.1,0.2,0.3,0.4,0.4,0.6c0.1,0.3,0.3,0.6,0.4,0.9
		c0.1,0.3,0.3,0.6,0.4,1l2,4.9c-0.2,0.6-0.4,1.1-0.7,1.7c-0.3,0.5-0.5,0.7-0.8,0.7c-0.1,0-0.2,0-0.2-0.1c-0.1-0.1-0.1-0.1-0.1-0.2
		l0-0.4c0-0.2-0.1-0.4-0.3-0.6c-0.2-0.2-0.4-0.2-0.7-0.2c-0.3,0-0.6,0.1-0.8,0.3C1115.9,700.4,1115.8,700.8,1115.8,701.1
		 M1111.7,691.9v5.5c-0.1,0.6,0.3,1.3,0.9,1.6c0.3,0.2,0.7,0.2,1,0.2c0.7,0,1.3-0.3,1.8-0.8c0.3-0.3,0.5-0.7,0.7-1.1l-0.4-0.2
		c-0.1,0.2-0.3,0.5-0.4,0.6c-0.1,0.2-0.3,0.2-0.6,0.2c-0.2,0-0.5-0.1-0.5-0.4c-0.1-0.2-0.1-0.4-0.1-0.6v-5.1h1.6v-0.7h-1.6v-2.9
		h-0.4c-0.4,0.6-0.9,1.2-1.4,1.8c-0.3,0.3-0.5,0.6-0.8,0.8c-0.2,0.2-0.4,0.3-0.6,0.5v0.5L1111.7,691.9z M1106.3,698.9h4v-0.4
		c-0.2,0-0.4-0.1-0.6-0.2c-0.1-0.2-0.2-0.5-0.2-0.7v-6.4h-3.2v0.4c0.3,0,0.5,0.1,0.7,0.3c0.1,0.2,0.2,0.5,0.2,0.7v5
		c0,0.3-0.1,0.6-0.2,0.8c-0.2,0.1-0.4,0.2-0.6,0.2V698.9z M1107,688.6c0,0.7,0.6,1.3,1.3,1.3c0.7,0,1.3-0.6,1.3-1.3
		c0-0.7-0.6-1.3-1.3-1.3c-0.3,0-0.7,0.1-0.9,0.4C1107.2,687.9,1107,688.2,1107,688.6 M1101,687.3c-1.5,0-3,0.5-4.1,1.6
		c-1.2,1.2-1.9,2.8-1.8,4.5c-0.1,1.7,0.6,3.3,1.9,4.4c1.2,1,2.7,1.5,4.2,1.5c1.1,0,2.1-0.3,3-0.9c0.6-0.5,1.2-1,1.7-1.6l-0.5-0.4
		c-0.5,0.5-1,1-1.5,1.3c-0.7,0.5-1.6,0.7-2.4,0.7c-1.4,0-2.6-0.9-2.9-2.2c-0.6-2.3-0.5-4.7,0.3-6.9c0.4-0.9,1.4-1.5,2.4-1.5
		c1.1,0,2,0.5,2.7,1.4c0.5,0.6,0.9,1.3,1.2,2h0.4v-3.9h-0.5c0,0.2-0.1,0.4-0.2,0.5c-0.1,0.2-0.3,0.3-0.5,0.2
		c-0.4-0.1-0.8-0.2-1.2-0.4C1102.5,687.4,1101.8,687.3,1101,687.3"/>
	<rect id="Rectangle_690" x="1095" y="737.7" width="210.1" height="1.3"/>
	<path id="Path_8712" d="M1295.8,715.6v12.9c-0.1,1.5,0.7,3,2,3.7c0.8,0.4,1.6,0.5,2.4,0.5c1.6,0,3.1-0.6,4.2-1.8
		c0.7-0.8,1.3-1.7,1.7-2.7l-0.9-0.5c-0.3,0.5-0.6,1.1-1,1.5c-0.3,0.4-0.8,0.6-1.3,0.6c-0.6,0-1.1-0.3-1.3-0.9
		c-0.2-0.4-0.3-0.9-0.3-1.4v-11.9h3.8v-1.7h-3.8v-6.7h-1c-1,1.5-2.1,2.9-3.3,4.2c-0.6,0.7-1.3,1.3-1.9,2c-0.5,0.4-0.9,0.8-1.3,1.1
		v1.1L1295.8,715.6z M1276.8,732.2h10.6v-0.9c-0.8,0-1.6-0.2-2.3-0.6c-0.4-0.3-0.6-1.1-0.6-2.5v-7.5c-0.1-1,0.2-2,0.8-2.8
		c0.4-0.5,0.9-0.9,1.6-1c0.2,0,0.7,0.4,1.3,1.2c0.5,0.7,1.3,1.2,2.2,1.2c0.7,0,1.3-0.3,1.8-0.8c1-1.3,0.9-3.1-0.3-4.2
		c-0.6-0.5-1.4-0.8-2.2-0.8c-1,0-2.1,0.3-2.9,1c-0.9,0.8-1.8,1.6-2.5,2.6v-3.1h-7.5v0.9c0.6,0,1.2,0.2,1.7,0.6
		c0.3,0.5,0.5,1.1,0.4,1.7v10.8l0,1.2c0,0.6-0.1,1.1-0.5,1.6c-0.5,0.3-1,0.5-1.6,0.5L1276.8,732.2z M1266.1,721
		c0-1.6,0.2-3.2,0.7-4.7c0.2-1,1.1-1.6,2.1-1.6c0.9-0.1,1.8,0.5,2,1.4c0.4,1.6,0.6,3.2,0.5,4.9L1266.1,721z M1260.5,723
		c0,3.4,0.9,5.8,2.6,7.4c1.5,1.4,3.4,2.3,5.5,2.3c1.2,0,2.5-0.2,3.6-0.8c1.8-1,3.3-2.4,4.3-4.2l-0.9-0.6c-0.6,0.7-1.2,1.2-1.9,1.8
		c-0.8,0.6-1.7,0.9-2.6,0.9c-2,0-3.3-1.1-4.1-3.3c-0.5-1.3-0.7-2.7-0.8-4.1h10.1c0-0.5-0.1-1-0.1-1.6c-0.1-1.2-0.4-2.4-1-3.6
		c-0.6-1.2-1.5-2.2-2.7-2.8c-1.1-0.7-2.4-1-3.7-1c-2.2,0-4.4,0.9-5.9,2.5C1261.3,717.9,1260.4,720.4,1260.5,723 M1239.3,705.3v0.9
		c0.6,0,1.2,0.2,1.7,0.6c0.4,0.5,0.5,1.1,0.4,1.7v24.1h0.6l3.1-2.2c0.7,0.7,1.4,1.2,2.3,1.6c0.9,0.4,1.8,0.6,2.8,0.6
		c2.4,0.1,4.8-0.9,6.5-2.7c1.7-1.8,2.6-4.3,2.6-7.6c0.1-2.3-0.6-4.6-2-6.4c-1.3-1.7-3.3-2.7-5.4-2.6c-1.1,0-2.2,0.3-3.1,0.8
		c-0.6,0.4-1.2,0.8-1.7,1.4v-10.3L1239.3,705.3z M1246.9,728.3v-10.4c0.1-0.5,0.4-1,0.8-1.3c0.5-0.6,1.3-1,2-0.9
		c1.4,0,2.6,0.9,2.9,2.2c1,3.8,1,7.7-0.1,11.5c-0.4,1.3-1.5,2.2-2.9,2.2c-1,0.1-1.9-0.5-2.3-1.4
		C1247.1,729.5,1247,728.9,1246.9,728.3 M1230.2,732.2h9.5v-0.9c-0.6-0.1-1.1-0.3-1.5-0.7c-0.4-0.5-0.5-1.1-0.4-1.7v-23.5h-7.5v0.9
		c0.6,0.1,1.1,0.3,1.5,0.6c0.3,0.5,0.5,1.1,0.4,1.7v20.2c0.1,0.6-0.1,1.2-0.4,1.7c-0.4,0.3-0.9,0.6-1.5,0.7L1230.2,732.2z
		 M1203.2,732.2h8.1v-1c-0.7,0-1.4-0.1-2-0.2c-0.8-0.3-1.1-0.7-1.1-1.2c0.1-0.8,0.2-1.5,0.5-2.2c0.2-0.5,0.5-1.5,1.1-3.1h8.9l1,2.4
		c0.2,0.5,0.4,1,0.5,1.4c0.2,0.5,0.3,0.9,0.3,1.4c0,0.7-0.2,1.1-0.6,1.3c-0.8,0.2-1.7,0.3-2.5,0.3v1h12.8v-1c-0.8,0.1-1.6-0.3-2.1-1
		c-0.9-1.4-1.6-3-2.2-4.5l-8.9-20.8h-1.1l-8.8,21.7c-0.4,1.2-1,2.3-1.6,3.3c-0.5,0.8-1.4,1.3-2.3,1.3L1203.2,732.2z M1210.4,722.8
		l3.6-9.2h0.3l3.8,9.2H1210.4z M1186.9,721c0-1.6,0.2-3.2,0.7-4.7c0.2-1,1.1-1.6,2.1-1.6c0.9-0.1,1.8,0.5,2,1.4
		c0.4,1.6,0.6,3.2,0.5,4.9L1186.9,721z M1181.4,723c0,3.4,0.9,5.8,2.6,7.4c1.5,1.4,3.4,2.3,5.5,2.3c1.2,0,2.5-0.2,3.6-0.8
		c1.8-1,3.3-2.4,4.3-4.2l-0.9-0.6c-0.6,0.7-1.2,1.2-1.9,1.8c-0.8,0.6-1.7,0.9-2.6,0.9c-2,0-3.3-1.1-4.1-3.3
		c-0.5-1.3-0.7-2.7-0.8-4.1h10.1c0-0.5-0.1-1-0.1-1.6c-0.1-1.2-0.4-2.4-1-3.6c-0.6-1.2-1.5-2.2-2.7-2.8c-1.1-0.7-2.4-1-3.7-1
		c-2.2,0-4.4,0.9-5.9,2.5C1182.1,717.9,1181.2,720.4,1181.4,723 M1174.3,713.4c-2.6-0.1-5.1,1-6.8,2.9c-1.7,1.9-2.6,4.5-2.6,7.1
		c-0.1,2.4,0.8,4.8,2.4,6.7c1.6,1.8,3.9,2.8,6.2,2.7c1,0,2-0.2,2.9-0.5c1.8-0.8,3.4-2,4.5-3.7l-0.7-0.7c-0.5,0.6-1,1.1-1.6,1.5
		c-0.8,0.5-1.7,0.7-2.7,0.7c-1.7,0-3.2-1-4-2.5c-1-1.9-1.5-4.1-1.5-6.2c0-1.6,0.2-3.2,0.8-4.6c0.3-1.2,1.4-2,2.6-2
		c0.4,0,0.8,0.1,1.1,0.4c0.4,0.4,0.5,0.9,0.5,1.4c0,0.3,0,0.5,0,0.7s0,0.4,0,0.5c-0.1,0.9,0.3,1.8,1.1,2.2c1,0.6,2.3,0.4,3.2-0.4
		c0.5-0.5,0.7-1.1,0.7-1.8c0-1.3-0.7-2.5-1.8-3.1C1177.4,713.8,1175.9,713.3,1174.3,713.4 M1144.7,732.2h9.5v-0.9
		c-0.5-0.1-1-0.3-1.5-0.6c-0.3-0.5-0.5-1.1-0.4-1.7v-10.6c0.4-0.6,0.8-1.1,1.3-1.5c0.5-0.5,1.2-0.7,1.9-0.7c0.8-0.1,1.6,0.4,1.8,1.2
		c0.2,0.7,0.3,1.3,0.3,2v9.6c0.1,0.6-0.1,1.2-0.4,1.7c-0.4,0.3-0.9,0.5-1.5,0.6v0.9h9.3v-0.9c-0.5,0-1.1-0.2-1.5-0.5
		c-0.4-0.5-0.5-1.1-0.5-1.7v-9.6c0-2.2-0.5-3.8-1.4-4.6c-1.1-0.9-2.5-1.4-4-1.3c-1.1,0-2.3,0.3-3.2,0.9c-1,0.6-1.8,1.4-2.4,2.4v-2.8
		h-7.5v0.9c0.6,0,1.2,0.2,1.7,0.6c0.3,0.5,0.5,1.1,0.4,1.7v11.7c0.1,0.6-0.1,1.3-0.5,1.8c-0.5,0.4-1,0.6-1.6,0.6L1144.7,732.2z
		 M1134.3,732.2h9.5v-0.9c-0.5-0.1-1-0.3-1.5-0.6c-0.3-0.5-0.5-1.1-0.4-1.7v-15.1h-7.6v0.9c0.6,0.1,1.1,0.3,1.6,0.7
		c0.3,0.5,0.5,1.1,0.4,1.7v11.7c0.1,0.7-0.1,1.4-0.6,1.9c-0.4,0.3-0.9,0.5-1.4,0.5L1134.3,732.2z M1136,707.8c0,1.7,1.4,3.1,3.1,3.1
		c1.7,0,3.1-1.4,3.1-3.1c0-1.7-1.4-3.1-3.1-3.1c-0.8,0-1.6,0.3-2.2,0.9C1136.3,706.2,1136,707,1136,707.8 M1117.9,732.2h10.6v-0.9
		c-0.8,0-1.6-0.2-2.3-0.6c-0.4-0.3-0.6-1.1-0.6-2.5v-7.5c-0.1-1,0.2-2,0.8-2.8c0.4-0.5,0.9-0.9,1.6-1c0.2,0,0.7,0.4,1.3,1.2
		c0.5,0.7,1.3,1.2,2.2,1.2c0.7,0,1.3-0.3,1.8-0.8c0.5-0.5,0.7-1.2,0.7-1.9c0.1-0.9-0.3-1.7-1-2.3c-0.6-0.5-1.4-0.8-2.2-0.8
		c-1,0-2.1,0.3-2.9,1c-0.9,0.8-1.8,1.6-2.5,2.6v-3.1h-7.5v0.9c0.6,0,1.2,0.2,1.7,0.6c0.3,0.5,0.5,1.1,0.4,1.7v10.8l0,1.2
		c0,0.6-0.1,1.1-0.5,1.6c-0.5,0.3-1,0.5-1.6,0.5L1117.9,732.2z M1095.1,732.2h13.2v-1c-1,0.1-1.9-0.2-2.8-0.8
		c-0.5-0.5-0.7-1.4-0.7-2.9v-7.4c2.4,0,4.1-0.1,5.3-0.2c1.2-0.1,2.5-0.4,3.6-0.9c1.4-0.5,2.6-1.5,3.4-2.8c0.7-1.1,1-2.4,1-3.7
		c0-2.7-0.9-4.6-2.6-5.7s-4.3-1.6-7.7-1.6h-12.8v1c0.9,0,1.8,0.3,2.6,0.8c0.5,0.4,0.7,1.3,0.7,2.8v17.5c0.1,1-0.1,2-0.7,2.8
		c-0.8,0.6-1.7,0.9-2.6,0.8L1095.1,732.2z M1104.8,718.8v-10.7c-0.1-0.4,0.1-0.9,0.5-1.1c0.5-0.2,1.1-0.3,1.7-0.3
		c1.7,0,2.9,0.6,3.5,1.7c0.7,1.4,1,2.9,0.9,4.4c0,2.6-0.6,4.4-1.9,5.2C1108.7,718.4,1107.2,718.7,1104.8,718.8"/>
	<path id="Path_8713" d="M1049.9,693.1c-0.2,0.2-0.5,0.2-0.7,0c-0.1-0.1-0.1-0.3-0.1-0.4c0.1-0.2,0-0.4-0.2-0.5
		c-0.2-0.1-0.4,0-0.5,0.2c0,0.1,0,0.3,0.1,0.4c0,0.1,0,0.2,0.1,0.2c-0.1,0-0.1,0-0.2,0c-0.3,0.1-0.5,0.4-0.5,0.4
		c0.2,0.2,0.4,0.2,0.6,0.2c0.1,0,0.2-0.1,0.3-0.1c0,0.1,0.1,0.2,0.1,0.2c0,0.1,0,0.2,0,0.3l0.4-0.1c-0.1-0.1-0.1-0.2-0.1-0.3
		c0-0.1,0-0.2,0-0.2c0.1,0,0.2,0,0.3,0C1049.7,693.4,1049.8,693.3,1049.9,693.1 M1058.5,696c0-0.1,0-0.2-0.2-0.2
		c-0.8-0.1-1.6-0.2-2.5-0.3c-1.9-0.1-3.9-0.1-5.8,0.1c-0.4,0-0.9,0.1-1.3,0.2c-0.1,0-0.2,0.1-0.2,0.1c0,0.4,0,0.7,0,1.1
		c1.6-0.3,3.3-0.4,4.9-0.3c1.7-0.1,3.4,0,5,0.3C1058.6,696.9,1058.5,696.2,1058.5,696 M1048.3,695.5c1.1-0.3,1.6-0.5,5.2-0.5
		c1.8,0,3.6,0.1,5.4,0.5c0.3-0.1,0.2-0.3,0.2-0.5c0-0.2-0.1-0.3-0.2-0.3c-0.4-0.1-0.7-0.2-1.1-0.2c-1.4-0.2-2.8-0.3-4.1-0.3
		c-1.3,0-2,0-2.9,0.1c-0.8,0-1.7,0.2-2.5,0.4c-0.1,0-0.2,0.1-0.2,0.3c0,0.1,0,0.3,0,0.4C1048,695.4,1048.1,695.5,1048.3,695.5
		C1048.3,695.5,1048.3,695.5,1048.3,695.5 M1056.7,692.6c-0.1,0-0.1,0-0.2,0c0-0.1,0-0.1,0-0.2c0.1-0.2,0.1-0.4-0.1-0.5
		c-0.2-0.1-0.4-0.1-0.5,0.1c-0.1,0.1-0.1,0.2,0,0.4c0,0.1,0,0.2,0,0.2c0,0-0.1,0-0.1,0c-0.2,0-0.3,0.2-0.3,0.4s0.2,0.3,0.4,0.3
		c0.1,0,0.1,0,0.2-0.1c0,0.1,0,0.2,0,0.2c0,0.1,0,0.2-0.1,0.3l0.4,0c0-0.1-0.1-0.2,0-0.3c0-0.1,0-0.2,0-0.2c0.1,0.3,0.3,0.4,0.6,0.4
		c0.3-0.1,0.4-0.3,0.4-0.6C1057.1,692.7,1056.9,692.5,1056.7,692.6 M1054.2,692.4c-0.1,0-0.1,0-0.2,0c0-0.1,0-0.2,0-0.2
		c0.1-0.2,0-0.4-0.2-0.5c-0.2-0.1-0.4,0-0.5,0.2c-0.1,0.1-0.1,0.3,0,0.4c0,0.1,0,0.2,0,0.2c0,0-0.1,0-0.1,0c-0.2-0.1-0.4,0-0.5,0.2
		c-0.1,0.2,0,0.4,0.2,0.5c0.1,0.1,0.3,0.1,0.4,0c0.1,0,0.2,0,0.3-0.1c0,0.1,0,0.2,0,0.2c0,0.1,0,0.2-0.1,0.3h0.4
		c0-0.1-0.1-0.2-0.1-0.3c0-0.1,0-0.2,0-0.3c0.1,0.2,0.3,0.4,0.6,0.3s0.4-0.3,0.3-0.6C1054.7,692.5,1054.5,692.3,1054.2,692.4
		 M1051.8,692.5c0,0-0.1,0-0.1,0c0-0.1,0-0.2,0-0.2c0.1-0.2,0-0.4-0.2-0.5c-0.2-0.1-0.4,0-0.5,0.2c-0.1,0.1,0,0.3,0,0.4
		c0,0.1,0,0.2,0,0.2c-0.1,0-0.1,0-0.2,0c-0.2,0.1-0.3,0.3-0.2,0.5s0.3,0.3,0.5,0.2c0.1,0,0.1-0.1,0.1-0.1c0,0.1,0.1,0.2,0,0.2
		c0,0.1,0,0.2,0,0.3l0.4,0c0-0.1-0.1-0.2-0.1-0.3c0-0.1,0-0.2,0-0.2c0.1,0,0.2,0.1,0.3,0c0.2,0.1,0.4,0,0.5-0.2
		c0.1-0.2,0-0.4-0.2-0.5C1052,692.4,1051.9,692.4,1051.8,692.5 M1055.6,688l1.1-0.6c-0.7-0.2-1.2-0.7-1.5-1.3l0.7-0.4
		c-0.6-0.4-1-0.9-1.3-1.5l0.7-0.2c0.2-0.8-0.2-1.6-1-1.9c-0.8-0.2-1.6,0.2-1.9,1c-0.1,0.3-0.1,0.6,0,0.8l0.7,0.2
		c-0.3,0.6-0.8,1.1-1.3,1.5l0.7,0.4c-0.3,0.6-0.8,1.1-1.5,1.3l1.1,0.6c-0.3,0.7-0.9,1.3-1.7,1.6c0.5,0.2,1.1,0.4,1.6,0.5
		c-0.2,0.3-0.4,0.6-0.6,0.9c0.5-0.1,1.6-0.3,2.4-0.5c0.8,0.2,2,0.4,2.6,0.5c-0.2-0.3-0.4-0.6-0.6-0.9c0.6-0.1,1.1-0.3,1.6-0.5
		C1056.5,689.3,1055.9,688.7,1055.6,688 M1059.6,693.4c0,0-0.2-0.4-0.5-0.4c-0.1,0-0.1,0-0.2,0c0-0.1,0.1-0.1,0.1-0.2
		c0.1-0.2,0.1-0.4-0.1-0.5c-0.2-0.1-0.4-0.1-0.5,0.1c-0.1,0.1-0.1,0.2-0.1,0.4c0,0.1,0,0.2,0,0.2c-0.2-0.1-0.4,0-0.4,0.2
		c-0.1,0.2,0,0.4,0.2,0.4c0.1,0,0.2,0,0.3,0c0,0.1,0,0.2,0,0.2c0,0.1-0.1,0.2-0.1,0.3l0.4,0.1c0-0.1,0-0.2,0-0.3
		c0-0.1,0-0.2,0.1-0.2c0.1,0.1,0.2,0.1,0.3,0.1C1059.2,693.7,1059.4,693.6,1059.6,693.4 M1024.7,728.5l0.2-0.6l-0.2-0.1l-0.2,0.7
		L1024.7,728.5z M1033.3,715.1c0-0.1-0.1-0.2-0.2-0.2c-0.1,0-0.2,0.1-0.2,0.2c0,0.1,0.1,0.2,0.2,0.2c0,0,0,0,0,0
		C1033.2,715.3,1033.3,715.2,1033.3,715.1 M1029.2,701.4c0,0.1,0,0.2,0.1,0.3c0.1,0,0.1-0.1,0.3,0c0-0.1-0.1-0.2-0.2-0.4
		c0-0.1,0-0.1-0.1-0.1S1029.2,701.4,1029.2,701.4 M1031,701c0.6,0,0.6,0,1.3-0.1c-0.1-0.3-0.1-0.4-0.2-0.7c0,0-0.1-0.1-0.1-0.1
		c-0.4,0.1-0.8,0.2-1.2,0.3c0,0-0.1,0.1-0.1,0.1h1l0,0.1C1031.5,700.8,1031.3,700.9,1031,701 M1032.6,705.5c0-0.1-0.1-0.2-0.2-0.2
		c-0.1,0-0.2,0.1-0.2,0.2c0,0.1,0.1,0.2,0.2,0.2c0,0,0,0,0,0C1032.5,705.7,1032.6,705.6,1032.6,705.5 M1033.3,711.9
		c0-0.1-0.1-0.2-0.2-0.2c-0.1,0-0.2,0.1-0.2,0.2c0,0.1,0.1,0.2,0.2,0.2c0,0,0,0,0,0C1033.2,712.1,1033.3,712,1033.3,711.9
		 M1049.3,720.6c0-0.1-0.1-0.1-0.1-0.1c-0.1,0-0.1,0.1-0.1,0.1c0,0.1,0.1,0.1,0.1,0.1l0,0C1049.2,720.8,1049.3,720.7,1049.3,720.6
		 M1032.8,688.8c0.2,0.2,0.4,0.5,0.5,0.8c0,0.1-0.4-0.2-0.4,0c-0.1,0.3,0.6,0.4,0.8,0.3c-0.1-0.3-0.2-0.5-0.3-0.8
		C1033,688.7,1033,688.8,1032.8,688.8 M1031.5,691l-0.2-0.4c0,0.4,0.1,0.9,0.1,1.3c0.4-0.5,0.7-1,0.8-1.7c0,0-0.4,0.7-0.4,0.7
		c0,0-0.1-0.3-0.1-0.5C1031.7,690.6,1031.6,691,1031.5,691 M1029.1,690.7c0.4-0.2,0.8-0.4,1.2-0.6c-0.3,0-0.5,0-0.8,0.1
		c0-0.3,0.3-0.5,0.2-0.8C1029.4,689.8,1029.2,690.2,1029.1,690.7 M1035.5,691.6c-0.1-0.3-1.2-0.7-1.2-0.7c0.1,0.1,0.3,0.2,0.2,0.2
		c-0.2,0-0.4-0.1-0.5-0.2c-0.4,0.3,0.2,1.2,0.4,1.2s-0.1-0.3,0-0.6S1035.2,691.7,1035.5,691.6 M1035.7,692.2
		c-0.8,0.2-1.6,0.6-2.2,1.2c-0.1,0.2,0.1,0.3,0.3,0.4c0.5-0.1,1.1-0.2,1.5-0.5c-0.2,0-0.4,0.1-0.6,0.2c-0.2,0.1-0.6,0.1-0.6,0
		c0-0.2,0.6-0.2,0.7-0.3l-0.6,0C1034.6,692.7,1035.1,692.4,1035.7,692.2 M1036.3,694.6c0.5-0.7,0.5-0.8,0.6-1.1
		c-0.2,0.2-0.4,0.5-0.6,0.6c0,0-0.1-0.5-0.2-0.7c0,0-0.1-0.1-0.1-0.1C1035.8,693.8,1036,694.3,1036.3,694.6 M1032.6,687.8
		c0.7,0,1.5,0.1,2.1,0.4C1034.6,687.8,1033.2,687.4,1032.6,687.8 M1033.7,687.5l1.2,0.2C1034.6,687.4,1034.1,687.3,1033.7,687.5
		 M1041.4,691.1c-0.8-0.4-1.5-0.9-2.3-1.4c1,0.9,2.3,1.7,2.2,1.8s-0.2,0-0.3-0.1c-0.4-0.3-0.7-0.4-1.1-0.7c-0.2-0.2-0.4-0.3-0.7-0.3
		c0.6,0.5,2,1.4,1.9,1.5c-0.1,0.1-1.2-0.4-1.6-0.7c-0.1-0.1-0.2-0.1-0.4-0.2c0.1,0.1,0.1,0.1,0.2,0.2c0.4,0.3,0.9,0.6,1.4,0.9
		c0.2,0.1,0.4,0.2,0.3,0.3s-1.8-0.7-1.8-0.7c0.5,0.4,1.8,1.1,1.7,1.2c-0.6-0.2-1.2-0.4-1.8-0.6c0.5,0.4,1.7,0.8,1.7,1
		c-0.5-0.1-1.1-0.2-1.6-0.4c0.4,0.3,0.9,0.6,1.4,0.8c0.4,0.2,0.7,0.5,1,0.8v-0.2c0-0.2,0-2.1,0-2.2c0-0.3-0.1-0.5-0.1-0.8
		c-0.1-0.4-0.3-0.7-0.4-1.1C1041.2,690.1,1041.4,691.1,1041.4,691.1 M1041.9,686.2c-0.2-0.3-0.5-0.5-0.9-0.7c-0.1,0-0.1,0-0.1,0.1
		c-0.2,0.3-0.3,0.7-0.3,1c0,0.1,0.1,0.2,0.1,0.3c0.1-0.3,0.2-0.6,0.3-0.9c0.1,0.2,0.2,0.4,0.3,0.7c0.1-0.5,0-0.5,0-0.8
		C1041.6,685.8,1041.6,686.2,1041.9,686.2 M1041.8,690.7c0-0.4,0.5-0.7,0.1-1.1C1041.8,689.9,1041.7,690.3,1041.8,690.7
		 M1043.2,689.3c0.5,0.1,1-0.1,1.4-0.4c-0.1-0.1-0.1-0.1-0.2-0.2c-0.2-0.3-0.4-0.5-0.7-0.6c0.2,0.2,0.3,0.4,0.4,0.7h-0.6
		c0.1,0.1,0.3,0.2,0.5,0.2c-0.2,0-0.5,0.1-0.5,0.1C1043.4,689.1,1043.2,689.2,1043.2,689.3 M1042.6,686.7c0.3-0.1,0.5-0.3,0.8-0.4
		c0.3-0.1,0.6-0.2,0.9-0.1c-0.3,0.1-0.6,0.3-0.8,0.5l1-0.3c-0.2,0.2-0.5,0.3-0.7,0.6c0.4,0,0.5-0.4,0.9-0.5c0.1,0.4-0.3,0.5-0.5,0.8
		c0.2,0,0.4-0.2,0.5-0.3c0.1-0.2,0.2-0.4,0.4-0.6c0.1-0.1,0-0.3-0.1-0.4c0,0-0.1,0-0.1,0c-0.3-0.1-0.6-0.1-0.9-0.1
		C1043.4,686,1042.9,686.3,1042.6,686.7 M1046.9,703.7c-0.2,0.5-0.1,1.1,0.2,1.5l0.8-0.8c-0.2,0-0.4,0.1-0.5,0.2
		c0-0.2,0-0.3,0.1-0.5c0,0-0.4,0.5-0.4,0.5C1047,704.3,1047,704,1046.9,703.7 M1043.1,705.1c0,0.4,0,0.8,0.1,1.2
		c0.1,0.1,0.6-0.1,0.9-0.3c0.3-0.4,0.5-0.7,0.7-1.1l-1.1,0.9l0.1-0.9l-0.5,0.7L1043.1,705.1z M1041.1,705.5c0.1,0-1.6-0.2-2.5-0.4
		c0.5,0,1-0.1,1.5-0.3c-1.1,0.1-2.1,0.1-2.9,0.1C1037.2,705,1038.6,706,1041.1,705.5 M1038.3,697c-0.3-0.1-0.6-0.3-0.9-0.3
		c-0.3-0.1-0.7-0.1-1-0.1c0.1,0.2,0.2,0.4,0.3,0.6c0.2,0.5,0.4,0.9,0.6,1.3c0-0.1-0.3-1.3-0.2-1.4c0.3,0.2,0.5,0.3,0.8,0.5
		c-0.3-0.4-0.5-0.5-0.7-0.8C1037.4,697,1037.8,697,1038.3,697 M1042.3,697.2c0,0,1.4-0.4,1.4-0.5c-0.2-0.1-0.3-0.2-0.5-0.2
		c-0.7-0.1-1.4-0.1-2.1,0.1l1.5,0c0,0-1,0.2-0.9,0.4c0.2,0,0.7-0.1,1-0.2C1042.7,696.9,1042.3,697.2,1042.3,697.2 M1056.2,699
		c0.2,0.5,0.3,1,0.4,1.6c-0.1-0.1-0.2-0.1-0.3-0.1c0.1,0.2,0.2,0.5,0.3,0.7c0.1,0.1,0.1,0,0.2-0.1
		C1056.7,700.4,1056.5,699.7,1056.2,699 M1057.9,703.5c0-0.1,0.1-0.3,0.1-0.4c-0.1-0.5-0.3-1.5-0.4-1.5c0,0-0.1,1.2-0.1,1.2
		c-0.2-0.1-0.3-0.3-0.5-0.2c0.1,0.1,0.1,0.2,0.2,0.4c-0.2-0.1-0.5-0.3-0.7-0.4c0,0.1,0.1,0.1,0.1,0.2c0.2,0.2,0.4,0.4,0.6,0.6
		c0.2,0.1,0.4,0.2,0.6,0.2C1057.7,703.6,1057.8,703.6,1057.9,703.5 M1062.4,686.3c0,0,0.6,0,0.9-0.1c-0.5-0.1-1-0.1-1.4,0.1
		c0.3,0.5,1,0.8,1.2,0.7c-0.2-0.1-0.5-0.3-0.7-0.4h0.5C1062.8,686.4,1062.5,686.3,1062.4,686.3 M1064.3,688.7c-0.2,0-0.5,0-0.8,0
		c0.2-0.1,0.5-0.3,0.6-0.4c0,0-0.5,0.2-0.8,0.3c0-0.3,0.2-0.8,0.1-0.7c0,0-0.3,0.7-0.4,0.9C1063.4,689,1063.9,689,1064.3,688.7
		 M1065.6,686c0.1-0.3,0.1-0.7,0-1c0-0.1-0.2-0.4-0.3-0.4c-0.1,0-0.3,0.1-0.3,0.2c-0.2,0.3-0.2,0.7-0.2,1c0.2-0.2,0.3-0.4,0.4-0.7v1
		c0,0,0.2-0.9,0.2-0.9C1065.4,685.4,1065.6,685.8,1065.6,686 M1066.6,689.3c0-0.1,0.2-0.2,0.2-0.3c-0.3-0.8-0.7-1.5-1.1-2.2
		c0,0,0.2,0.7,0.4,1s0.3,0.6,0.3,0.9C1066.5,688.8,1066.6,689.3,1066.6,689.3 M1072.1,687.6c-0.6,0.2-1.2,0.5-1.8,0.8
		c0.5-0.1,1-0.3,1.5-0.4s1.2-0.1,1.8-0.2c-0.4-0.4-1-0.5-1.6-0.5c-0.4,0.1-1.4,0.3-1.5,0.4C1070.5,687.7,1071.4,687.7,1072.1,687.6
		 M1069,687.9c0.9-0.4,1.9-0.7,2.9-0.9c-0.5-0.1-1,0-1.5,0.1C1069.9,687.2,1069.4,687.5,1069,687.9 M1071.2,693.7l-0.7-0.2
		c0.4,0.3,0.8,0.5,1.2,0.7c0.1,0,0.2,0,0.4,0c0-0.1,0-0.3,0-0.4c-0.2-0.3-0.5-0.6-0.8-0.9c0.1,0.2,0.2,0.4,0.4,0.6
		c-0.3,0-0.4-0.4-0.7-0.1C1071,693.5,1071.1,693.6,1071.2,693.7 M1069.7,691.8c0.1,0,1.1,0.1,1.2,0.1c-0.1,0.1-0.2,0.3-0.1,0.3
		c0.2-0.1,0.5-0.2,0.7-0.3C1071,691.5,1070.3,691.5,1069.7,691.8 M1068.8,693.5c0,0.5,0.2,1.1,0.6,1.5c0.3-0.3,0.5-1.5,0.3-1.7
		l-0.3,0.9C1069.1,694,1069.1,693.6,1068.8,693.5 M1069.5,696.7c-0.2,0.1-0.3,0.2-0.5,0.3c0.3,0,0.6-0.1,0.9-0.2
		c0,0-0.4,0.7-0.4,0.7c0.2-0.1,0.3-0.1,0.5-0.2c0.1-0.1,0.2-0.2,0.4-0.2c0.1,0.2,0.1,0.4-0.1,0.8c0.1,0,0.1,0,0.2-0.1
		c0.3-0.3,0.4-0.8,0.2-1.2C1070.2,696.6,1069.8,696.6,1069.5,696.7 M1063.9,697.5c0.5,0.1,1,0.2,1.4,0.4c-0.4-0.3-0.8-0.5-1.2-0.7
		c-0.3,0-0.5,0-0.8,0c-0.1,0-0.3,0.1-0.2,0.2c0,0.1,1.1,1,1.2,0.8l-0.5-0.5c0,0,0.8,0.2,0.9,0.2L1063.9,697.5 M1065.4,694.1
		c-0.2-0.4-0.5-0.8-0.7-1.2C1064.8,693.3,1065,693.8,1065.4,694.1 M1065.5,695.1l-0.7-1.5c-0.2,0.4,0.1,0.6,0.2,0.9
		C1065.1,694.7,1065.3,694.9,1065.5,695.1 M1066,697.2c0-0.5-0.1-0.9-0.4-1.3c-0.2-0.4-0.4-0.8-0.8-1.1
		C1064.9,695,1065.9,697.1,1066,697.2 M1063.8,701.6c0.9,0.1,1.8-0.1,2.5-0.6c0.7-0.5,1.3-1.2,1.6-2.1c-0.1,0.1-0.2,0.1-0.3,0.2
		c-0.3,0.4-0.6,0.8-0.9,1.1c-0.3,0.3-0.6,0.6-1,0.7c-0.5,0.2-1.1,0.4-1.7,0.4C1063.9,701.3,1063.8,701.4,1063.8,701.6 M1064.4,701
		c0.2,0,0.4-0.2,0.4-0.4c-0.2,0.1-0.5,0.2-0.8,0.4C1064.1,701,1064,701,1064.4,701 M1062.9,700.7c0.2,0.1,0.4,0.1,0.6,0
		c0.4-0.2,0.8-0.5,1.1-0.8c0.1-0.2,0.2-0.6,0-0.8c-0.2,0,0.1,0.3-0.4,0.8C1063.9,700.2,1063.4,700.5,1062.9,700.7 M1062.1,701.3
		C1062.1,701.3,1062.1,701.3,1062.1,701.3c0,0.1,0.1,0.1,0.1,0.2c0.2,0,0.4,0.1,0.6,0.1c0,0,0.1-0.1,0.1-0.1c0,0-0.1-0.1-0.1-0.1
		C1062.6,701.3,1062.4,701.3,1062.1,701.3 M1066.2,705.3c-0.9,0-1.7-0.1-2.5-0.4c0.2,0.2,0.5,0.3,0.8,0.4c0.5,0.1,1.1,0.2,1.6,0.3
		c0.3,0,0.9,0,1-0.4c0-0.1,0-0.2,0-0.3c0,0-1.9-0.3-2.1-0.4c0.5,0.2,1.6,0.6,1.6,0.6c-0.7,0-1.4-0.1-2-0.2
		C1064.6,704.9,1065.7,705.1,1066.2,705.3 M1065.9,703.2c-0.3,0-2.9-0.2-3.1-0.2c0.7,0.2,1.4,0.4,2,0.5c-0.3,0.2-1.3,0.4-1.3,0.5
		C1064.3,704.1,1065.2,703.8,1065.9,703.2 M1061.3,705.3c0.2,0.4,0.4,0.8,0.8,1.1c0.1,0,0.1,0,0.2,0c0.1-0.1,0.2-0.2,0.3-0.4
		c0.1-0.4,0.1-0.7,0.2-1.1c0-0.2-0.1-0.4-0.2-0.4c0,0.5-0.1,1-0.3,1.4c0-0.2-0.1-0.4-0.1-0.6c0-0.2-0.1-0.4-0.2-0.6
		c0,0.1-0.1,0.3-0.1,0.5c0,0.2,0.1,0.7,0,0.7c-0.3-0.4-0.5-0.9-0.5-1.5C1061.3,704.3,1061.2,705.1,1061.3,705.3 M1057.3,705.2
		c-0.1,0-0.2,0-0.2,0.1c0.1,0.3,0.4,0.5,0.6,0.6c0.1,0,0.2,0,0.2-0.1C1057.8,705.6,1057.6,705.4,1057.3,705.2 M1058.8,705.9
		c-0.2-0.2-0.6-0.7-0.8-1c-0.1-0.2-0.6,0-0.5,0.1c0.2,0.3,0.6,0.7,0.8,0.9C1058.3,705.9,1058.8,705.9,1058.8,705.9 M1059.4,705.9
		c-0.1-0.2-0.5-0.5-0.6-0.7c-0.1-0.2-0.4-0.3-0.5-0.2c0.2,0.2,0.6,0.6,0.8,0.9C1059,705.9,1059.4,705.9,1059.4,705.9 M1076.7,730.6
		c0.1,0,0.2,0,0.2-0.1c0,0,0,0,0-0.1c0-0.1-0.1-0.2-0.2-0.3c0,0-0.1,0-0.1,0c-0.1,0.1-0.1,0.2,0,0.3
		C1076.7,730.6,1076.7,730.6,1076.7,730.6 M1076.7,727.7c0.1,0,0.2,0,0.2-0.1c0,0,0,0,0-0.1c0-0.1-0.1-0.2-0.2-0.3c0,0-0.1,0-0.1,0
		c-0.1,0.1-0.1,0.2,0,0.3C1076.6,727.7,1076.7,727.7,1076.7,727.7 M1076.6,724.8c0.1,0,0.2,0,0.2-0.1c0,0,0,0,0-0.1
		c0-0.1,0-0.2-0.2-0.3c0,0-0.1,0-0.1,0c-0.1,0.1-0.1,0.2,0,0.3C1076.6,724.8,1076.6,724.8,1076.6,724.8 M1079.1,722.6
		c0-0.1-0.1-0.2-0.2-0.3c0,0-0.1,0-0.1,0c-0.1,0.1-0.1,0.2,0,0.3c0,0,0.1,0.1,0.1,0.1C1079,722.8,1079.1,722.8,1079.1,722.6
		C1079.1,722.7,1079.1,722.7,1079.1,722.6 M1079.1,724c0-0.1-0.1-0.2-0.2-0.2c0,0,0,0-0.1,0c-0.1,0-0.2,0.2-0.1,0.3
		c0,0,0,0.1,0.1,0.1c0.1,0.1,0.2,0,0.3-0.1C1079.1,724.1,1079.1,724,1079.1,724 M1078.9,725.8c0.1,0,0.2,0,0.2-0.1c0,0,0,0,0-0.1
		c0-0.1-0.1-0.2-0.2-0.3c0,0-0.1,0-0.1,0c-0.1,0.1-0.1,0.2,0,0.3C1078.8,725.8,1078.8,725.8,1078.9,725.8 M1079,731.8
		c-0.1,0.1-0.1,0.2,0,0.3c0,0,0.1,0.1,0.1,0.1c0.1,0,0.2,0,0.2-0.1c0,0,0,0,0-0.1c0-0.1-0.1-0.2-0.2-0.3
		C1079.1,731.8,1079.1,731.8,1079,731.8 M1079.1,730.7c0.1,0,0.2,0,0.2-0.1c0,0,0,0,0-0.1c0-0.1-0.1-0.2-0.2-0.3c0,0-0.1,0-0.1,0
		c-0.1,0.1-0.1,0.2,0,0.3C1079.1,730.6,1079.1,730.6,1079.1,730.7 M1079.4,728.9c0-0.1-0.1-0.2-0.2-0.2c0,0,0,0-0.1,0
		c-0.1,0-0.2,0.2-0.1,0.3c0,0,0,0.1,0.1,0.1c0.1,0.1,0.2,0,0.3-0.1C1079.4,729,1079.4,728.9,1079.4,728.9 M1076.5,708.8
		c0.1,0,0.2,0,0.2,0c0.1-0.1,0.1-0.3-0.1-0.4C1076.4,708.5,1076.4,708.8,1076.5,708.8 M1076.7,708.3c0.1-0.1,0.1-0.3,0-0.4
		c0,0,0,0,0,0c-0.2,0-0.2,0.3-0.2,0.4C1076.6,708.4,1076.7,708.4,1076.7,708.3 M1077.3,708.2c0-0.1-0.1-0.2-0.2-0.3c0,0-0.1,0-0.1,0
		c-0.1,0.1-0.1,0.2,0,0.3c0,0,0.1,0.1,0.1,0.1C1077.1,708.4,1077.2,708.4,1077.3,708.2C1077.3,708.3,1077.3,708.2,1077.3,708.2
		 M1077,708.9c0.1,0,0.2,0,0.2-0.1c0,0,0,0,0-0.1c0-0.1-0.1-0.2-0.2-0.3c0,0-0.1,0-0.1,0c-0.1,0.1-0.1,0.2,0,0.3
		C1077,708.9,1077,708.9,1077,708.9 M1077.8,708.4c0.1-0.1,0.1-0.3-0.1-0.4c-0.2,0-0.2,0.3-0.2,0.4
		C1077.6,708.4,1077.7,708.4,1077.8,708.4 M1077.5,709c0.1,0,0.2,0,0.2,0c0.1-0.1,0.1-0.3-0.1-0.4
		C1077.4,708.6,1077.4,708.9,1077.5,709 M1076.6,710.9c0.1,0,0.2,0,0.2,0c0.1-0.1,0.1-0.3-0.1-0.4
		C1076.6,710.5,1076.5,710.8,1076.6,710.9 M1076.2,710.5c-0.1,0.1-0.1,0.2,0,0.3c0,0,0.1,0.1,0.1,0.1c0.1,0,0.2,0,0.2-0.1
		c0,0,0,0,0-0.1c0-0.1-0.1-0.2-0.2-0.3C1076.3,710.5,1076.2,710.5,1076.2,710.5 M1076.4,709.2c0.2,0.2,0.1,0.5-0.1,0.7c0,0,0,0,0,0
		c0,0,0,0.1-0.1,0.1c-0.1,0.1,0,0.2,0.1,0.2c0.3,0,0.6,0.1,1,0.1c0.2,0,0.2-0.1,0.2-0.3c-0.1-0.1-0.1-0.2-0.2-0.4
		c0.1-0.1,0.2-0.1,0.2-0.2c0.1-0.1,0.2-0.2,0.1-0.2c0-0.1-0.1-0.2-0.2-0.2c-0.3-0.1-0.5-0.1-0.8-0.1
		C1076.4,709,1076.3,709.1,1076.4,709.2 M1071.9,722.7c0-0.1-0.1-0.2-0.2-0.3c0,0-0.1,0-0.1,0c-0.1,0.1-0.1,0.2,0,0.3
		c0,0,0.1,0.1,0.1,0.1C1071.8,722.9,1071.9,722.9,1071.9,722.7C1071.9,722.8,1071.9,722.8,1071.9,722.7 M1072.1,724.6
		c0-0.1-0.1-0.2-0.2-0.3c0,0-0.1,0-0.1,0c-0.1,0.1-0.1,0.2,0,0.3c0,0,0.1,0.1,0.1,0.1C1071.9,724.8,1072,724.8,1072.1,724.6
		C1072.1,724.7,1072.1,724.6,1072.1,724.6 M1072.2,726c0-0.1-0.1-0.2-0.2-0.3c0,0-0.1,0-0.1,0c-0.1,0.1-0.1,0.2,0,0.3
		c0,0,0.1,0.1,0.1,0.1C1072.1,726.2,1072.2,726.2,1072.2,726C1072.2,726.1,1072.2,726.1,1072.2,726 M1072.4,727.8
		c0-0.1-0.1-0.2-0.2-0.3c0,0-0.1,0-0.1,0c-0.1,0.1-0.1,0.2,0,0.3c0,0,0.1,0.1,0.1,0.1C1072.2,727.9,1072.3,727.9,1072.4,727.8
		C1072.4,727.8,1072.4,727.8,1072.4,727.8 M1072.5,729.2c0-0.1-0.1-0.2-0.2-0.2c0,0,0,0-0.1,0c-0.1,0-0.2,0.2-0.1,0.3
		c0,0,0,0.1,0.1,0.1c0.1,0.1,0.2,0,0.3-0.1C1072.5,729.2,1072.5,729.2,1072.5,729.2 M1072.8,708.8c0-0.1-0.1-0.2-0.2-0.3
		c0,0-0.1,0-0.1,0c-0.1,0.1-0.1,0.2,0,0.3c0,0,0.1,0.1,0.1,0.1C1072.7,709,1072.8,709,1072.8,708.8
		C1072.8,708.9,1072.8,708.9,1072.8,708.8 M1073.2,708.9c0.1-0.1,0.1-0.3,0-0.4c0,0,0,0,0,0c-0.2,0-0.2,0.3-0.2,0.4
		C1073,708.9,1073.1,708.9,1073.2,708.9 M1072.2,708c-0.1,0-0.2,0-0.2,0c-0.1,0.1,0,0.4,0.2,0.4C1072.3,708.3,1072.3,708,1072.2,708
		 M1072.3,709c0.1-0.1,0.1-0.3-0.1-0.4c-0.2,0-0.2,0.3-0.2,0.4C1072.1,709,1072.2,709,1072.3,709 M1073.2,709.2c-0.3,0-0.7,0-1,0
		l0,0.1l0.6,0.5c-0.1,0.1-0.2,0.2-0.3,0.4c0,0-0.1,0.1-0.1,0.2c0,0.1,0.1,0.1,0.2,0.1c0.2,0,0.5,0,0.8,0c0.1,0,0.1-0.1,0.2-0.1
		c0,0,0-0.1-0.1-0.2c-0.3-0.2-0.3-0.5-0.1-0.8c0,0,0,0,0,0C1073.4,709.3,1073.3,709.2,1073.2,709.2 M1072.6,707.9
		c-0.2,0-0.2,0.3-0.2,0.4c0.1,0,0.2,0,0.2,0C1072.7,708.2,1072.7,707.9,1072.6,707.9 M1074.9,700.7
		C1074.9,700.7,1074.9,700.7,1074.9,700.7c0-0.1,0-0.1-0.1-0.2c-0.3-0.2-0.6-0.4-0.9-0.5c0,0-0.1,0.1-0.2,0.1
		c-0.1,0.2-0.1,0.5-0.2,0.7c0,0.1-0.1,0.2-0.1,0.3l0.1,0c0.1-0.1,0.2-0.3,0.3-0.4c0,0.1,0.2,0.2,0.3,0.2c0,0,0.1,0,0.1,0
		c0.1,0,0.1,0,0.2,0c0.1,0,0.2,0,0.2,0l0-0.1l-0.5-0.3c0,0,0,0,0,0L1074.9,700.7 M1082.1,712.5c0.1,0,0.2,0,0.2-0.1c0,0,0,0,0-0.1
		c0-0.1-0.1-0.2-0.2-0.3c0,0-0.1,0-0.1,0c-0.1,0.1-0.1,0.2,0,0.3C1082,712.5,1082,712.5,1082.1,712.5 M1081.5,712.6
		c0.1,0,0.2,0,0.2,0c0.1-0.1,0.1-0.3-0.1-0.4C1081.5,712.2,1081.4,712.5,1081.5,712.6 M1081.4,710.5c0.1-0.1,0.1-0.3-0.1-0.4
		c-0.2,0-0.2,0.3-0.2,0.4C1081.2,710.6,1081.3,710.6,1081.4,710.5 M1082,710.3c0-0.1,0-0.2-0.2-0.3c0,0-0.1,0-0.1,0
		c-0.1,0.1-0.1,0.2,0,0.3c0,0,0.1,0.1,0.1,0.1C1081.8,710.5,1081.9,710.5,1082,710.3C1082,710.4,1082,710.3,1082,710.3
		 M1082.3,709.7c0.1-0.1,0.1-0.3-0.1-0.4c-0.2,0-0.2,0.3-0.2,0.4C1082.2,709.7,1082.2,709.7,1082.3,709.7 M1082.5,710.2
		c0-0.1,0-0.2-0.2-0.3c0,0-0.1,0-0.1,0c-0.1,0.1-0.1,0.2,0,0.3c0,0,0.1,0.1,0.1,0.1C1082.4,710.4,1082.5,710.4,1082.5,710.2
		C1082.5,710.3,1082.5,710.2,1082.5,710.2 M1082.7,711.4c-0.1-0.1-0.2-0.3-0.1-0.4c0-0.1,0.1-0.4,0.1-0.4s-0.1,0-0.1,0
		c-0.4,0.1-0.7,0.2-1.1,0.3c-0.1,0-0.1,0.1-0.1,0.1c0,0,0.1,0.1,0.1,0.2c0.3,0.2,0.3,0.3,0.2,0.5c0,0,0,0,0,0.1
		c0,0.1,0.1,0.3,0.2,0.3c0.3-0.1,0.6-0.1,0.9-0.2C1082.8,711.7,1082.8,711.6,1082.7,711.4 M1082.8,712.3c0-0.1-0.1-0.2-0.2-0.3
		c0,0-0.1,0-0.1,0c-0.1,0.1-0.1,0.2,0,0.3c0,0,0.1,0.1,0.1,0.1C1082.6,712.4,1082.8,712.4,1082.8,712.3
		C1082.8,712.3,1082.8,712.3,1082.8,712.3 M1080.8,716.9c0.2-0.6,0.3-1.3,0.2-1.9l-0.1,0C1080.8,715.6,1080.7,716.3,1080.8,716.9
		L1080.8,716.9 M1082.4,715.7c-0.1,0.4-0.3,0.6-0.3,1c0,0.2,0.1,0.3,0.1,0.5l0.1,0c0,0,0-0.1,0-0.1c0-0.2,0-0.5,0.1-0.7
		c0.1-0.5,0.3-1.1,0.4-1.6c0-0.3,0-0.6-0.2-0.8c0,0-0.1,0-0.1-0.1c0,0,0,0.1,0,0.1c0,0,0,0.1,0,0.1
		C1082.5,714.7,1082.5,715.3,1082.4,715.7 M1081.4,719.4c0,0.1,0.1,0.2,0.1,0.3c0,0,0-0.9,0-1.1c0-0.3-0.1-0.5,0-0.8
		c0.1-0.4,0.2-0.9,0.2-1.3c0.1-0.4,0.1-0.8,0.2-1.2c0-0.2,0-0.5-0.2-0.7c0.1,0.6,0,1.1-0.2,1.7c-0.1,0.4-0.2,0.7-0.3,1.1
		C1081.2,718.1,1081.2,718.8,1081.4,719.4 M1080.8,732.8L1080.8,732.8c0-0.2,0-0.3,0-0.5c-0.1-0.4-0.4-0.8-0.3-1.3
		c0,0-0.1-0.1-0.1-0.1c0,0-0.1,0.1-0.1,0.1c0,0.3,0,0.5,0.1,0.8c0.2,0.3,0.2,0.7,0.2,1.1c0,0.2,0,0.5,0,0.7c0,0.1,0.1,0.1,0.1,0.2
		c0-0.1,0.1-0.1,0.1-0.2C1080.8,733.3,1080.8,733.1,1080.8,732.8 M1025.6,737c0,0.2-0.1,0.3-0.2,0.3c0,0,0,0,0,0c0,0-0.1,0-0.1,0
		l0-0.6c0,0,0.1,0,0.1,0C1025.5,736.7,1025.6,736.8,1025.6,737C1025.6,736.9,1025.6,736.9,1025.6,737 M1026,737.5
		c0.1-0.2,0.2-0.4,0.1-0.6c0-0.2-0.1-0.4-0.3-0.5c-0.2-0.1-0.4-0.2-0.6-0.1c-0.2,0-0.4,0-0.6,0.1l0.2,2.2l0.5,0l-0.1-0.8
		c0,0,0.1,0,0.1,0C1025.6,737.8,1025.8,737.6,1026,737.5 M1027,737l-0.1,0l-0.1-0.5c0.1,0,0.1,0,0.2,0c0.1,0,0.3,0,0.3,0.2
		c0,0,0,0,0,0C1027.3,736.9,1027.2,737,1027,737C1027.1,737,1027.1,737,1027,737 M1027.6,737.2L1027.6,737.2
		c0.2-0.1,0.3-0.4,0.2-0.6c0-0.2-0.1-0.3-0.3-0.4c-0.2-0.1-0.4-0.1-0.7-0.1c-0.2,0-0.4,0.1-0.6,0.2l0.4,2.2l0.5-0.1l-0.2-0.8l0.1,0
		c0.2,0,0.2,0,0.3,0.3c0.1,0.2,0.1,0.3,0.2,0.5l0.5-0.1c-0.1-0.1-0.2-0.4-0.3-0.6C1027.8,737.4,1027.7,737.2,1027.6,737.2
		 M1029.1,737.4L1029.1,737.4c-0.2,0.1-0.5-0.2-0.6-0.6s0-0.7,0.2-0.8s0.5,0.2,0.5,0.6C1029.4,737.1,1029.4,737.4,1029.1,737.4
		 M1029.8,736.5c-0.1-0.6-0.6-1-1.2-0.9c-0.5,0.2-0.8,0.8-0.6,1.3c0,0,0,0,0,0.1c0.2,0.6,0.6,1,1.2,0.9l0,0
		C1029.8,737.7,1030,737.2,1029.8,736.5 M1031.7,736.1l-0.4-1.2l-0.5,0.2l0.4,1.2c0.1,0.3,0.1,0.5-0.1,0.6s-0.3-0.1-0.5-0.4
		l-0.4-1.2l-0.5,0.2l0.4,1.1c0.2,0.7,0.6,0.9,1.1,0.7S1031.9,736.7,1031.7,736.1 M1032.9,736.2
		C1032.8,736.2,1032.8,736.2,1032.9,736.2l-0.6-1.2c0,0,0.1-0.1,0.1-0.1c0.3-0.1,0.6,0,0.7,0.4
		C1033.3,735.8,1033.2,736.1,1032.9,736.2 M1033.7,736c0.1-0.3,0.1-0.7-0.1-1c-0.1-0.3-0.3-0.5-0.7-0.7c-0.3-0.1-0.6,0-0.8,0.1
		c-0.2,0.1-0.4,0.2-0.5,0.3l0.9,2c0.2,0,0.3-0.1,0.5-0.2C1033.3,736.5,1033.5,736.3,1033.7,736 M1036.8,734.8l-1-2l-0.5,0.2l0.4,0.7
		l-0.5,0.3l-0.4-0.7l-0.5,0.2l1,2l0.5-0.2l-0.4-0.8l0.5-0.3l0.4,0.8L1036.8,734.8z M1037.1,733.1l-0.2-0.3l0.6-0.3l-0.2-0.4
		l-1.1,0.6l1,2l1.1-0.6l-0.2-0.4l-0.7,0.3l-0.2-0.4l0.6-0.3l-0.2-0.4L1037.1,733.1z M1038.7,732.4l-0.1,0.1l-0.2-0.5
		c0,0,0.1-0.1,0.1-0.1c0.1-0.1,0.3,0,0.3,0.1c0,0,0,0,0,0C1038.9,732.2,1038.8,732.3,1038.7,732.4
		C1038.7,732.4,1038.7,732.4,1038.7,732.4 M1039.2,731.8c-0.1-0.2-0.2-0.3-0.4-0.3c-0.2,0-0.5,0-0.6,0.1c-0.2,0.1-0.4,0.2-0.5,0.3
		l1,1.9l0.4-0.2l-0.4-0.7l0.1,0c0.1-0.1,0.2-0.1,0.4,0.2c0.1,0.1,0.2,0.3,0.4,0.4l0.5-0.2c-0.1-0.1-0.3-0.3-0.4-0.5
		c-0.1-0.1-0.2-0.2-0.4-0.2l0,0C1039.3,732.2,1039.3,732,1039.2,731.8 M1040.7,732.8l-1-2l-0.5,0.2l1,2L1040.7,732.8z M1041.9,732.2
		l-0.7-1.6l0.4-0.2l-0.2-0.5l-1.3,0.6l0.2,0.5l0.4-0.2l0.7,1.6L1041.9,732.2z M1042.9,730.8l-0.3,0.1l0-0.4c0-0.1,0-0.3-0.1-0.4h0
		c0.1,0.1,0.2,0.3,0.2,0.4L1042.9,730.8z M1043.9,731.5l-1.2-1.9l-0.6,0.2l0.2,2.3l0.5-0.2l-0.1-0.5l0.5-0.2l0.3,0.5L1043.9,731.5z
		 M1044.9,731.3c0.2,0,0.4-0.1,0.6-0.2l-0.2-1.2l-0.7,0.1l0.1,0.5l0.2,0l0.1,0.4c0,0-0.1,0-0.2,0c-0.3,0.1-0.6-0.1-0.6-0.6
		c-0.1-0.3,0.1-0.6,0.3-0.7c0,0,0.1,0,0.1,0c0.2,0,0.3,0,0.5,0l0-0.5c-0.2,0-0.4-0.1-0.6,0c-0.6,0.1-1,0.6-0.9,1.2
		c0,0.1,0,0.1,0,0.1c0,0.3,0.2,0.6,0.4,0.7C1044.3,731.3,1044.6,731.3,1044.9,731.3 M1045.8,731.1l1.3,0l0-0.5l-0.8,0l0-0.4l0.7,0
		l0-0.5l-0.7,0l0-0.4l0.7,0l0-0.5l-1.2,0L1045.8,731.1z M1062.7,729.8c0,0.1-0.1,0.2-0.3,0.2l-0.1,0l0.1-0.4c0.1,0,0.1,0,0.2,0
		C1062.6,729.6,1062.7,729.7,1062.7,729.8 M1062.2,730.4l0.1,0c0.2,0,0.3,0.1,0.3,0.3c0,0.1-0.1,0.3-0.3,0.2c0,0,0,0,0,0
		c0,0-0.1,0-0.1,0L1062.2,730.4z M1063.2,729.8c0-0.2,0-0.4-0.2-0.5c-0.2-0.1-0.4-0.2-0.6-0.2c-0.2,0-0.4,0-0.6,0l-0.3,2.2
		c0.2,0.1,0.3,0.1,0.5,0.1c0.3,0.1,0.6,0,0.8-0.1c0.2-0.1,0.3-0.3,0.3-0.5c0-0.2-0.1-0.5-0.3-0.6v0
		C1063,730.1,1063.2,730,1063.2,729.8 M1064.7,730.8c-0.1,0.4-0.3,0.6-0.5,0.6h0c-0.2-0.1-0.3-0.4-0.2-0.8s0.3-0.6,0.6-0.6
		S1064.8,730.4,1064.7,730.8 M1065.2,730.9c0.2-0.5,0-1.1-0.5-1.3c0,0,0,0-0.1,0c-0.6-0.1-1,0.3-1.2,0.9c-0.2,0.5,0,1.1,0.5,1.3
		c0,0,0,0,0.1,0l0,0C1064.6,731.9,1065,731.6,1065.2,730.9 M1066.4,732l-0.7-0.3l0.6-1.6l-0.5-0.2l-0.8,2.1l1.2,0.4L1066.4,732z
		 M1068.1,732.1c-0.2,0.5-0.5,0.6-0.8,0.4c0,0-0.1,0-0.1,0l0.5-1.2c0.1,0,0.1,0,0.1,0.1C1068.1,731.4,1068.3,731.7,1068.1,732.1
		 M1068.6,732.3c0.2-0.3,0.2-0.6,0-0.9c-0.1-0.2-0.4-0.4-0.6-0.5c-0.2-0.1-0.4-0.2-0.6-0.2l-0.9,2c0.1,0.1,0.3,0.2,0.4,0.2
		c0.3,0.2,0.6,0.2,0.9,0.1C1068.2,732.8,1068.5,732.6,1068.6,732.3 M1070.9,733.4c-0.2,0.5-0.5,0.5-0.8,0.4c0,0-0.1,0-0.1-0.1
		l0.6-1.2c0.1,0,0.1,0,0.1,0.1C1071,732.7,1071.1,733,1070.9,733.4 M1071.4,733.6c0.2-0.3,0.2-0.6,0.1-0.9c-0.1-0.2-0.3-0.4-0.6-0.5
		c-0.2-0.1-0.4-0.2-0.6-0.2l-0.9,2c0.1,0.1,0.3,0.2,0.4,0.3c0.3,0.2,0.6,0.2,0.9,0.1C1071,734.1,1071.3,733.9,1071.4,733.6
		 M1073,733.8l0.2-0.4l-1.1-0.5l-1,2l1.1,0.6l0.2-0.4l-0.7-0.3l0.2-0.4l0.6,0.3l0.2-0.4l-0.6-0.3l0.2-0.3L1073,733.8z M1074.4,734.5
		l0.3-0.4c-0.1-0.1-0.2-0.2-0.4-0.3c-0.3-0.2-0.8-0.1-1,0.2c0,0,0,0,0,0.1c-0.1,0.3-0.1,0.6,0.2,0.8c0.2,0.2,0.2,0.3,0.2,0.4
		s-0.2,0.1-0.3,0.1c-0.2-0.1-0.3-0.2-0.4-0.3l-0.3,0.4c0.1,0.2,0.3,0.3,0.4,0.4c0.3,0.2,0.8,0.1,1-0.2c0,0,0-0.1,0.1-0.1
		c0.1-0.3,0.1-0.6-0.1-0.8c-0.2-0.2-0.2-0.3-0.2-0.4s0.1-0.1,0.3,0C1074.2,734.3,1074.3,734.4,1074.4,734.5 M1076.1,735.3l0.2-0.5
		l-1.3-0.6l-0.2,0.5l0.4,0.2l-0.7,1.6l0.5,0.2l0.7-1.6L1076.1,735.3z M1076.2,737.2l0.9-2l-0.5-0.2l-0.9,2L1076.2,737.2z
		 M1078.2,738l0.8-2.1l-0.4-0.2l-0.2,0.5c-0.1,0.3-0.2,0.6-0.3,0.9h0c0-0.3,0-0.6,0-0.8l0-0.7l-0.6-0.2l-0.8,2.1l0.4,0.2l0.2-0.5
		c0.1-0.3,0.3-0.6,0.4-0.9h0c0,0.3,0,0.6,0,0.9l0,0.8L1078.2,738z M1080,737.7l1-1l-0.5-0.2l-0.3,0.4c-0.1,0.1-0.2,0.2-0.2,0.4h0
		c0-0.2,0-0.3,0-0.4l0-0.5l-0.6-0.2l0.2,1.4l-0.3,0.9l0.5,0.2L1080,737.7z M1085.6,732.8c-0.3,1.8-0.5,3.6-0.6,5.4
		c0,0.1,0.3,2.2-1.7,2.3c-2.4,1.1-20.2-7.5-21.1-7.7c-0.5-0.2-1.1-0.3-1.7-0.3c-0.6,0-1.3,0.2-1.8,0.6c-0.2,0.2-0.4,0.4-0.6,0.6
		c-0.3,0.3-0.3,0.8-0.1,1.1c0.2,0.3,0.7,0.5,1,0.4c0.4,0,0.8-0.2,1.2-0.5c0.2-0.2,0.4-0.4,0.4-0.7c0,0-1.4,0.6-1.6,0.1
		c-0.1-0.3,0.3-0.6,0.6-0.7c0.5-0.2,1-0.3,1.5-0.2c0.5,0,0.5,0.3,0.6,0.3c0.3,1.4,0.5,2.9,0.5,4.3c0,0.7-0.2,2.7-2.8,1.4
		c-3.5-1.7-7.5-1.7-11-0.1c-2.1,1-4-0.1-3.3-3.1s0.6-2.3,0.7-2.7s0.3-0.3,0.3-0.3c0.6,0.1,1.1,0.3,1.7,0.5c2,1.3,0,1.1-1.2,0.4
		c-0.1,0.4,0.4,0.7,0.6,0.9c0.5,0.3,1,0.5,1.6,0.4c0.3,0,0.6-0.2,0.8-0.6c0.1-0.4-0.1-0.7-0.3-0.9c-0.8-0.9-1.8-1.4-3-1.4
		c-1.4-0.1-2.2,0.6-4.2,1.8s-9.2,5.5-16.4,5.8c-3.5,0.1-3.4-1.2-3.4-1.4c0.2-0.7,0.3-1.4,0.2-2.1c0-1.2-1.3-4.7-1-5.2
		c0.3-0.5,1.1-0.8,1.7-1c0.3-0.1,0.6-0.2,0.9-0.3v0.4c-0.9,0.4-1.5,1.1-1.7,2c-0.1,0.5-0.1,1,0.1,1.5c0.7,2.3,3.7,1.5,4.6,1.2
		s10.6-4.8,11.3-5.2c1.8-1.1,3.7-2,5.8-2.4c2.3-0.4,4.7,0.2,6.5,1.7c0.1,0.1,0.2,0.2,0.1,0.3c-0.5,1.4,0.3,3.6-0.1,5
		c-0.1,0.4-0.4,0.8-0.8,1.1c-0.8,0.6-0.7,0.4-1.7,0.4c-0.6-0.1-1.2,0-1.7,0.2c-0.5,0.2-0.9,0.7-0.9,1.3c-0.1,0.5,0.1,0.9,0.4,1.3
		c0.2,0.2,0.5,0.3,0.8,0.3c0.5,0.1,1-0.1,1.4-0.5c0.1-0.1,0.2-0.2,0.2-0.3c0,0-2,0.4-1.3-1c0.2-0.4,0.6-0.4,1.4-0.4
		c1,0,1.9-0.5,2.4-1.4c0.5,0.4,2.5,2,2.8,2.2c0.1,0.1,2.7-2.2,2.7-2.3c0.3,0.5,0.7,0.8,1.2,1c0.7,0.3,3,0.2,3.1,1.6
		c-0.1,0.7-1.3,0-1.4,0.2c-0.1,0.1,0.4,0.7,0.8,0.8c0.5,0.1,1,0,1.3-0.4c0.3-0.4,0.4-0.9,0.3-1.3c-0.1-0.7-0.6-1-1.2-1.1
		c-0.4-0.1-0.8-0.2-1.3-0.2c-0.4,0-0.7-0.1-1-0.1c-0.3,0-0.6-0.2-0.8-0.5c-0.3-0.4-0.5-0.9-0.6-1.4c-0.4-1.2,0.3-3.2-0.1-4.3
		c0-0.1-0.1-0.4,0-0.5c1.7-1,3.7-1.5,5.7-1.5c1.2,0,2.4,0.3,3.5,0.7c0.7,0.4,9.3,4.7,9.8,4.9s1.2,0.6,1.7,0.8
		c6.2,2.1,7.1,0.1,7.2-0.1c0.3-0.3,0.4-0.8,0.4-1.2c0-0.2,0-0.3,0-0.5c0-0.4-0.2-0.7-0.4-1c-0.3-0.4-0.7-0.7-1.1-0.8
		c-0.2-0.1-0.5-0.1-0.7-0.1c-0.4,0-0.7,0-1.1,0v-0.3c0.3,0,0.6-0.1,0.9-0.1c0.6,0,1.2,0.2,1.7,0.4c0.6,0.2,1,0.7,1.2,1.3
		C1085.6,731.9,1085.6,732.4,1085.6,732.8 M1083,732.2c-0.3-0.2-0.7-0.3-1-0.6c-0.1,0-0.1-0.1-0.2-0.1c-0.1-0.1-0.2-0.2-0.1-0.4
		c0,0,0.1-0.1,0.1-0.1c0.2-0.2,0.4-0.2,0.6-0.2c0.8,0.1,1.5,0.6,1.7,1.4c0.1,0.5-0.1,1-0.5,1.2c-0.3,0.1-0.6,0.2-0.9,0.3
		c-0.3,0.1-0.6,0.1-0.8,0.2c0,0-0.1,0-0.1,0c0,0,0.1-0.1,0.2-0.2c0.3-0.3,0.5-0.5,0.8-0.9c0.1-0.1,0.2-0.3,0.2-0.4
		C1083,732.4,1083,732.3,1083,732.2 M1081.8,732.2c0.5,0.2-0.5,1.2-0.9,1.6c-0.1,0.2-0.2,0.2-0.4,0.1c-0.1-0.1-0.2-0.2-0.2-0.4
		c-0.1-0.1-0.1-0.3-0.1-0.4c0,0-0.1-0.1-0.1-0.1c0,0-0.1,0.1-0.1,0.1c0,0.1,0,0.2,0.1,0.3c0,0.1,0.1,0.2,0.1,0.3
		c-0.1,0-0.2,0-0.3-0.1c-0.1,0-0.1-0.1-0.1-0.2c0-0.1,0-0.2,0-0.3c0-0.7,0-1.3,0-2c0-0.8,0.1-1.6,0.1-2.3c0-0.1,0-0.2,0-0.4
		c0.1,0.1,0.1,0.3,0.2,0.4c0.1,0.1,0.1,0.3,0.1,0.4c0,0.1,0.1,0.1,0.1,0.1c0-0.1,0.1-0.1,0.1-0.2c0-0.2-0.1-0.4-0.1-0.6
		c-0.2-0.4-0.2-0.8-0.2-1.3c0-0.2,0-0.4-0.2-0.5c-0.1,0-0.1-0.1-0.2-0.1l-0.1,0c0.1,0.1,0.1,0.2,0.1,0.3c0,0.2,0,0.5,0.1,0.7l-0.1,0
		c-0.1-0.1-0.2-0.1-0.3-0.2c0,0-0.1-0.1-0.1-0.2c0-1.3,0-2.6,0-3.9c0-0.5,0-1,0-1.5c0-0.1,0-0.1,0-0.2l0.1,0
		c0.1,0.1,0.2,0.1,0.2,0.2c0,0.2,0,0.4,0,0.6c0,0.1,0,0.2,0,0.3c0,0.5,0,0.9,0,1.4c0,0.1,0,0.2,0.1,0.2c0.3-0.9,0.4-1.9,0.3-2.8
		c0.1,0,0.2,0,0.2,0c0.2,0,0.4,0,0.5-0.3c0,0.5-0.1,0.9-0.2,1.4c-0.2,0.8-0.2,1.6,0.1,2.4c0,0.1,0,0.1,0,0.2
		c-0.2-0.2-0.3-0.4-0.4-0.7c0-0.1,0-0.2,0-0.2c0-0.1,0-0.1-0.1-0.2c-0.1,0.1-0.2,0.1-0.2,0.2c0,0.4,0,0.8,0,1.2
		c0.1,0.8,0.3,1.5,0.6,2.3c0.2,0.6,0.3,1.3,0.3,1.9c0,0.2,0,0.3,0,0.5C1081.1,731.1,1081.3,732.1,1081.8,732.2 M1081.2,720.5
		c-0.1-0.3-0.3-0.6-0.4-0.9l0.4,0.2c-0.1-0.6-0.3-1.3-0.4-1.9c-0.1-0.6-0.3-1.1-0.4-1.7c0,0,0-0.1,0-0.1c0.2-0.2,0-0.5,0.1-0.8
		c0-0.1,0.1-0.1,0.1-0.2c-0.1-0.3,0.1-0.3,0.3-0.4c0.2-0.1,0.4-0.3,0.6-0.4c0.1-0.1,0.2-0.1,0.3-0.2s0.2-0.1,0.3-0.2
		c0.2-0.2,0.4-0.3,0.7-0.4l0.2,0c0.4,0.5,0.5,1.1,0.2,1.6c-0.2,0.7-0.3,1.5-0.2,2.2c0,0.3,0.1,0.5,0.2,0.8c0,0.1,0,0.2,0,0.3
		c-0.1-0.2-0.2-0.4-0.3-0.5c0,0,0,0.1,0,0.1c0.2,0.5,0.1,1.1-0.1,1.6c0,0.1-0.1,0.3-0.1,0.4c0,0.1,0,0.1-0.1,0.2
		c-0.2-0.8-0.3-1.6-0.3-2.4c-0.1,0.1-0.1,0.1-0.1,0.2c0,0.2,0,0.5,0,0.7c0,0.4,0.1,0.8,0.1,1.2c0,0.3-0.1,0.7-0.2,1
		c0,0.1-0.1,0.2-0.1,0.4c-0.1,0.2-0.2,0.3-0.3,0.5c0-0.2,0.1-0.4,0.1-0.6c0-0.3,0-0.6,0-0.9c0,0,0-0.1-0.1-0.1l-0.1,0
		c0,0.1-0.1,0.3-0.1,0.4c0,0.3-0.1,0.6-0.3,0.9C1081.2,721.2,1081.2,720.9,1081.2,720.5 M1082.9,712.2c-0.1,0.3-0.2,0.5-0.4,0.8
		c-0.2,0.2-0.7,0.2-0.9,0c-0.3-0.2-0.5-0.6-0.5-1c0-0.5-0.1-1-0.1-1.4c0-0.2,0-0.4,0-0.5l0.4-0.3l0.2-0.1c0,0,0,0,0,0.1
		c0.1,0,0.2,0,0.2,0c0.1,0,0.1-0.2,0-0.3c0.2-0.2,0.5-0.3,0.6-0.4c0.1,0.4,0.3,0.9,0.4,1.3C1082.9,711,1083,711.6,1082.9,712.2
		 M1081.8,708.8c-0.1,0-0.1-0.1-0.2-0.2c0-0.1,0.4-0.3,0.5-0.1C1082.2,708.6,1082,708.8,1081.8,708.8 M1082,707.7l-0.4,0.3
		c-0.1,0.1-0.4,0.3-0.7,0.6c0,0,0-0.1,0-0.1c0-0.3-0.1-0.7-0.1-1c-0.1-0.5-0.3-1-0.5-1.4c-0.1-0.3-0.2-0.5-0.3-0.8
		c0,0,0-0.1-0.1-0.1l0.2-0.2c0.3,0.3,0.7,0.7,1,1c0.1,0.1,0.1,0.1,0.1,0.2C1081.5,706.6,1081.7,707.1,1082,707.7 M1079.8,706.1
		c0.2,0.5,0.3,0.9,0.5,1.4c0,0.2,0.1,0.3,0.1,0.5c0,0.3,0,0.5,0.1,0.8c-0.3,0.2-0.6,0.4-0.9,0.6c0-0.2-0.1-0.3-0.1-0.5
		c-0.2-0.6-0.3-1.2-0.2-1.9c0-0.5,0.1-1,0.3-1.4c0-0.1,0.1-0.2,0.2-0.3C1079.7,705.6,1079.7,705.9,1079.8,706.1 M1079.7,704.5
		c-0.1,0.2-0.4,0.5-0.4,0.5l-0.3-0.1l-1.6-0.2c0.1-0.6,0.1-1.1,0.1-1.3C1078,703.7,1079.5,704.4,1079.7,704.5 M1077.3,703.5l-0.1,0
		l0.1,0.1c0.1,0.1,0.1,0.1,0.1,0.2s-0.1,0-0.1,0l-0.2-0.2l-0.3,0.1c0,0-0.1,0.1-0.1,0s0-0.1,0.1-0.2l0.1,0l-0.1-0.1
		c0,0-0.1-0.1-0.1-0.2s0.2,0,0.2,0l0.2,0.1l0.2-0.1c0,0,0.1,0,0.2,0S1077.4,703.5,1077.3,703.5 M1076.7,704.3l0.2,0.1l0.2-0.1
		c0,0,0.1-0.1,0.2,0s-0.1,0.1-0.1,0.1l-0.1,0l0.1,0.1c0.1,0.1,0.1,0.1,0.1,0.2s-0.1,0-0.1,0l-0.2-0.1l-0.2,0.1c0,0-0.1,0.1-0.1,0
		s0-0.1,0.1-0.2l0.1,0l-0.1-0.1c0,0-0.1-0.1-0.1-0.2S1076.7,704.3,1076.7,704.3 M1076.6,705.2l0.2,0.2l0.2-0.1c0,0,0.1,0,0.2,0
		s-0.1,0.1-0.1,0.1l-0.1,0l0.1,0.1c0.1,0.1,0.1,0.1,0.1,0.2s-0.1,0-0.1,0l-0.2-0.2l-0.3,0.1c0,0-0.1,0.1-0.1,0s0-0.1,0.1-0.2l0.1,0
		l-0.1-0.1c0,0-0.1-0.1-0.1-0.2S1076.6,705.2,1076.6,705.2 M1076.4,703.5c-0.2,0.3-0.5,0.4-0.8,0.5c-0.3,0.1-0.6,0-1,0
		c0-0.2,0-0.3,0.2-0.3c0.4,0.1,0.8,0,1.2-0.2c0.2-0.1,0.4-0.2,0.5-0.2C1076.4,703.3,1076.4,703.4,1076.4,703.5 M1076.4,702.8
		c-0.4,0.3-0.9,0.5-1.4,0.5c-0.2,0-0.5-0.1-0.7-0.1c-0.3-0.1-0.7-0.1-1-0.1c0,0,0-0.1,0-0.1c0.1,0,0.2-0.1,0.3-0.2
		c-0.2-0.1-0.4,0-0.5-0.4c0.2,0,0.4,0,0.5,0.1c0.1,0,0.2,0,0.2-0.2c0-0.1-0.1-0.2-0.2-0.2c-0.1,0-0.1-0.1-0.2-0.1
		c0.1-0.1,0.2-0.2,0.2-0.3s-0.1-0.2-0.2-0.2c-0.2-0.1-0.5-0.2-0.7-0.3c0.2-0.5,1-2,1.2-2.5c0.2,0.1,0.2,1,0.5,1.3
		c0.4,0.2,0.7,0.4,1.1,0.6c0.1,0,0,0.6,0,0.6c0,0.3-0.2,0.5,0.5,1.4C1076.1,702.6,1076.4,702.7,1076.4,702.8 M1073.7,703.9
		c0.1-0.1,0.2,0,0.2,0l0.2,0.2l0.2,0c0,0,0.1,0,0.2,0.1s-0.1,0.1-0.1,0.1l-0.1,0l0.1,0.1c0.1,0.1,0.1,0.1,0,0.2s-0.1,0-0.1,0
		l-0.2-0.2l-0.3,0c0,0-0.1,0-0.1,0s0-0.1,0.1-0.1l0.1,0l-0.1-0.1C1073.7,704.1,1073.6,704,1073.7,703.9 M1073.6,705.1l0.2-0.1
		c0,0,0.1,0,0.2,0s-0.1,0.1-0.1,0.1l-0.1,0l0.1,0.1c0.1,0.1,0.1,0.1,0.1,0.2s-0.1,0-0.1,0l-0.2-0.2l-0.3,0.1c0,0-0.1,0.1-0.1,0
		s0-0.1,0.1-0.2l0.1,0l-0.1-0.1c0,0-0.1-0.1-0.1-0.2s0.2,0,0.2,0L1073.6,705.1 M1073.3,704c-0.1,0.3-0.3,0.5-0.4,0.8
		c-0.1,0-0.2,0-0.3,0C1072.8,704.3,1072.9,704.6,1073.3,704L1073.3,704 M1072.7,705.1c0.1,0,0.1,0,0.2-0.1c-0.1,0.3-0.1,0.5-0.2,0.8
		c0,0.2-0.1,0.5-0.1,0.7c0,0,0,0,0,0C1072.6,706.4,1072.6,705.1,1072.7,705.1 M1072.6,707c-0.1,0.5,0,0.6,0.4,0.7l0,0c0,0,0,0,0,0.1
		c-0.1,0-0.1,0-0.2,0c-0.1,0.1-0.1,0.2,0,0.3c0,0,0.1,0.1,0.1,0.1c0.1,0,0.2,0,0.2-0.1c0.2,0.7,0.6,2.4,0.8,3c0,0-0.1,0-0.3-0.1
		c0.1-0.1,0-0.3-0.1-0.4c-0.1,0-0.2,0.2-0.2,0.3c-0.1,0-0.2,0-0.3-0.1v0c0-0.1-0.1-0.2-0.2-0.3c0,0-0.1,0-0.1,0
		c-0.1,0-0.1,0.1-0.1,0.2c-0.1,0-0.1,0-0.2,0c-0.1-0.4-0.2-0.9-0.3-1.3c0,0,0-0.1,0-0.1c-0.1-0.3-0.2-0.3-0.4-0.2
		c0-0.3,0.1-1.5,0.1-1.6c0-0.2,0-0.4,0-0.6c0-0.1-0.1-0.2-0.1-0.2c-0.1,0-0.1,0.1-0.2,0.2c-0.2,0.4-0.3,0.8-0.2,1.2c0,0.5,0,1,0,1.5
		c0,0.1,0.1,0.2,0.1,0.3c0.1,0,0.2-0.1,0.3-0.1c0,0,0,0,0,0c0.1,0.3,0.2,0.6,0.3,0.9c0,0.1,0,0.1,0,0.2c-0.2,0.3-0.5,0.6-0.9,0.6
		c-0.3,0-0.6,0-0.9,0c0.1-0.2,0.1-0.5,0.2-0.7c0.2-0.5,0.1-1.1-0.1-1.7c0-0.1,0-0.2,0-0.2c0.4-1.1,0.8-2.2,1.2-3.3
		c0.1-0.4,0.5-0.5,0.8-0.7c0,0,0,0,0.1,0c0,0,0,0,0.1,0c-0.1,0.3-0.1,0.6-0.2,0.9C1072.2,706.2,1072.3,706.6,1072.6,707
		C1072.5,707,1072.5,707,1072.6,707 M1070.2,711.9c0.4,0,0.4,0,0.5,0.4c0,0.6,0.1,1.2,0.1,1.9c0,0.5,0.1,1.1,0.1,1.6
		c0,0,0,0.1,0,0.1l-0.3,0.2c-0.1-0.3-0.1-0.5-0.2-0.8c-0.1-0.3-0.1-0.5,0-0.8c0.1-0.4,0.1-0.7,0-1.1c-0.1-0.4-0.1-0.9-0.2-1.3
		C1070.3,712.1,1070.2,712,1070.2,711.9 M1072.7,730.7c-0.1-0.1-0.1-0.1-0.1-0.2c0-0.2-0.1-0.2-0.3-0.2c-0.1,0-0.2,0-0.3-0.2
		c0-0.6-0.1-1.2-0.1-1.8c-0.1-0.8-0.1-1.6-0.2-2.4c0-0.4-0.1-0.7-0.1-1.1c0-0.7-0.1-1.3-0.1-2c0-0.4-0.1-0.8-0.1-1.3
		c0,0,0-0.1,0-0.1c0.1,0,0.2,0.1,0.3,0.1c0,0,0.1-0.1,0.2-0.2c0,0.1,0,0.1,0.1,0.2c0,0.6,0,1.2,0,1.8c0,0.4,0.1,0.8,0.1,1.2
		c0,0.4,0.1,0.9,0.1,1.3c0,1,0.3,2.1,0.3,3.1C1072.5,729.6,1072.6,730.1,1072.7,730.7 M1075.5,715c0,0,0-0.1,0-0.1
		c-0.1-0.2-0.2-0.3-0.2-0.5c0.1-0.1,0.2-0.1,0.3,0c0,0,0,0,0,0.1C1075.6,714.7,1075.5,714.8,1075.5,715 M1079.4,711.5l0.2,0.3
		l-0.6,0.1c0-0.1,0-0.2,0-0.3L1079.4,711.5 M1079.3,710.2c0-0.1,0.4-0.3,0.5-0.1c0,0.2-0.2,0.4-0.4,0.3
		C1079.4,710.4,1079.3,710.3,1079.3,710.2 M1078.2,710.3c0.1-0.7,0.3-1.4,0.4-2.1c0.1,0.5,0.2,1.1,0.3,1.6
		C1078.6,710,1078.4,710.1,1078.2,710.3 M1078.3,711.2c-0.1,0-0.1-0.1-0.2-0.2c0-0.1,0.4-0.3,0.5-0.1
		C1078.7,711,1078.5,711.2,1078.3,711.2 M1077.4,711.7c0,0.2-0.2,0.4-0.4,0.3c-0.1,0-0.1-0.1-0.2-0.2
		C1076.9,711.7,1077.3,711.5,1077.4,711.7 M1076.3,707.7L1076.3,707.7c0.7,0.1,0.6-0.2,0.9-1.6c0.1-0.4,0.1-0.8,0.2-1.1
		c0.1,0,0.3,0,0.4,0.1c0.5,0.1,0.8,0.1,1.4,0.2c-0.4,0.9-0.8,1.8-1,2.8c-0.2,0.8-0.3,1.6-0.5,2.4c0,0.1-0.1,0.2-0.1,0.3
		c0,0-0.1,0-0.1,0c0-0.1,0-0.2-0.1-0.2c-0.2,0-0.2,0.2-0.2,0.3c0,0,0,0,0,0l-1.2,0.2C1075.9,710.5,1076.1,709.1,1076.3,707.7
		 M1071.1,713.1L1071.1,713.1c0.1,0.4,0.2,0.8,0.3,1.2c0.1,0.3,0,0.6-0.1,0.8C1071.2,714.5,1071.1,713.8,1071.1,713.1 M1072.3,715.6
		c-0.1-0.1-0.1-0.1-0.2-0.2c0-0.1,0.4-0.3,0.5-0.1C1072.7,715.5,1072.5,715.7,1072.3,715.6 M1074.4,718.2c0,0.3,0,0.5,0,0.8
		c0,0.1,0,0.2-0.2,0.2c-0.6,0-1.1-0.1-1.7-0.3c-0.5-0.1-1-0.2-1.4-0.1c-0.3,0-0.5,0-0.8,0.1l0.9-2.1c0.3-0.2,0.5-0.4,0.6-0.4
		c0.1-0.1,0.3-0.1,0.4-0.2c0.1,0.1,0.2,0.2,0.2,0.1c0.1-0.1,0.4-0.3,0.6-0.4c0,0.1,0,0.2,0.1,0.2c0.2,0.2,0.3,0,0.4,0.1
		c0,0,0.1,0.2,0.2,0.3s0.3,0,0.4,0.1s0.2,0.2,0.3,0.2c0,0-0.1,0.2-0.1,0.2C1074.4,717.4,1074.4,717.8,1074.4,718.2 M1071.8,713.2
		c0.1,0.2,0.1,0.4,0,0.6c0,0.1-0.1,0.2-0.1,0.3c-0.2-0.8-0.3-1.5-0.5-2.2l0.2-0.1c0,0.1,0.1,0.1,0.1,0.2
		C1071.4,712.4,1071.5,712.8,1071.8,713.2 M1072.2,711.9c0,0.1,0,0.2,0.1,0.3c0.2,0.1,0.1,0.3,0,0.4s-0.1,0.3-0.2,0.5
		c-0.1-0.3-0.2-0.5-0.2-0.8c0-0.2,0-0.5,0-0.7c0-0.1,0.2-0.1,0.3-0.2C1072.2,711.6,1072.2,711.8,1072.2,711.9 M1072.6,713.4
		c-0.1,0.1,0,0.2-0.1,0.4c-0.1,0.2-0.2,0.5-0.1,0.8c-0.2,0.1-0.3,0.2-0.4,0.3C1072.2,714.3,1072.4,713.8,1072.6,713.4
		C1072.6,713.3,1072.6,713.4,1072.6,713.4 M1073.9,712.6c0,0.1,0,0.1,0,0.2c-0.1,0.2-0.1,0.4,0,0.6l-0.1,0.1c0-0.1-0.1-0.2-0.2-0.3
		c0.1,0.1,0.1,0.3,0,0.4l-0.3,0.2c0-0.1,0-0.3,0-0.4c0-0.1-0.1-0.3-0.2-0.3c0,0,0,0,0,0c0,0.1,0,0.2,0,0.2c0.1,0.2,0,0.4-0.1,0.6
		c0,0-0.1,0.1-0.1,0.1l-0.3,0.2c0-0.1,0-0.1,0-0.2c0.3-0.4,0.3-0.9,0.2-1.4c0,0,0-0.1,0-0.1c0,0,0,0,0-0.1L1073.9,712.6 M1075.4,709
		c-0.1-0.7-0.2-1.4-0.2-2c0.3-1,0.7-2,1.1-3c0,0.2,0,0.4-0.1,0.6c-0.2,1.1-0.7,2.1-0.7,2.5c0,0.2,0.1,0.4,0.3,0.4c0,0.1,0,0.2,0,0.2
		c-0.1,0.5-0.2,1-0.2,1.5c-0.1,0.6-0.2,1.1-0.3,1.7c0,0.1-0.1,0.1-0.1,0.1c-0.3,0-0.6,0-0.8,0c-0.1,0-0.1-0.1-0.2-0.1
		c-0.2-0.8-0.7-2.4-0.9-3.2c0.3,0,0.5-0.1,0.6-0.4c0.1-0.3,0.1-0.5,0.1-0.8c0.1,0.3,0.1,0.6,0.1,0.9c0,0.5-0.1,1-0.2,1.5L1075.4,709
		z M1081.1,713.3c0.2,0.1,0.4,0.2,0.6,0.4l-1.3,0.8c-0.2-0.8-0.7-1.6-1.3-2.1c0.1,0,0.1-0.1,0.2-0.1c0.3-0.1,0.5-0.2,0.8-0.3
		c0.1,0,0.2-0.2,0.2-0.3c0,0,0,0,0,0c-0.1-0.3-0.1-0.6-0.2-0.9c0,0,0,0,0-0.1l0.5-0.3l0.1,1.7c0,0.2,0,0.4,0,0.6
		c0,0.1,0,0.1,0.1,0.2C1080.8,713,1081,713.1,1081.1,713.3 M1080.6,709.6c-0.1,0-0.1-0.1-0.2-0.2c0-0.1,0.4-0.3,0.5-0.1
		C1081,709.4,1080.7,709.6,1080.6,709.6 M1077.9,732.5l-0.6-0.6l0.6-0.6C1078,731.7,1077.9,732.1,1077.9,732.5 M1077.3,723.3
		l0.7-0.8v1.5L1077.3,723.3z M1078.1,726.9l-0.8-0.6l0.8-0.8V726.9z M1078,729.7l-0.7-0.5l0.7-0.7C1078,728.8,1078,729.2,1078,729.7
		 M1078.2,719.1c0,0,0-0.1,0-0.1c0,0,0.1,0.1,0.1,0.1c0.2,0.7,0.3,1.3,0.5,2c0,0.2,0.1,0.4,0.1,0.6c0,0.1,0,0.1,0,0.2l-0.1,0
		c0-0.1-0.1-0.1-0.1-0.2c-0.1-0.2-0.1-0.5-0.2-0.7C1078.4,720.4,1078.3,719.7,1078.2,719.1 M1079.5,728.7c0,0.2,0,0.3,0,0.5
		c0,0.6,0,1.2,0,1.8c0,0.4,0,0.7,0,1.1c0,0.5,0,1-0.1,1.5l-0.8-0.2c0-0.6,0-1.3,0.1-1.9c0-0.2,0.1-0.4,0.1-0.5c0-0.3,0-0.6,0-0.9
		c0-0.3,0-0.5,0-0.8c0-0.5,0-1,0-1.5c0-0.3,0-0.5,0-1c-0.1-0.4-0.1-0.9-0.1-1.3c0-0.4,0-0.8,0-1.1v-2.3c0.1,0.1,0.2,0.2,0.3,0.2
		c0.1,0,0.2,0,0.3,0c0,0.5,0,1,0,1.5c0,0.3,0,0.6,0,0.9c0,0.7,0,1.5,0,2.2c0,0.1,0,0.3,0,0.4c-0.1,0-0.2,0-0.3,0.1
		c0,0.1,0,0.1,0,0.2c0.1,0,0.2,0.1,0.3,0.1c0,0,0,0.1,0,0.1c0,0.2,0,0.4,0.2,0.6C1079.4,728.3,1079.5,728.5,1079.5,728.7
		 M1079.2,721.8c-0.2-0.9-0.5-1.8-0.7-2.7l0.1,0c0.1,0.2,0.2,0.5,0.2,0.7c0.1,0.2,0.1,0.4,0.1,0.6c0.1,0.4,0.3,0.7,0.4,1.1
		C1079.5,721.7,1079.4,721.7,1079.2,721.8 M1079.5,719.7l-0.2-0.6l0.1,0C1079.4,719.3,1079.5,719.5,1079.5,719.7L1079.5,719.7
		 M1079.8,721.6L1079.8,721.6c-0.4-0.9-0.6-1.7-0.9-2.6c0.2,0.1,0.2,0.3,0.3,0.4c0.1,0.3,0.2,0.6,0.3,0.9c0.1,0.3,0.3,0.7,0.4,1
		C1079.8,721.5,1079.8,721.5,1079.8,721.6 M1080.2,721.4L1080.2,721.4c-0.3-0.4-0.4-0.9-0.6-1.3l0.1,0
		C1079.9,720.5,1080,720.9,1080.2,721.4 M1080.3,719.6c0.3,0.4,0.5,0.8,0.5,1.3C1080.6,720.5,1080.4,720.1,1080.3,719.6
		 M1080.7,721.2c0,0.1,0,0.1-0.1,0.2c-0.1,0-0.1-0.1-0.2-0.1c-0.2-0.3-0.3-0.7-0.4-1.1c0-0.1-0.1-0.2-0.1-0.3l0.1,0l0.2,0.4
		c0.1,0.2,0.3,0.5,0.4,0.7C1080.6,721.1,1080.7,721.1,1080.7,721.2 M1075.6,725.1c-0.2-0.6,0.3-2.8,0.1-3.4c0.3-0.2,0.6-0.3,0.9-0.4
		c0.3,0,0.6,0,0.9,0c0,0,0.1,0,0.1,0c0.2,0.1,0.3,0.2,0.4,0.2v0l-1.5,1.8l1.4,1.3l-1.4,1.6l1.5,1.2v0l-1.5,1.6l1.4,1.2l-1.4,1.7
		l1.3,1.2v0c-1.7-0.7-2.2-0.8-2.2-1.1c0-0.1,0.3-3.4,0.3-3.5C1076,727.4,1075.9,726.2,1075.6,725.1 M1076.1,714.5
		c-0.1,0.1-0.2,0.2-0.3,0.3C1075.8,714.5,1075.8,714.5,1076.1,714.5 M1075.5,714c0-0.1-0.1-0.2-0.2-0.2c-0.2,0-0.2,0.1-0.2,0.2
		c-0.1,0-0.2,0.1-0.3,0c0.1,0.3,0.2,0.4,0.3,0.6c0.1,0.1,0.1,0.2,0.2,0.4c0,0.2,0.1,0.3,0.1,0.5c0,0.1,0,0.1-0.1,0.2
		c-0.2,0.2-0.3,0.1-0.5,0.3c-0.1,0.1-0.2,0.3-0.4,0.2c-0.1-0.1-0.3-0.1-0.5-0.2s-0.2-0.3-0.3-0.3c-0.1-0.1-0.2-0.1-0.3-0.1
		c-0.1-0.1-0.1-0.3-0.2-0.4s-0.3,0-0.3-0.2c0-0.2,1.1-1.1,1.2-1.1c0.3-0.2,0.5-0.4,0.9-0.4l0.2,0c0.3,0,0.7-0.1,1-0.2
		c0.1,0,0.2,0,0.3-0.1c0.1,0,0.2-0.1,0.2-0.1h0c0.2-0.1,0.7-0.7,1.2-1c0.1-0.1,0.4-0.2,0.7-0.5c0,0.2,0,0.4,0,0.6
		c0,0.2,0.1,0.2,0.2,0.3c0.6,0.5,1,1.2,1.2,1.9c0,0.2,0,0.5-0.1,0.7c0,0-0.1,0.1-0.1,0.1c-0.2,0.1-0.3,0.3-0.3,0.5
		c0,0,0,0.1,0.1,0.1c0.1,0.2,0.4,0.4,0.3,0.7c0,0.3,0.1,0.7,0.1,1c0,0.3,0.3,0.8,0.3,1.1c0,0.1-0.1,0.1-0.2,0.1
		c-0.3,0-1.2-0.2-1.5-0.3c-0.2,0-0.4-0.1-0.7-0.1c-0.4,0-0.8,0-1.2,0c-0.1,0-1,0.5-1.2,0.5c-0.1-0.9,0.6-2.2,0.5-3.1
		c0.3-0.1,0.5-0.2,0.8-0.3c0.2-0.2,0.5-0.3,0.7-0.5c0,0.1-0.1,0.2-0.1,0.3c-0.3,0.5-0.2,1.2,0.3,1.5c0.3,0.2,0.5,0.5,0.9,0.5
		c0,0,0.1,0.1,0.1,0.1l0.3,0.2c0-0.1,0-0.3-0.1-0.4c-0.2-0.2-0.2-0.5-0.1-0.7c0.1-0.2,0.1-0.3,0.1-0.5c0.1-0.3,0-0.7-0.3-1l-0.1,0
		c0,0.1,0,0.1,0,0.2c0.1,0.3,0.1,0.6,0,0.9c-0.1,0.3-0.1,0.6-0.2,0.9c0,0,0,0.1,0,0.1c-0.4,0-0.5-0.3-0.4-0.6
		c0.1-0.3,0.2-0.7,0.2-1.1c0-0.2-0.1-0.4-0.3-0.4c0.2,0.6-0.3,1.1-0.3,1.6c-0.4-0.3-0.4-0.8-0.2-1.2c0.2-0.2,0.2-0.6,0.1-0.8
		c0,0,0-0.1-0.1-0.1c-0.2,0.2-0.3,0.3-0.4,0.4c-0.4,0.3-0.9,0.6-1.4,0.6c-0.1,0-0.2,0-0.2-0.1c-0.1-0.2-0.1-0.5,0-0.7
		c0.1,0.2,0.1,0.3,0.3,0.2c0.2-0.1,0.2-0.2,0.1-0.3c0,0,0-0.1,0-0.1c0-0.2,0.2-0.3,0.4-0.4c-0.1,0.2-0.1,0.3-0.2,0.4
		c0,0.1-0.1,0.2,0.1,0.3c0.1,0,0.2,0,0.3,0c0.1-0.1,0.1-0.2,0-0.3c0,0,0-0.1,0-0.1c0-0.3,0.2-0.5,0.4-0.6c0.1,0,0.2-0.1,0.3-0.2
		c0.2,0.1,0.4,0.1,0.5,0.2c0.1,0,0.1,0.1,0.2,0.2c0.1,0.2,0.4,0.3,0.5,0.1c0,0,0-0.1,0-0.1v0c0-0.2-0.2-0.3-0.4-0.3c0,0,0,0,0,0
		c-0.2,0-0.4-0.1-0.5-0.1c0,0-0.1,0-0.1-0.1c0.2-0.1,0.4-0.3,0.6-0.4c0.1,0,0.1,0,0.2,0c0,0,0,0,0,0c0,0,0.1,0,0.1,0
		c0.1,0,0.1,0,0.1-0.1c0,0,0,0,0,0c0,0,0,0,0,0c0-0.1,0-0.1,0-0.2c0,0,0,0,0-0.1c0,0-0.1,0-0.1,0c-0.1,0-0.1,0-0.2,0
		c-0.1,0-0.1,0.1-0.1,0.1c-0.1,0.1-0.2,0.1-0.3,0.2c-0.1,0.1-0.3,0.2-0.4,0.2c0-0.2,0-0.3,0.2-0.4c0.1-0.1,0.2-0.2,0.1-0.3
		c0,0,0,0,0,0c-0.1-0.1-0.2-0.1-0.2-0.1c0,0,0,0,0,0l0,0c0,0,0,0,0,0c-0.1,0.1-0.1,0.2-0.1,0.3c0.1,0.3,0,0.7-0.4,0.9
		c-0.1,0.1-0.2,0.1-0.3,0.2c-0.1,0-0.1-0.1-0.1-0.2c0,0,0-0.1,0.1-0.1c0-0.3-0.2-0.3-0.4-0.3c-0.1,0.1-0.1,0.2-0.1,0.3
		c0,0,0,0.1,0.1,0.1c0,0,0,0,0,0c0.1,0.1,0.2,0.1,0.3,0.2v0.1c-0.1,0-0.2,0.1-0.3,0.1c-0.1-0.1-0.2-0.2-0.2-0.3
		c0-0.2-0.1-0.3-0.2-0.3c-0.1,0-0.2,0.1-0.2,0.2c0,0.1,0.1,0.2,0.1,0.2c0.1,0.1,0.2,0.1,0.3,0.2
		C1075.7,714.4,1075.6,714.3,1075.5,714 M1074.3,724.9c-0.1-0.2-0.1-0.3-0.2-0.5c0,0,0.1-1.2,0.1-1.3c0.7-0.4,1-3.7,1.1,1.6
		c0,0.3,0.1,0.6,0.1,0.8c0,0.3,0.1,0.6,0.2,0.9c0,0.3,0,0.7-0.1,1c0,0.5,0,1.7,0,2.3c-0.2-0.5-0.3-1-0.5-1.4l0.2,3.2
		c-0.2-0.8-0.3-1.6-0.4-2.4l-0.2,1.4c0,0,0-0.1,0-0.1c0-1,0-2,0-2.9c0-0.4,0-0.8,0-1.2c0-0.3-0.1-0.7-0.3-0.9c0-0.1,0-0.1,0-0.2
		C1074.4,725.1,1074.3,725,1074.3,724.9 M1073.9,729.5c0.1,0.5,0.2,1.1,0.2,1.6c0,0.1,0,0.1,0,0.2c-0.1,0-0.1,0-0.2,0
		c-0.2-0.1-0.4-0.2-0.5-0.3c-0.1,0-0.2-0.2-0.2-0.3c0-0.4-0.1-0.7-0.1-1.1c-0.1-0.6-0.1-1.2-0.2-1.7c0-0.3-0.1-0.7-0.1-1.1
		c-0.1-0.6-0.1-1.2-0.2-1.8c0-0.4-0.1-0.8-0.1-1.1c-0.1-0.6-0.1-1.1-0.2-1.7c0-0.2,0-0.4,0-0.6c0.2,0,0.3,0,0.5,0
		c0.1,0,0.3-0.1,0.4-0.1c0.2,0.2,0.4,0.2,1.2,0.3c-0.2,0.3-0.3,0.7-0.6,1c-0.2,0.2-0.3,0.6-0.2,0.9c0,0.1,0,0.2,0,0.3
		c-0.1,0.3-0.3,0.5-0.4,0.8c-0.1,0.2-0.1,0.2,0.1,0.3l0.3-0.6c0.1,0.2,0.1,0.5,0.2,0.7c0,0.2-0.1,0.4-0.2,0.6l0.1,0l0.2-0.1
		c0.1,0.4,0.2,0.8,0.2,1.1c0,0.6,0,1.1-0.2,1.7C1073.9,728.8,1073.9,729.1,1073.9,729.5 M1070.4,723L1070.4,723
		c-0.1,0.1-0.2,0.2-0.2,0.3c-0.1,0.3-0.2,0.7-0.5,0.9c-0.1,0.1-0.1,0.1-0.1,0.2c-0.1,0.1-0.1,0.1-0.2,0.2l-0.1,0c0-0.2,0-0.3,0-0.5
		c0.1-0.3,0.2-0.7,0.5-0.9c0.2-0.2,0.4-0.5,0.5-0.7c0.1-0.2,0.2-0.3,0.2-0.5c0.1-0.4,0.1-0.4,0.5-0.3c0,0.4,0.1,0.7,0.1,1.1
		c0,0.7,0.1,1.4,0.1,2.1c0,0.5,0,0.9,0,1.4c0,0.5,0.1,1,0.1,1.5c0.1,0.3,0.1,0.6,0,0.9c-0.1,0.4,0,0.8-0.1,1.2
		c-0.2,0-0.3-0.1-0.3-0.3c-0.1-0.3-0.1-0.7,0-1c0.2-0.4,0.2-0.8,0.2-1.2c-0.2,0.7-0.5,1.4-0.7,2.1c-0.2-0.1-0.2-0.2-0.1-0.3
		c0.3-0.5,0.4-1,0.4-1.5c0-0.2,0-0.5,0-0.7c0-0.2,0.1-0.4,0.2-0.6c0.1-0.4,0.1-0.7,0.1-1.1c0-0.2-0.1-0.4-0.1-0.6c0-0.2,0-0.4,0-0.6
		c0,0,0,0,0.1-0.1l0,0c0-0.1,0-0.3,0-0.4c0,0-0.1,0-0.1,0c-0.1,0.3-0.4,0.5-0.3,0.9c0.1,0.3,0.2,0.5,0.2,0.8c0,0.2,0.1,0.4,0,0.6
		c0,0.6-0.3,1.1-0.7,1.5c0-0.2,0-0.4,0.1-0.6c0.1-0.4,0.1-0.8,0-1.2c-0.1-0.3-0.1-0.7,0-1c0.2-0.4,0.3-0.8,0.4-1.2
		C1070.4,723.1,1070.4,723,1070.4,723 M1069.7,727.9L1069.7,727.9L1069.7,727.9L1069.7,727.9 M1069.6,727.5L1069.6,727.5
		L1069.6,727.5L1069.6,727.5 M1069.6,727.3l-1.4,0.5c0.4-0.4,0.9-0.8,1.5-1.3c0,0.1,0,0.2,0,0.3
		C1069.6,727,1069.6,727.2,1069.6,727.3 M1070.2,714.1C1070.2,714.1,1070.2,714.1,1070.2,714.1c-0.1,0.4-0.1,0.7-0.2,1
		c0,0.2,0,0.4,0.1,0.5c0.1,0.3,0.1,0.5,0.2,0.8c-0.4,0.3-0.6,0.5-0.6,0.5c0,0.3,0.1,0.6,0.4,0.7c0,0,0.2-0.1,0.3-0.2
		c0,0,0,0.1-0.1,0.1c-0.2,0.5-0.3,0.9-0.5,1.4c-0.1,0.2-0.2,0.4-0.3,0.6c-0.1,0.2-0.1,0.5-0.1,0.7c0.3-0.3,0.5-0.6,0.9-0.7
		c0,0.1,0,0.2,0,0.3c-0.1,0.5-0.3,1-0.4,1.4c-0.1,0.2,0,0.3,0.2,0.3c-0.1,0.5-0.4,1-0.8,1.4c-0.2,0.2-0.3,0.4-0.4,0.7
		c-0.1,0.2-0.1,0.3-0.1,0.5c0,0.3,0,0.6,0,0.9c0,0,0,0.1,0,0.1c0,0.1,0.1,0.2,0.2,0.2c0.1,0,0.2-0.1,0.2-0.1
		c0.1-0.1,0.2-0.2,0.3-0.3c0.1,0.3,0.1,0.7,0.1,1c0,0.1,0,0.3,0,0.4l-1.7,0.9c0.2-0.3,0.5-0.6,0.7-0.9l-1,0.7c0.2-0.5,0.5-1,0.8-1.6
		l-1.4,1.5c0-0.9,0.1-1.8,0.3-2.7l-0.8,1.7c0-0.4,0.1-0.8,0.2-1.1l-0.7,1.5c0.2-0.7,0.4-1.5,0.5-2.2c0.1-0.9,0.2-1.7,0.2-2.6
		c0-2.5,0-4.9,0-7.4c0-0.2,0-0.3,0.2-0.4c0.1,0,0.1-0.1,0.2-0.2v0.7c0.4-0.1,0.8-0.4,1.1-0.8c0.2,0.2,0.4,0.3,0.4,0.6
		c0,0.1,0.1,0.1,0.1,0.2c0.1,0,0.2,0,0.3-0.1c0.4-0.3,0.5-0.8,0.4-1.3c-0.1-0.3-0.1-0.6-0.2-0.9l0.4,0.1l0.3-0.2
		C1069.9,712.6,1070.1,713.3,1070.2,714.1 M1069.7,710.6c0,0.3-0.2,0.6-0.4,0.9c0,0-0.1,0.1-0.2,0.1c-0.1,0-0.1-0.1-0.1-0.2
		c0-0.4,0-0.4-0.4-0.5c-0.4,0-0.7-0.1-1.1-0.3c0,0-0.1,0-0.2,0c0,0.1,0,0.2,0.1,0.3c0.2,0.1,0.4,0.2,0.6,0.2
		c0.6,0.1,0.6,0.2,0.7,0.8c0.1,0.3,0.1,0.5,0.1,0.8c0.1,0.3,0,0.6-0.1,0.8c-0.2-0.2-0.3-0.4-0.4-0.6c0-0.3,0-0.6,0-0.9
		c0-0.1,0.1-0.1,0.1-0.2c0-0.1,0-0.1,0-0.2c-0.1,0-0.2,0-0.2,0.1c-0.1,0.2-0.1,0.3-0.2,0.5c0,0.1,0,0.3,0,0.4c0,0.5-0.2,0.9-0.6,1.1
		c-0.1-0.3-0.1-0.7-0.2-1c0-0.4,0.1-0.7,0.3-1c0.1-0.1,0.1-0.2,0-0.3s-0.2,0-0.3,0.1c-0.3,0.4-0.4,0.8-0.4,1.3
		c0,0.1-0.1,0.2-0.2,0.3l-0.1,0v-3.7l-1.1-0.4l0.3-0.3l0,0c-0.2,0.1-0.4,0.1-0.7,0.2c-0.4,0.2-0.8,0.2-1.2,0.2
		c-0.1,0-0.3-0.1-0.3-0.2c0-0.1,0-0.3,0.1-0.4c0.3-0.2,0.6-0.3,0.9-0.2c0.4,0,0.7,0.1,1.1,0c0.3-0.1,0.5,0.1,0.8,0.2
		c0.2,0,0.3,0.1,0.4,0.3c0.1,0.1,0.2,0.1,0.4,0.1c0.5-0.1,0.9,0,1.3,0.2c0,0,0,0,0,0c0.2,0.3,0.4,0.2,0.6,0.1c0.2-0.1,0.4,0,0.5,0.2
		c0,0,0,0.1,0,0.1C1069.9,709.8,1069.8,710.2,1069.7,710.6 M1065.6,710c0.2,0,0.3,0.1,0.3,0.3c0,3.9,0,7.9,0,11.8
		c0,1.4-0.3,2.9-0.7,4.2c0,0,0,0,0,0.1l-0.7-0.2c0.1-0.6,0.3-1.3,0.4-1.9c0.1-0.7,0.2-1.4,0.2-2.1c0-3.8,0-7.5,0-11.3
		c0-0.2,0-0.2-0.2-0.3c-0.6-0.1-1.2-0.3-1.9-0.4c-0.7-0.1-2.8-0.3-3.3-0.3c-0.9-0.1-3-0.2-3-0.2c-0.9,0-2.7,0-2.7,0
		c0.1-0.2,0.3-0.5,0.4-0.7c0,0,0.1,0,0.2,0c1.1,0,2.2,0,3.3,0.1c0.8,0,3.9,0.2,4.6,0.3C1063.6,709.7,1064.6,709.9,1065.6,710
		 M1056.2,707.4c0.2,0,0.3,0.1,0.5,0.1c0.3,0.1,0.4,0.3,0.5,0.6c-0.7,0-1.3,0-2-0.1C1055.4,707.7,1055.8,707.5,1056.2,707.4
		 M1060.5,708.3c0,0-0.5,0-0.5,0c0-0.6-0.2-1.3-0.5-1.8c-0.2-0.2-0.4-0.3-0.7-0.3c-1,0.1-1.9,0.3-2.8,0.7c-0.9,0.5-1.7,1.2-2.2,2.1
		c-0.2,0.2-0.5,0.8-0.5,0.8c0-0.2-0.1-2.2-0.1-3c0-0.3,0-0.3,0.4-0.7c1.4-0.7,2.9-1.3,4.5-1.6c0.4,0,1.6,1.5,1.8,1.7
		c0.3,0.4,0.4,0.8,0.5,1.2C1060.5,707.8,1060.5,708.1,1060.5,708.3 M1058.5,702.9c0-0.2,0.1-0.4,0.1-0.6l0.2,0.2l-0.3,1
		C1058.6,703.3,1058.5,703.1,1058.5,702.9 M1058.7,701.8c0.1-0.1,1.3,1.1,2.1,1.6c0,0-2.2-2-2.1-2.1s2.5,1.6,2.5,1.6
		c-0.1-0.1-2.4-2-2.4-2.1s2.2,1.2,2.3,1.2c-0.4-0.3-0.8-0.6-1.2-0.9s-1-0.7-1-0.8c0-0.1,2,1.1,2,1c-0.7-0.4-1.3-0.9-1.9-1.5
		c0.7,0.4,1.5,0.8,2.3,1c0.4,0.1,0.9,0.1,1.3,0.1c-1.8-0.2-3.4-1.1-4.5-2.4c0.1-0.2,0.3-0.2,0.5-0.1c0,0,0,0,0.1,0.1
		c0.8,0.9,1.9,1.6,3.1,1.9c1,0.1,2-0.5,2.4-1.4c0.1-0.2,0-0.4-0.2-0.5c-0.6-0.3-1.3-0.6-1.4-1.4c0.4-0.1,0.8-0.2,1.2-0.2
		c0.6,0,1.2,0.2,1.6,0.6c0.1,0,0.1-0.1,0.1-0.2c0-0.1,0-0.2-0.1-0.2c-1.2-1.1-1.2-4.7-1-4.7c0.4,0,3.1,2.7,3.1,3.7
		c0,0.1,0,0.2,0,0.3c-0.1-0.3-0.3-0.7-0.5-1c-0.3-0.4-0.6-0.7-0.9-1c-0.1-0.1-0.3-0.2-0.4-0.1c0.4,0.4,0.8,0.8,1.1,1.3
		c0.2,0.5,0.5,0.9,0.7,1.4c0,0.1,0,0.1,0.1,0.2c0,0.1,0.1,0.2,0.1,0.2c0.1,0,0.1,0,0.2-0.1c0.1-0.1,0.2-0.2,0.3-0.3
		c0.4-0.5,1.7-1.3,2.5-0.9c0.1,0.1,0.2,0.2,0.2,0.3c0,0.7-0.2,3-2,2.4c-0.3-0.1-0.3-0.6-0.4-0.6c-0.1,0-0.1,0.2-0.2,0.3
		c0,0.3-0.1,0.6-0.2,0.9c-0.4,0.7-0.6,1.5-1.3,1.8c-1.5,0.6-3.2,0.8-4.8,0.5c-0.1,0-0.2,0.1-0.2,0.2c0,0.1,0,0.1,0.1,0.1
		c0.1,0.1,0.2,0.2,0.2,0.2c0.4,0.2,0.9,0.4,1.3,0.4c0.7,0.1,1.7,0.1,1.9,0.1c0.3,0,0.6,0,1,0.1c0.1,0,0.2,0.2,0.2,0.3
		c0,0,0,0.1-0.1,0.1c-0.3,0.4-0.8,0.7-1.3,0.9c1.2,0.2,2.4,0.3,3.6,0.3c-0.3,0.6-1.7,1-1.7,1s-0.7,0.2-0.8,0.2
		c-0.8,0.2-1.7,0.1-2.5-0.2c-0.2-0.1-0.5-0.2-0.7-0.4c-0.1,0-0.1-0.1-0.2-0.1c0,0.7-0.3,1.4-0.8,1.9c-0.2-0.2-0.4-0.3-0.5-0.5
		c-0.4-0.4-0.7-0.9-0.8-1.5c-0.1-0.4-0.1-0.8-0.1-1.1c0-0.1-0.3-0.4-0.4-0.4C1059.8,703,1059.2,702.4,1058.7,701.8 M1066.7,693.6
		c0.4-0.4,0.9-0.7,1.4-1c0,0-1.7,0.6-1.7,0.5c0.4-0.4,0.9-0.8,1.4-1.2c-0.6,0.3-1.1,0.6-1.7,0.9c0.6-0.8,1.3-1.5,2.1-2.2
		c0,0-2.3,1.8-2.3,1.7s1.5-2.5,1.5-2.5c0,0-0.8,1.1-1.2,1.5c-0.2,0.3-0.4,0.5-0.6,0.7c0,0,0.1-0.5,0.2-0.6c0.2-0.5,0.4-1.1,0.5-1.6
		c-0.3,0.7-0.7,1.4-1.1,2.1c-0.2,0,0.4-1.6,0.4-2.3c-0.1,0.2-0.4,1.3-0.5,1.6s-0.1,0.4-0.2,0.5c0,0.1,0.1-0.7,0.1-0.9
		c0-0.4,0-0.8-0.1-1.2c-0.1-0.2-0.2-0.5-0.4-0.7c-0.4,0.4-1.4,0.3-1.7,0.2c-0.2,0-0.2-0.1-0.2-0.2c0-0.5,0.2-1,0.6-1.4
		c-0.2-0.1-1-0.6-1.2-0.7c-0.4-0.4-0.7-0.9-0.8-1.4c0.6,0.2,1.2,0.2,1.8,0.1c0.4-0.1,0.8-0.1,1.1,0.1c0.2,0,0.2-0.1,0.2-0.3
		c0-0.2,0.1-0.4,0.1-0.6c0.1-0.2,0.3-0.3,0.5-0.5c0.1-0.1,0.2-0.3,0.4-0.4c0.2,0.3,0.4,0.6,0.6,0.8c0.3,0.4,0.3,1,0.1,1.5
		c-0.1,0.1,0,0.3,0,0.4c0.4,0.7,0.7,1.4,0.9,2.1c0.1,0.3,0.3,0.4,0.4,0.1c0.3-0.6,0.8-1,1.3-1.4c1.3-0.9,3-1.1,4.5-0.5
		c0.4,0.1,1.1,0.6,1.1,1c0,0-0.6,0.1-0.6,0.1c-0.7,0.1-1.4,0.3-2.1,0.5c-1,0.5-1.9,1.2-2.6,2c-0.1,0.2-0.5,0.7-0.1,0.9
		c0.2,0.1,0.4,0.1,0.6,0c0.6-0.3,1.3-0.3,1.9-0.1c0.3,0.1,0.6,0.1,0.9,0.2c0,0,0.1,0,0.1,0.1c-0.2,0.5-0.6,0.9-1.1,0.8
		c0.6,0.2,1.1,0.7,1.2,1.3c0,0.3,0.1,0.7,0.1,1c-0.5-0.3-1.1-0.4-1.7-0.5c-0.1,0-0.2-0.1-0.3-0.1c-0.1-0.1-0.2-0.2-0.4-0.1
		s0,0.2,0,0.3c0.1,0.2,0.1,0.4,0,0.5c-0.2,0.2-0.5,0.3-0.8,0.3c-0.6-0.1-0.8-0.5-0.7-1.1c0-0.5-0.2-0.8-0.7-0.8
		c-0.3,0-0.6,0.1-0.8,0.2L1066.7,693.6z M1073.5,688.4c0.2,0.1-0.3,0.5-0.5,0.7c0,0-0.6,0.5-0.8,0.7c-0.2,0.2-0.2,0.2-0.1,0.4
		c0.5,0.1,1.1-0.1,1.3-0.6l-1,0.3c0.4-0.5,0.9-0.9,1.4-1.1c0,0.4,0.1,1.8,0.1,2.2c0,0.3,0.1,0.6,0.3,0.8c0.1,0.2,0.3,0.2,0.4,0
		c0.1-0.3,0.3-0.6,0.4-1c0,0-0.3,0.4-0.5,0.6c0-0.4,0-0.7,0.1-1c0,0-0.1,0.4-0.3,0.8c0-0.2,0-1.5,0-1.7c0-0.3,0-0.5,0-0.9
		c0.6,0.5,1.2,0.9,1.7,1.3c-0.1,0.1-0.3,0.2-0.4,0.3c0.3,0.1,0.7,0,0.8-0.3c0,0,0,0,0-0.1c-0.2-0.2-1.1-0.8-1.3-0.9
		c-0.2-0.2-0.4-0.3-0.6-0.5c0.5,0.1,1,0.4,1.4,0.7c0.4,0.3,0.7,0.7,1.1,1c-0.3,0.2-0.4,0.3-0.6,0.5c-0.2,0.2-0.5,0.2-0.8,0.1
		c-0.1,0-0.2-0.1-0.3-0.1c0,0.1,0.1,0.3,0.1,0.4c0,0.3-0.1,0.6-0.4,0.9c-0.3,0.3-0.6,0.5-0.9,0.8c-0.2-0.3-0.4-0.7-0.6-1
		c-0.1-0.2-0.1-0.4-0.1-0.7c0-0.1,0.1-0.3,0.1-0.4c0-0.1,0-0.2-0.1-0.2c-0.1,0-0.2,0-0.2,0.1c-0.2,0.2-0.4,0.4-0.9,0.2
		c-0.2-0.1-0.6-0.2-0.5-0.3c0.1-0.4,0.4-0.8,0.7-1.1C1072.8,688.9,1073.2,688.7,1073.5,688.4 M1056.4,703.6c0.3,0.2,0.6,0.3,0.9,0.4
		c0.3,0.1,0.6,0.1,1,0.1c0.1,0,0.1,0,0.1,0.1c-0.1,0-0.1,0.1-0.2,0.1c-0.4,0-0.9-0.1-1.3-0.1c-0.2,0-0.3,0-0.5,0
		c-0.2,0-0.5,0-0.5-0.3S1056.3,703.6,1056.4,703.6 M1058.1,701.9c0,0.2,0,0.5-0.1,0.7c-0.1,0.4-0.1,0.9,0.1,1.2
		c-0.4-0.1-0.8-0.2-1.1-0.3c-0.4-0.1-0.7-0.3-0.9-0.7c0-0.1-0.2-0.1-0.2-0.1c0,0,0,0,0,0c0,0.1,0.1,0.3,0.1,0.4
		c-0.7,0.6-2.4,0.9-2.9,0.5c0.6-0.6,1.2-1.3,1.7-2c0.2-0.3,0.3-0.5,0.5-0.7c0.3-0.3,0.4-0.8,0.3-1.2c0-0.4-0.1-0.7-0.2-1.1
		c0-0.1-0.1-0.3,0-0.4s0.3,0,0.4,0.2c0.2,0.2,0.4,0.5,0.6,0.7c0.2,0.3,0.3,0.7,0.4,1.1c0.1,0.4,0,0.9-0.1,1.3c0,0.1-0.1,0.2-0.1,0.3
		c-0.4-0.4-0.7-0.9-0.8-1.4c-0.2,0.3-0.2,0.6-0.1,0.9c-0.5,0.3-0.9,0.7-1.2,1.2c-0.1,0.4-0.4,0.7-0.7,0.9c0,0-0.1,0.1-0.1,0.2
		c0.1,0,0.2,0,0.2,0c0.5-0.1,0.9-0.3,1.2-0.7c0.1-0.1,0.2-0.2,0.3-0.4c-0.3-0.1-0.5,0.3-0.8,0.3c0.1-0.1,0.2-0.3,0.3-0.4
		c0.2-0.3,0.5-0.5,0.9-0.7c0.1,0,0.1,0,0.2,0c0.2,0.1,0.3,0.3,0.5,0.4c0.1,0.1,0.3,0.1,0.4,0c0,0,0-0.1,0.1-0.1
		c0.1-0.3,0.1-0.5,0.2-0.8c0.1-0.4,0.1-0.8,0.1-1.2c0-0.9-0.5-1.4-0.6-1.8c0.2,0,0.8,0.6,1,1c0.2,0.5,0.3,1.4,0,1.6
		c0,0.1,0.1,0.2,0.1,0.2C1058,701.3,1058.1,701.6,1058.1,701.9 M1055.3,699.8h-0.6c0.1-0.2,0.2-0.3-0.1-0.5l0.6,0
		C1055.2,699.5,1055.3,699.7,1055.3,699.8 M1054.9,699.1c-0.6,0-2.1,0.1-2.1,0.1c-0.1,0.4-2.7,2.7-8.1,2.2c-0.2-0.3,0.1-0.9,0.5-1.2
		c0.5-0.3,1-0.6,1.6-0.8c0.1,0.3-0.8,0.7-1.1,0.9c-0.3,0.2-0.6,0.4-0.3,0.6c3.6,0.2,4.8-0.5,5.1-0.6c0.7-0.4,1.3-0.8,1.9-1.3
		c0,0,1.9-0.1,2.5-0.2C1055,698.8,1055,699.1,1054.9,699.1 M1054.8,698.4c-0.2,0-0.4,0-0.6,0c-0.6,0-1.2,0.1-1.9,0.1
		c-0.2,0-0.6,0.4-0.6,0.4c-0.3,0.2-0.7,0.5-1,0.7c-0.6,0.3-1.4,0.5-2.1,0.4c0.1-0.3,0.3-0.6,0.4-0.9c0.1-0.1,0.4-0.7,0.6-0.7
		c0.3,0,2.2-0.1,2.9-0.2c0.3,0,0.8,0,1.2,0c0.4,0,0.7,0,1.1,0C1054.9,698.2,1054.8,698.4,1054.8,698.4 M1048.7,698.6l-0.6,1.4
		l-0.3-0.1c-0.1-0.5,0.1-1,0.5-1.3C1048.4,698.6,1048.5,698.6,1048.7,698.6 M1044.6,701.9c0.5,0.1,1,0.1,1.5,0.1
		c-1.1,0.3-2.2,0.3-3.3,0c0.2-0.4,0.6-0.8,1-1c-0.1-0.1-0.2-0.2-0.2-0.2c-0.4-0.1-0.7-0.3-1-0.6c-0.4-0.3-0.6-0.8-0.6-1.2
		c0.6,0.8,1.5,1.3,2.5,1.3c-0.1,0.3-0.5,0.7-0.6,1C1043.9,701.7,1044.2,701.8,1044.6,701.9 M1042.1,698c-0.5,0.5-0.6,1.2-0.2,1.8
		c0.2,0.3,0.4,0.6,0.7,0.8c-0.6-0.3-1.1-0.7-1.6-1.1c0,0.3,1.3,1.4,1.4,1.5c-0.9-0.4-1.7-0.8-2.4-1.4c0.7,0.6,1.4,1.2,2.1,1.7
		c-1.2-0.3-2.3-0.8-3.3-1.5c0,0.3,3,1.8,3,1.8c0.2,0.2-1.4-0.1-2.2-0.5c-0.6-0.3-1.2-0.8-1.7-1.3c0.1,0.5,1.4,1.9,3.4,2.2
		c0.4,0,1.2,0.1,1.2,0.2c0.5,0.7,2.2,0.5,2.7,0.6l-0.3,0.4c0,0,0.6-0.4,0.6-0.3l-0.4,0.6c0.3-0.2,0.5-0.4,0.7-0.6
		c-0.1,0.4-0.3,0.8-0.5,1.2c0.1-0.1,0.1-0.1,0.2-0.2c0.3-0.3,0.5-0.6,0.8-0.9c0.1-0.1,0.2-0.2,0.4,0c0.4,0.3,1.7,1.6,2,1.9
		c0.4,0.5-1.6,1.6-1.6,1.6c-0.3-0.9-0.5-1.9-0.7-2.8c-0.2,0.6-0.4,1.2-0.6,1.8c-0.3,0.6-0.8,1-1.3,1.2c-0.4,0.1-0.8,0.2-1.2,0.4
		c-0.3-0.3-0.5-0.7-0.6-1.1c0-0.2,0-0.3,0.1-0.5c0-0.1,0-0.3-0.1-0.3s-0.2,0-0.3,0.2c-0.1,0.2-0.1,0.4-0.2,0.6
		c-0.6,0.1-1.5,0.3-2.2,0.3c-2.3,0.1-3.3-1.3-3.4-1.6c0.8,0.2,1.5,0.2,2.3,0.2c0.4,0,0.8-0.1,1.2-0.1c0.5-0.1-0.4-0.9-0.3-1.1
		c0-0.1,2,0.3,2.4,0.2c0.3,0,0.6-0.3,0.5-0.6c0,0,0,0,0,0c-0.1-0.6-1.4-0.6-1.9-0.7c-1.2-0.1-2.4-0.8-3.1-1.9
		c-0.3-0.5-1.6-3.4-1.9-4c0.7-0.1,1.4-0.1,2,0c0.2,0.1,0.4,0.2,0.6,0.4c0.1,0.1,0.2,0.1,0.4,0s0.1-0.2,0-0.3c-0.2-0.2-0.1-0.4,0-0.5
		c0.2-0.4,0.5-0.8,0.7-1.2c0.1-0.3,0.3-0.5,0.6-0.7c0,0.1-0.5,1.1-0.7,1.6c-0.1,0.2-0.1,0.4-0.1,0.6c0,0,1-2,1.1-2
		c-0.1,0.2-0.4,1.3-0.5,1.6c0.2-0.2,0.3-0.4,0.4-0.6c0.1-0.3,0.2-0.5,0.4-0.8c-0.1,0.4-0.2,0.8-0.3,1.2c-0.1,0.2,0.6-1,0.6-1
		c0,0.1-0.2,1-0.3,1.1c0,0,0.5-0.8,0.5-0.8c0,0.2,0,0.3,0,0.5l0.2-0.2c0.2,0.4,0,0.7-0.2,1l0.1,0.1c0.1-0.1,0.2-0.1,0.3-0.2
		c0.4-0.2,0.7-0.3,1.1-0.4c0.8,0,1.5,0.4,1.8,1.2c-0.3,0-0.7,0.1-1,0.1C1042.9,697.4,1042.5,697.6,1042.1,698 M1034.6,689.1
		c1.1,0.4,2.1,1.1,2.9,1.8c-0.3,0-2.5-0.4-2.8-0.4C1034.8,689.9,1035,689.5,1034.6,689.1 M1042.2,691.1c-0.1,1-0.2,2-0.1,3
		c0,0.4,0,0.8-0.3,1.1c-0.2-0.6-0.7-1.1-1.3-1.4c-0.9-0.4-2-0.4-3-0.1c0-0.1-0.1-0.3-0.1-0.4c0-0.1,0-0.1,0.1-0.2c0-0.1,0-0.1,0-0.2
		c-0.1,0-0.2,0-0.2,0c-0.1,0.1-0.2,0.2-0.2,0.4c0,0.2,0,0.5,0,0.7c-0.1,0.6-0.5,1-1,1.2c-0.1-0.2-0.3-0.4-0.4-0.5
		c-0.2-0.2-0.3-0.4-0.2-0.7c0-0.1,0-0.2,0-0.2c0-0.1-0.1-0.1-0.2-0.1c0,0-0.2,0.1-0.2,0.1c0,0.3-0.2,0.5-0.4,0.6
		c-0.4,0.2-1,0.2-1.4,0c-0.2-0.1-0.6-0.5-0.6-0.7c0-0.3,0.5-0.4,0.7-0.5c0.2-0.2,0.4-0.4,0.4-0.7c0-0.3-0.3-0.5-0.4-0.7
		c-0.2-0.4,0.2-0.8,0.5-1.1c0.8,0.3,1.6,0.5,2.5,0.6c0.5,0.1,1.5,0.4,1.8,0c0.2-0.3-0.4-0.7-0.5-0.8c-1.3-1-2.9-1.8-4.5-2.2
		c-1-0.2-2-0.2-3-0.1c1.5-1,3.4-1.4,5.2-1c0.8,0.1,1.5,0.5,2.2,1c0.7,0.4,1.3,0.9,2,1.3c0.4,0.2,0.7,0.3,0.8-0.2
		c0-0.4-0.2-0.9-0.2-1.2c0-0.4,0.4-0.5,0.3-0.9c-0.1-0.5-0.1-1,0.1-1.4c0-0.1,0.1-0.2,0.1-0.4c0.4,0,0.8,0,1.1,0
		c0.3,0,0.6,0.2,0.7,0.5c0,0.1-0.1,0.1-0.1,0.2c-0.1,0.2-0.2,0.3-0.3,0.5c-0.1,0.1,0,0.2,0.1,0.2c0.1,0,0.2-0.1,0.2-0.2
		c0.1-0.4,0.4-0.6,0.7-0.8c0.3-0.2,0.7-0.3,1.1-0.3c0.5,0.1,1,0.4,1.5,0.7c-0.1,0.1-0.2,0.3-0.3,0.4c-0.1,0.2-0.1,0.4-0.2,0.6
		c-0.1,0.2-0.2,0.4-0.3,0.6c-0.1,0.1-0.4,0.1-0.5,0c0,0-0.3-0.3-0.4-0.1s0,0.2,0.1,0.3c0.5,0.3,0.8,0.8,0.9,1.4
		c-0.7,0.5-1.7,0.5-2.3,0c-0.1-0.1-0.2-0.1-0.3,0c0,0,0,0,0,0c-0.1,0.1,0,0.2,0.1,0.3c0.1,0.1,0.2,0.2,0.3,0.2
		C1042.5,690.2,1042.3,690.7,1042.2,691.1 M1031.2,688.4c2-0.1,2.5,0.3,2.7,0.4c0.5,0.3,0.6,1.2,0.4,1.3c-0.1,0-0.1-0.1-0.1-0.2
		c-0.1-0.2-0.2-0.2-0.3,0s-0.1,0.4-0.3,0.5c-0.3,0.1-0.6,0-0.7-0.3c0,0,0,0,0,0c0-0.1-0.1-0.1-0.2-0.1c-0.1,0-0.1,0.1-0.1,0.1
		c0.2,1.1-1.3,2.5-1.4,2.6c-0.1-0.8,0.2-2.6-0.6-2.3c-0.3,0.1-2.6,2.2-1.6-0.8C1029.3,688.7,1030.6,688.4,1031.2,688.4 M1046.9,702
		c0.3,0,1.1,0,1.3,0c0.1,0,0.1,0.3,0.3,0.6s1,1.3,1.5,2.1s1.1,1.5,1.7,2.3c0.1,0.1,0.1,0.3,0,0.4c0,0,0,0,0,0
		c-0.1,0.1-0.2,0.3-0.3,0.4C1050.4,705.5,1048.9,703.5,1046.9,702 M1050,709.8c-0.5-1.1-0.6-2.3-0.1-3.4c0.2,0.4,0.4,0.6,0.6,1
		C1050.5,707.4,1050,709.8,1050,709.8 M1052.8,708c0,0.7,0.1,1.4,0.2,2c0.1,0.5,0.2,1,0.3,1.5c0,0.3,0,0.6,0,0.9
		c0,0.3-0.1,0.7-0.1,1c0,0.1,0,0.2,0,0.4c0,0.1,0,0.2-0.1,0.2c-0.1-0.1-0.1-0.1-0.2-0.2c-0.3-0.5-1.1-1.5-1.1-1.5
		c-0.1,0.4-0.2,0.8-0.3,1.1c0,0.1,0,0.1,0,0.2c0,0,0,0.2-0.1,0.2c0,0-0.1-0.2-0.1-0.2c-0.1-0.2-0.2-0.3-0.2-0.5
		c-0.2-0.4-0.4-0.8-0.5-1.3c0-0.2-0.1-0.4,0-0.5c0-0.5,0.1-1,0.1-1.5c0.1-0.6,0.1-1.1,0.2-1.7c0.4,0.6,0.7,1.3,0.8,2
		c0,0,0-0.7,0.1-1c0.2-0.5,0.3-1.1,0.6-1.6c0.1-0.2,0.2-0.5,0.3-0.7c0,0,0.2,0,0.2,0C1052.8,707.3,1052.8,707.7,1052.8,708
		 M1053.1,699.9c0.1-0.2,0.4-0.4,0.6-0.4c0.2,0,0.4,0,0.7,0v0.4L1053.1,699.9z M1054.6,701.6c0.1,0,0,0.3-0.2,0.3
		c-0.1,0-0.1-0.1-0.1-0.2C1054.3,701.5,1054.5,701.6,1054.6,701.6 M1053.9,701.2c-0.6,0-1.2,0-1.7,0h-0.4c0.3-0.3,0.6-0.5,0.9-0.8
		c0.1,0,0.2-0.1,0.4-0.1c0.6,0,1.1,0,1.7,0c0.2,0,0.4,0,0.6,0.1c0,0.4-0.3,0.7-0.7,0.7C1054.4,701.2,1054.1,701.2,1053.9,701.2
		 M1052.3,703.7c0.2,0.3,0.6,0.6,0.9,0.6c0.3,0,0.7,0,1,0c0.1,0,0.3,0,0.4,0c0.2,0,0.3,0.2,0.4,0.3c0,0,0,0.1-0.1,0.2
		c-0.8,0.4-1.6,1-2.3,1.6c0,0-0.1,0.1-0.1,0c0,0-0.1-0.1-0.1-0.1c-0.1-0.2-0.2-0.5-0.3-0.7c0-0.1-0.1-0.1-0.2-0.1c0,0,0,0-0.1,0.1
		c-0.1,0.2-0.2,0.1-0.3,0c-0.7-0.7-1.3-1.5-1.8-2.3c0-0.1-0.1-0.1-0.1-0.2c-0.1-0.1,0-0.2,0.1-0.2c0.5,0,2-0.1,2.3-0.2
		c-0.1-0.3-0.6-0.7-0.8-1c0.3,0,1.6-0.2,2,0.6c0,0.1,0.2,0.4,0.1,0.6C1053.1,703.3,1052.7,703.5,1052.3,703.7 M1063.4,719.1h-0.3
		l-1.2-2.3h0.3L1063.4,719.1z M1062.2,712.1c0.1,0.1,0.1,0.2,0.2,0.2c0,0.1,0.1,0.2,0.1,0.2c0.1,0,0.2-0.1,0.2-0.1
		c0.1,0,0.2,0,0.3,0c-0.1,0.1-0.2,0.2-0.4,0.3c-0.1,0.1-0.2,0.1-0.4,0.2l0,0l0,0l0,0c-0.1-0.1-0.1-0.2-0.1-0.4
		C1062.2,712.4,1062.2,712.2,1062.2,712.1 M1061.9,712.6c0.1,0.1,0.1,0.2,0.2,0.2c0,0.1,0.1,0.2,0.1,0.2c0.1,0,0.2-0.1,0.2-0.1
		c0.1,0,0.2,0,0.3,0c-0.1,0.1-0.2,0.2-0.4,0.3c-0.1,0.1-0.2,0.1-0.4,0.1l0,0l0,0c-0.1-0.1-0.1-0.2-0.1-0.4
		C1061.9,712.9,1061.9,712.7,1061.9,712.6 M1061.7,713.1c0.1,0.1,0.1,0.2,0.2,0.2c0,0.1,0,0.2,0.1,0.2c0.1,0,0.2,0,0.2-0.1
		c0.1,0,0.2,0,0.3,0c-0.1,0.1-0.2,0.2-0.4,0.3c-0.1,0.1-0.2,0.1-0.4,0.2l0,0c-0.1-0.1-0.1-0.2-0.1-0.4
		C1061.7,713.4,1061.7,713.3,1061.7,713.1 M1062.8,714.3l0.3,0.1l-1,1.8h-0.3L1062.8,714.3z M1061.5,716.2h-0.3l1.1-2l0.3,0.1
		L1061.5,716.2z M1060.4,713.4c0.1-0.1,0.1-0.2,0.2-0.2c0,0.2,0,0.3,0,0.5c0,0.1-0.1,0.2-0.1,0.4l0,0c-0.1,0-0.2-0.1-0.4-0.2
		c-0.1-0.1-0.3-0.2-0.4-0.3c0.1,0,0.2,0,0.3,0c0.1,0,0.2,0,0.2,0.1C1060.3,713.5,1060.3,713.4,1060.4,713.4 M1060.1,712.8
		c0.1-0.1,0.1-0.2,0.2-0.2c0,0.2,0,0.3,0,0.5c0,0.1-0.1,0.2-0.1,0.4l0,0l0,0c-0.1,0-0.2-0.1-0.4-0.1c-0.1-0.1-0.3-0.2-0.4-0.3
		c0.1,0,0.2,0,0.3,0c0.1,0,0.2,0,0.2,0.1C1060.1,713,1060.1,712.9,1060.1,712.8 M1059.2,712.4c0.1,0,0.2,0,0.3,0
		c0.1,0,0.2,0,0.2,0.1c0-0.1,0.1-0.2,0.1-0.2c0.1-0.1,0.1-0.2,0.2-0.2c0,0.2,0,0.3,0,0.5c0,0.1-0.1,0.2-0.1,0.4l0,0l0,0l0,0
		c-0.1,0-0.2-0.1-0.4-0.2C1059.5,712.7,1059.3,712.6,1059.2,712.4 M1060.2,716.2l-1-1.8l0.3-0.1l1,1.9L1060.2,716.2z M1060.8,716.8
		h0.3l-1.2,2.3h-0.3L1060.8,716.8z M1059.3,719.1h-0.3l1.2-2.3h0.3L1059.3,719.1z M1059.2,713.6c0.1-0.1,0.1-0.2,0.2-0.2
		c0,0.2,0,0.3,0,0.5c0,0.1-0.1,0.3-0.1,0.4l0,0c-0.1,0-0.2-0.1-0.4-0.1c-0.1-0.1-0.3-0.2-0.4-0.3c0.1,0,0.2,0,0.3,0
		c0.1,0,0.2,0,0.2,0.1C1059.2,713.8,1059.2,713.7,1059.2,713.6 M1059,713.1c0.1-0.1,0.1-0.2,0.2-0.2c0,0.2,0,0.3,0,0.5
		c0,0.1-0.1,0.2-0.1,0.4l0,0l0,0l0,0c-0.1,0-0.2-0.1-0.4-0.1c-0.1-0.1-0.3-0.2-0.4-0.3c0.1,0,0.2,0,0.3,0c0.1,0,0.2,0,0.2,0.1
		C1058.9,713.3,1059,713.2,1059,713.1 M1058.8,713.2L1058.8,713.2c-0.1,0-0.2-0.1-0.4-0.2c-0.1-0.1-0.3-0.2-0.4-0.3
		c0.1,0,0.2,0,0.3,0c0.1,0,0.2,0,0.2,0.1c0-0.1,0.1-0.2,0.1-0.2c0.1-0.1,0.1-0.2,0.2-0.2c0,0.2,0,0.3,0,0.5
		C1058.9,712.9,1058.9,713,1058.8,713.2 M1061.7,714l0.3,0.1l-1.1,2.1h-0.3l0.1-0.2l-0.9-1.7l0.3-0.1l0.8,1.4l0.1-0.3l-0.7-1.2
		l0.3-0.1l0.4,0.7v-0.8h0.3v0.8L1061.7,714z M1061.6,713.1c-0.1,0.1-0.1,0.3-0.2,0.4c-0.1,0.1-0.2,0.2-0.3,0.3l0,0l0,0l0,0
		c-0.1-0.1-0.2-0.2-0.3-0.3c-0.1-0.1-0.2-0.3-0.2-0.4c0.1,0,0.2,0.1,0.3,0.1c0.1,0,0.1,0.1,0.2,0.2c0.1-0.1,0.1-0.1,0.2-0.2
		C1061.4,713.2,1061.5,713.1,1061.6,713.1 M1061.4,712.3c-0.1,0.1-0.2,0.2-0.3,0.3l0,0l0,0l0,0c-0.1-0.1-0.2-0.2-0.3-0.3
		c-0.1-0.1-0.2-0.3-0.2-0.4c0.1,0,0.2,0.1,0.3,0.1c0.1,0,0.1,0.1,0.2,0.2c0.1-0.1,0.1-0.1,0.2-0.2c0.1-0.1,0.2-0.1,0.3-0.1
		C1061.6,712.1,1061.5,712.2,1061.4,712.3 M1061.6,712.5c-0.1,0.1-0.1,0.3-0.2,0.4c-0.1,0.1-0.2,0.2-0.3,0.3l0,0l0,0l0,0
		c-0.1-0.1-0.2-0.2-0.3-0.3c-0.1-0.1-0.2-0.3-0.2-0.4c0.1,0,0.2,0.1,0.3,0.1c0.1,0,0.1,0.1,0.2,0.2c0.1-0.1,0.1-0.1,0.2-0.2
		C1061.4,712.6,1061.5,712.5,1061.6,712.5 M1063.7,713.8c-0.1,0.1-0.2,0.2-0.4,0.3c-0.1,0.1-0.2,0.1-0.4,0.1l0,0
		c-0.1-0.1-0.1-0.2-0.1-0.4c0-0.2,0-0.3,0-0.5c0.1,0.1,0.1,0.2,0.2,0.2c0,0.1,0.1,0.2,0.1,0.2c0.1,0,0.2-0.1,0.2-0.1
		C1063.5,713.8,1063.6,713.8,1063.7,713.8 M1064,713.2c-0.1,0.1-0.2,0.2-0.4,0.3c-0.1,0.1-0.2,0.1-0.4,0.1l0,0l0,0l0,0
		c-0.1-0.1-0.1-0.2-0.1-0.4c0-0.2,0-0.3,0-0.5c0.1,0.1,0.1,0.2,0.2,0.2c0,0.1,0.1,0.1,0.1,0.2c0.1,0,0.2-0.1,0.2-0.1
		C1063.7,713.2,1063.8,713.2,1064,713.2 M1063.5,713.2c-0.1-0.1-0.1-0.2-0.1-0.4c0-0.2,0-0.3,0-0.5c0.1,0.1,0.1,0.2,0.2,0.2
		c0,0.1,0.1,0.2,0.1,0.2c0.1,0,0.2-0.1,0.2-0.1c0.1,0,0.2,0,0.3,0c-0.1,0.1-0.2,0.2-0.4,0.3C1063.7,713.1,1063.6,713.1,1063.5,713.2
		L1063.5,713.2L1063.5,713.2z M1061.3,718.2v0.9h-0.3v-0.9l-0.5,0.9h-0.3l1.1-2.1v0h0l0.1-0.2h0.3l-0.1,0.2l1.1,2.1h-0.3l-0.9-1.8
		l-0.1,0.3h0l0.8,1.5h-0.3L1061.3,718.2z M1050.7,725.7c0.1,0,0.2,0,0.3,0c0.1,0,0.2,0,0.2,0.1c0-0.1,0.1-0.2,0.1-0.2
		c0.1-0.1,0.1-0.2,0.2-0.2c0,0.2,0,0.3,0,0.5c0,0.1-0.1,0.2-0.1,0.4l0,0l0,0l0,0c-0.1,0-0.2-0.1-0.4-0.1
		C1051,725.9,1050.9,725.8,1050.7,725.7 M1051,726.2c0.1,0,0.2,0,0.3,0c0.1,0,0.2,0,0.2,0.1c0-0.1,0.1-0.2,0.1-0.2
		c0.1-0.1,0.1-0.2,0.2-0.2c0,0.2,0,0.3,0,0.5c0,0.1-0.1,0.2-0.1,0.4l0,0l0,0l0,0c-0.1,0-0.2-0.1-0.4-0.1
		C1051.2,726.4,1051.1,726.3,1051,726.2 M1056.4,734.6c-0.8,0.8-1.7,1.5-2.6,2.1c-0.2-0.1-2.1-1.6-2.6-2c0.1-0.2,0.1-0.4,0.2-0.7
		c0.6,0.5,1.8,1.3,2.4,1.7c0.6-0.4,1.8-1.3,2.4-1.7C1056.2,734.3,1056.3,734.3,1056.4,734.6 M1055.8,726.8c0.1,0,0.2-0.1,0.2-0.1
		c0.1,0,0.2,0,0.3,0c-0.1,0.1-0.2,0.2-0.4,0.3c-0.1,0.1-0.2,0.1-0.4,0.1l0,0l0,0l0,0c-0.1-0.1-0.1-0.2-0.1-0.4c0-0.2,0-0.3,0-0.5
		c0.1,0.1,0.1,0.2,0.2,0.2C1055.7,726.7,1055.8,726.8,1055.8,726.8 M1054.8,725c0.1,0.1,0.1,0.2,0.2,0.2c0,0.1,0.1,0.2,0.1,0.2
		c0.1,0,0.2-0.1,0.2-0.1c0.1,0,0.2,0,0.3,0c-0.1,0.1-0.2,0.2-0.4,0.3c-0.1,0.1-0.2,0.1-0.4,0.1l0,0c-0.1-0.1-0.1-0.2-0.1-0.4
		C1054.8,725.4,1054.8,725.2,1054.8,725 M1054.6,725.6c0.1,0.1,0.1,0.2,0.2,0.2c0,0.1,0,0.2,0.1,0.2c0.1,0,0.2,0,0.2-0.1
		c0.1,0,0.2,0,0.3,0c-0.1,0.1-0.2,0.2-0.4,0.3c-0.1,0.1-0.2,0.1-0.4,0.1l0,0l0,0l0,0c-0.1-0.1-0.1-0.2-0.1-0.4
		C1054.6,725.9,1054.6,725.7,1054.6,725.6 M1054.4,726.1c0.1,0.1,0.1,0.2,0.2,0.2c0,0.1,0.1,0.2,0.1,0.2c0.1,0,0.2-0.1,0.2-0.1
		c0.1,0,0.2,0,0.3,0c-0.1,0.1-0.2,0.2-0.4,0.3c-0.1,0.1-0.2,0.1-0.4,0.1l0,0l0,0l0,0c-0.1-0.1-0.1-0.2-0.1-0.4
		C1054.4,726.4,1054.3,726.2,1054.4,726.1 M1053,726.3c0.1-0.1,0.1-0.2,0.2-0.2c0,0.2,0,0.3,0,0.5c0,0.1-0.1,0.2-0.1,0.4l0,0l0,0
		l0,0c-0.1,0-0.2-0.1-0.4-0.1c-0.1-0.1-0.3-0.2-0.4-0.3c0.1,0,0.2,0,0.3,0c0.1,0,0.2,0,0.2,0.1C1052.9,726.5,1053,726.4,1053,726.3
		 M1052.8,725.8c0.1-0.1,0.1-0.2,0.2-0.2c0,0.2,0,0.3,0,0.5c0,0.1-0.1,0.2-0.1,0.4l0,0l0,0l0,0c-0.1,0-0.2-0.1-0.4-0.1
		c-0.1-0.1-0.3-0.2-0.4-0.3c0.1,0,0.2,0,0.3,0c0.1,0,0.2,0,0.2,0.1C1052.7,726,1052.7,725.9,1052.8,725.8 M1051.9,725.4
		c0.1,0,0.2,0,0.3,0c0.1,0,0.2,0,0.2,0.1c0-0.1,0.1-0.2,0.1-0.2c0.1-0.1,0.1-0.2,0.2-0.2c0,0.2,0,0.3,0,0.5c0,0.1-0.1,0.2-0.1,0.4
		l0,0c-0.1,0-0.2-0.1-0.4-0.1C1052.1,725.6,1052,725.5,1051.9,725.4 M1051.2,726.7c0.1,0,0.2,0,0.3,0c0.1,0,0.2,0,0.2,0.1
		c0-0.1,0.1-0.2,0.1-0.2c0.1-0.1,0.1-0.2,0.2-0.2c0,0.2,0,0.3,0,0.5c0,0.1-0.1,0.2-0.1,0.4l0,0l0,0l0,0c-0.1,0-0.2-0.1-0.4-0.1
		C1051.5,727,1051.3,726.9,1051.2,726.7 M1052.8,729.1l-1-1.8l0.3-0.1l1,1.9H1052.8z M1051.9,732.1h-0.3l1.2-2.3h0.3L1051.9,732.1z
		 M1052.5,732.1h-0.3l1.2-2.3h0.3L1052.5,732.1z M1056,732.1h-0.3l-1.2-2.3h0.3L1056,732.1z M1054.1,729.1h-0.3l1.1-2l0.3,0.1
		L1054.1,729.1z M1055.4,727.3l0.3,0.1l-1,1.8h-0.3L1055.4,727.3z M1053.9,730.6L1053.9,730.6l0.8,1.5h-0.3l-0.5-0.9v0.9h-0.3v-0.9
		l-0.5,0.9h-0.3l1.1-2.1v0h0l0.1-0.2h0.3l-0.1,0.2l1.1,2.1h-0.3l-0.9-1.8L1053.9,730.6z M1054.3,727l0.3,0.1l-1.1,2.1h-0.3l0.1-0.2
		l-0.9-1.7l0.3-0.1l0.8,1.4l0.1-0.3l-0.7-1.2l0.3-0.1l0.4,0.7v-0.8h0.3v0.8L1054.3,727z M1054.2,726c-0.1,0.1-0.1,0.3-0.2,0.4
		c-0.1,0.1-0.2,0.2-0.3,0.3l0,0c-0.1-0.1-0.2-0.2-0.3-0.3c-0.1-0.1-0.2-0.3-0.2-0.4c0.1,0,0.2,0.1,0.3,0.1c0.1,0,0.1,0.1,0.2,0.2
		c0.1-0.1,0.1-0.1,0.2-0.2C1054,726.1,1054.1,726.1,1054.2,726 M1054.2,725.5c-0.1,0.1-0.1,0.3-0.2,0.4c-0.1,0.1-0.2,0.2-0.3,0.3
		l0,0l0,0l0,0c-0.1-0.1-0.2-0.2-0.3-0.3c-0.1-0.1-0.2-0.3-0.2-0.4c0.1,0,0.2,0.1,0.3,0.1c0.1,0,0.1,0.1,0.2,0.2
		c0.1-0.1,0.1-0.1,0.2-0.2C1054.1,725.6,1054.1,725.5,1054.2,725.5 M1053.8,725.6L1053.8,725.6L1053.8,725.6L1053.8,725.6
		c-0.1-0.1-0.2-0.2-0.3-0.3c-0.1-0.1-0.2-0.3-0.2-0.4c0.1,0,0.2,0.1,0.3,0.1c0.1,0,0.1,0.1,0.2,0.2c0.1-0.1,0.1-0.1,0.2-0.2
		c0.1-0.1,0.2-0.1,0.3-0.1c-0.1,0.1-0.1,0.3-0.2,0.4C1054,725.4,1053.9,725.5,1053.8,725.6 M1056.6,726.2c-0.1,0.1-0.2,0.2-0.4,0.3
		c-0.1,0.1-0.2,0.1-0.4,0.1l0,0l0,0l0,0c-0.1-0.1-0.1-0.2-0.1-0.4c0-0.2,0-0.3,0-0.5c0.1,0.1,0.1,0.2,0.2,0.2c0,0.1,0.1,0.2,0.1,0.2
		c0.1,0,0.2-0.1,0.2-0.1C1056.4,726.2,1056.5,726.2,1056.6,726.2 M1056.1,726.1c-0.1-0.1-0.1-0.2-0.1-0.4c0-0.2,0-0.3,0-0.5
		c0.1,0.1,0.1,0.2,0.2,0.2c0,0.1,0.1,0.2,0.1,0.2c0.1,0,0.2-0.1,0.2-0.1c0.1,0,0.2,0,0.3,0c-0.1,0.1-0.2,0.2-0.4,0.3
		C1056.4,726.1,1056.2,726.1,1056.1,726.1L1056.1,726.1L1056.1,726.1L1056.1,726.1z M1050.1,719c0.3-0.1,0.6-0.2,0.8-0.3
		c0.3-0.1,0.6-0.3,0.8-0.5c0.5-0.4,1.1-0.6,1.8-0.7c0.8-0.1,1.5,0.2,2.1,0.8c0.5,0.5,0.9,1,1.1,1.7c0.1,0.3,0.1,0.5,0.3,0.8
		c0.2,0.3,0.6,0.3,1,0.3c0.9,0.1,1.7,0.4,2.3,1c0.2,0.2,0.4,0.5,0.6,0.7c0.2,0.2,0.1,0.5-0.2,0.6c-0.9,0.3-1.8,0.2-2.6-0.2
		c-0.5-0.2-0.7-0.8-1.1-1.1c-0.1,0-0.1-0.1-0.2-0.1c-0.3,0-0.5,0.1-0.8,0.2c-0.2,0-0.4,0.1-0.5,0.2c-0.4,0.2-0.8,0.4-1.2,0.4
		c0,0,0,0,0,0c-0.3,0-0.3,0.2-0.8,0.3c0,0,0-0.1,0-0.1l-0.3-0.1c0.1-0.3,0.4-0.5,0.7-0.6c0,0-0.1,0-0.1,0c-0.3-0.1-0.5-0.2-0.8-0.3
		c0,0-0.1,0-0.1,0c-0.2,0.2-0.4,0.3-0.6,0.5c-0.1,0.1-0.1,0.2-0.3,0.3c-0.2,0.1-0.4,0.1-0.7,0.2l0-0.1l-0.3,0
		c0.1-0.3,0.3-0.5,0.6-0.4c0.1,0,0.3,0,0.2-0.2s-0.1-0.2-0.3-0.1c-0.2,0.1-0.4,0.1-0.6,0.1c0,0,0.1,0,0-0.1c0,0-0.3,0-0.3-0.1
		c0.1-0.1,0.1-0.2,0.2-0.3c0.1,0,0.4-0.1,0.5-0.1c0,0,0,0,0-0.1c-0.1,0-0.1-0.1-0.2,0c-0.1,0-0.3,0-0.4,0.1
		c-0.3,0.1-0.6,0.1-0.9,0.2c-0.4,0-0.7-0.1-1-0.4c-0.1,0-0.2-0.1-0.2-0.2C1048.5,720.1,1049.2,719.3,1050.1,719 M1043.1,712.7
		c0.1,0,0.2,0,0.3,0c0.1,0,0.2,0,0.2,0.1c0-0.1,0.1-0.2,0.1-0.2c0.1-0.1,0.1-0.2,0.2-0.2c0,0.2,0,0.3,0,0.5c0,0.1-0.1,0.2-0.1,0.4
		l0,0c-0.1,0-0.2-0.1-0.4-0.2C1043.3,712.9,1043.2,712.8,1043.1,712.7 M1043.3,713.2c0.1,0,0.2,0,0.3,0c0.1,0,0.2,0,0.2,0.1
		c0-0.1,0.1-0.2,0.1-0.2c0.1-0.1,0.1-0.2,0.2-0.2c0,0.2,0,0.3,0,0.5c0,0.1-0.1,0.2-0.1,0.4l0,0l0,0l0,0c-0.1,0-0.2-0.1-0.4-0.1
		C1043.5,713.5,1043.4,713.4,1043.3,713.2 M1043.5,713.8c0.1,0,0.2,0,0.3,0c0.1,0,0.2,0,0.2,0.1c0-0.1,0.1-0.2,0.1-0.2
		c0.1-0.1,0.1-0.2,0.2-0.2c0,0.2,0,0.3,0,0.5c0,0.1-0.1,0.2-0.1,0.4l0,0c-0.1,0-0.2-0.1-0.4-0.1
		C1043.8,714,1043.7,713.9,1043.5,713.8 M1044.2,719.1h-0.3l1.2-2.3h0.3L1044.2,719.1z M1044.9,719.1h-0.3l1.2-2.3h0.3L1044.9,719.1
		z M1048.3,719.1h-0.3l-1.2-2.3h0.3L1048.3,719.1z M1047.2,712.1c0.1,0.1,0.1,0.2,0.2,0.2c0,0.1,0.1,0.2,0.1,0.2
		c0.1,0,0.2-0.1,0.2-0.1c0.1,0,0.2,0,0.3,0c-0.1,0.1-0.2,0.2-0.4,0.3c-0.1,0.1-0.2,0.1-0.4,0.2l0,0l0,0l0,0
		c-0.1-0.1-0.1-0.2-0.1-0.4C1047.2,712.4,1047.1,712.2,1047.2,712.1 M1046.9,712.6c0.1,0.1,0.1,0.2,0.2,0.2c0,0.1,0.1,0.2,0.1,0.2
		c0.1,0,0.2-0.1,0.2-0.1c0.1,0,0.2,0,0.3,0c-0.1,0.1-0.2,0.2-0.4,0.3c-0.1,0.1-0.2,0.1-0.4,0.1l0,0l0,0c-0.1-0.1-0.1-0.2-0.1-0.4
		C1046.9,712.9,1046.9,712.7,1046.9,712.6 M1046.7,713.1c0.1,0.1,0.1,0.2,0.2,0.2c0,0.1,0.1,0.2,0.1,0.2c0.1,0,0.2-0.1,0.2-0.1
		c0.1,0,0.2,0,0.3,0c-0.1,0.1-0.2,0.2-0.4,0.3c-0.1,0.1-0.2,0.1-0.4,0.2l0,0c-0.1-0.1-0.1-0.2-0.1-0.4
		C1046.7,713.4,1046.7,713.3,1046.7,713.1 M1047.7,714.3l0.3,0.1l-1,1.8h-0.3L1047.7,714.3z M1046.5,716.2h-0.3l1.1-2l0.3,0.1
		L1046.5,716.2z M1045.3,713.4c0.1-0.1,0.1-0.2,0.2-0.2c0,0.2,0,0.3,0,0.5c0,0.1-0.1,0.2-0.1,0.4l0,0c-0.1,0-0.2-0.1-0.4-0.2
		c-0.1-0.1-0.3-0.2-0.4-0.3c0.1,0,0.2,0,0.3,0c0.1,0,0.2,0,0.2,0.1C1045.3,713.5,1045.3,713.4,1045.3,713.4 M1044.5,714.3l1,1.9
		h-0.3l-1-1.8L1044.5,714.3z M1045.1,712.8c0.1-0.1,0.1-0.2,0.2-0.2c0,0.2,0,0.3,0,0.5c0,0.1-0.1,0.2-0.1,0.4l0,0l0,0
		c-0.1,0-0.2-0.1-0.4-0.1c-0.1-0.1-0.3-0.2-0.4-0.3c0.1,0,0.2,0,0.3,0c0.1,0.1,0.2,0.1,0.3,0.1
		C1045.1,713,1045.1,712.9,1045.1,712.8 M1044.9,712.9L1044.9,712.9L1044.9,712.9L1044.9,712.9c-0.1,0-0.2-0.1-0.4-0.2
		c-0.1-0.1-0.3-0.2-0.4-0.3c0.1,0,0.2,0,0.3,0c0.1,0.1,0.2,0.1,0.3,0.1c0.1,0,0.1-0.1,0.1-0.2c0.1-0.1,0.1-0.2,0.2-0.2
		c0,0.2,0,0.3,0,0.5C1045,712.7,1045,712.8,1044.9,712.9 M1046.6,714l0.3,0.1l-1.1,2.1h-0.3l0.1-0.2l-0.9-1.7l0.3-0.1l0.8,1.4
		l0.1-0.3l-0.7-1.2l0.3-0.1l0.4,0.7v-0.8h0.3v0.8L1046.6,714z M1046.6,713.1c-0.1,0.1-0.1,0.3-0.2,0.4c-0.1,0.1-0.2,0.2-0.3,0.3l0,0
		l0,0l0,0c-0.1-0.1-0.2-0.2-0.3-0.3c-0.1-0.1-0.2-0.3-0.2-0.4c0.1,0,0.2,0.1,0.3,0.1c0.1,0,0.1,0.1,0.2,0.2c0.1-0.1,0.1-0.1,0.2-0.2
		C1046.4,713.2,1046.5,713.1,1046.6,713.1 M1046.6,712.5c-0.1,0.1-0.1,0.3-0.2,0.4c-0.1,0.1-0.2,0.2-0.3,0.3l0,0l0,0l0,0
		c-0.1-0.1-0.2-0.2-0.3-0.3c-0.1-0.1-0.2-0.3-0.2-0.4c0.1,0,0.2,0.1,0.3,0.1c0.1,0,0.1,0.1,0.2,0.2c0.1-0.1,0.1-0.1,0.2-0.2
		C1046.4,712.6,1046.5,712.5,1046.6,712.5 M1046.1,712.6L1046.1,712.6L1046.1,712.6L1046.1,712.6c-0.1-0.1-0.2-0.2-0.3-0.3
		c-0.1-0.1-0.2-0.3-0.2-0.4c0.1,0,0.2,0.1,0.3,0.1c0.1,0,0.1,0.1,0.2,0.2c0.1-0.1,0.1-0.1,0.2-0.2c0.1-0.1,0.2-0.1,0.3-0.1
		c-0.1,0.1-0.1,0.3-0.2,0.4C1046.3,712.4,1046.2,712.5,1046.1,712.6 M1048.7,713.8c-0.1,0.1-0.2,0.2-0.4,0.3
		c-0.1,0.1-0.2,0.1-0.4,0.1l0,0c-0.1-0.1-0.1-0.2-0.1-0.4c0-0.2,0-0.3,0-0.5c0.1,0.1,0.1,0.2,0.2,0.2c0,0.1,0.1,0.2,0.1,0.2
		c0.1,0,0.2-0.1,0.2-0.1C1048.5,713.8,1048.6,713.8,1048.7,713.8 M1048.9,713.2c-0.1,0.1-0.2,0.2-0.4,0.3c-0.1,0.1-0.2,0.1-0.4,0.1
		l0,0l0,0l0,0c-0.1-0.1-0.1-0.2-0.1-0.4c0-0.2,0-0.3,0-0.5c0.1,0.1,0.1,0.2,0.2,0.2c0,0.1,0.1,0.1,0.1,0.2c0.1,0,0.2-0.1,0.2-0.1
		C1048.7,713.2,1048.8,713.2,1048.9,713.2 M1048.4,713.2c-0.1-0.1-0.1-0.2-0.1-0.4c0-0.2,0-0.3,0-0.5c0.1,0.1,0.1,0.2,0.2,0.2
		c0,0.1,0.1,0.2,0.1,0.2c0.1,0,0.2-0.1,0.2-0.1c0.1,0,0.2,0,0.3,0c-0.1,0.1-0.2,0.2-0.4,0.3C1048.7,713.1,1048.6,713.1,1048.4,713.2
		L1048.4,713.2L1048.4,713.2z M1046.3,717.6L1046.3,717.6l0.8,1.5h-0.3l-0.5-0.9v0.9h-0.3v-0.9l-0.5,0.9h-0.3l1.1-2.1l0,0h0l0.1-0.2
		h0.3l-0.1,0.2l1.1,2.1h-0.3l-0.9-1.8L1046.3,717.6z M1049.5,709.8c-0.3,0-1.9,0.1-2.4,0.1c-1.4,0.1-2.8,0.3-4.2,0.7
		c-0.1,0-0.3,0.1-0.4,0.1v0.2c0,3.9,0,7.8,0,11.8c0,1.1,0.2,2.3,0.6,3.4c0,0,0,0.1,0,0.1c-0.2,0.1-0.4,0.1-0.6,0.2
		c-0.1,0-0.1,0-0.1-0.1c-0.2-0.7-0.4-1.4-0.5-2c-0.2-1.3-0.3-2.7-0.2-4c0-3.3,0-6.6,0-9.9c0-0.2,0.1-0.3,0.3-0.3
		c0.7-0.1,1.5-0.3,2.2-0.4c0.8-0.1,1.5-0.2,2.3-0.3c0.9-0.1,1.8-0.1,2.7-0.2c0.3,0,0.2,0.1,0.3,0.3
		C1049.4,709.6,1049.4,709.7,1049.5,709.8 M1043.2,709.2c0-0.2-0.1-0.5-0.1-0.7c0,0,0-0.1,0.1-0.1c0,0,0.1,0,0.1,0
		C1043.4,708.7,1043.4,709,1043.2,709.2C1043.2,709.2,1043.2,709.2,1043.2,709.2 M1042.9,709.4
		C1042.9,709.5,1042.9,709.5,1042.9,709.4c-0.1,0.1-0.2,0-0.2,0c0,0,0-0.4,0-0.4c-0.1-0.3-0.2-0.5-0.2-0.8c0.1,0,0.1,0,0.2,0.1
		C1042.8,708.6,1042.9,709,1042.9,709.4 M1042.4,709c0,0.2,0.1,0.4,0,0.7c-0.8,0.2-0.4-0.5-0.5-0.6c-0.1-0.1-0.2,0-0.3-0.2
		c0,0,0-0.1,0-0.1c0-0.1,0.1-0.2,0.1-0.3c0-0.2,0-0.3,0.1-0.2C1042.2,708.4,1042.4,708.7,1042.4,709 M1041.5,708.5
		c-0.1,0.1-0.3,0.3-0.4,0.4c-0.2,0.2-0.4,0.3-0.3,0.6c0.1,0.2,0.1,0.4,0.1,0.6c0,0-0.1,0.2-0.1,0.2c-0.1-0.4-0.4-1.1-0.5-1.5
		c0.2-0.2,0.4-0.4,0.6-0.5c0.1-0.1,0.3-0.2,0.5-0.2C1041.5,708.1,1041.6,708.4,1041.5,708.5 M1040.4,711c-0.1,0.1-0.2,0.1-0.3,0.2
		c-0.8,0.4-1.6,0.9-2.4,1.3c-0.3,0.1-0.7,0.1-1.1,0c-0.5-0.7-1-1.5-1.5-2.2c0-0.1-0.1-0.1-0.1-0.2c0-0.6,0.1-1.2,0.1-1.8
		c0,0,0,0,0,0c0-0.1,0-0.3-0.1-0.3s-0.1,0.1-0.2,0.2c-0.2,1.2-0.4,2.4-0.6,3.6c0,0.3-0.1,0.7-0.1,0.7s-0.1,0.4-0.1,0.5
		c-0.4,0-1,0.1-1.4,0.1c0-0.5,0-1.1,0-1.5c0-0.2,0-0.4,0-0.5l0,0c0.1,0,0.3,0,0.3-0.1c0.1-0.1,0.1-0.2,0-0.3
		c0.1-0.1,0.1-0.1,0.1-0.2c0.1,0,0.3,0,0.3-0.1c0.1-0.1,0.1-0.2,0-0.3c0-0.1,0.1-0.1,0.1-0.2c0.1,0,0.2,0,0.3-0.1c0-0.1,0-0.2,0-0.3
		c0-0.1,0.1-0.1,0.1-0.2c0.1,0,0.2-0.1,0.3-0.2c0-0.1,0-0.2,0-0.3c0-0.1,0.1-0.1,0.1-0.2c0.2,0,0.3-0.2,0.2-0.3c0-0.1,0-0.1-0.1-0.2
		c0,0,0-0.1,0-0.2c0.1,0,0.2-0.1,0.2-0.2c0-0.1,0-0.2-0.1-0.2c0,0,0-0.1,0-0.2c0.1,0,0.2-0.1,0.2-0.2c0-0.1,0-0.2-0.1-0.3
		c0-0.1,0-0.1,0-0.2c0.1,0,0.2-0.1,0.2-0.2c0-0.1,0-0.2-0.1-0.3c0,0,0-0.1,0-0.1c0.6,1.3,1.4,2.9,2,4.1c0.1,0,0.2-0.1,0.3-0.1
		c0.2,0,0.4,0.1,0.5,0.4c0,0.2,0.2,0.2,0.3,0.1c0.4-0.7,1.2-0.7,1.7-1.2C1040,709.9,1040.2,710.4,1040.4,711 M1033.5,705
		c0,0.2-0.1,0.2-0.1,0.2c-0.1,0-0.2-0.1-0.2-0.2c0-0.1,0.1-0.2,0.2-0.2l0,0C1033.5,704.8,1033.5,704.8,1033.5,705 M1033.5,704.4
		c0,0.2-0.1,0.2-0.1,0.2c-0.1,0-0.2-0.1-0.2-0.2c0-0.1,0.1-0.2,0.2-0.2C1033.5,704.2,1033.5,704.2,1033.5,704.4 M1033.2,705.2
		L1033.2,705.2c-0.1,0-0.2,0.1-0.2,0.2c0,0.2,0,0.3,0.2,0.4c-0.1,0-0.2,0.1-0.3,0.2c0,0.1,0,0.3,0.2,0.4c-0.1,0-0.3,0.1-0.3,0.2
		c0,0.1,0,0.3,0.2,0.4c-0.1,0-0.3,0.1-0.3,0.2c0,0.1,0,0.3,0.1,0.3l0,0c-0.1,0-0.2,0-0.3,0.1c0,0.1,0,0.1,0,0.2c0-0.2,0-0.4-0.1-0.5
		c-0.1-0.6-0.2-1.1-0.3-1.7c0-0.2-0.1-0.4-0.1-0.5c0,0,0.2-0.1,0.2-0.1c0.1-0.1,0.1-0.1,0.3-0.2c0.1-0.1,0.3-0.2,0.5-0.1
		c0,0,0.1,0.1,0.1,0.1c-0.1,0-0.1,0.1-0.1,0.2C1033,705.1,1033.1,705.2,1033.2,705.2 M1032.2,704.7c0-0.3,0-0.4,0-0.7
		c0.1-0.1,0.3-0.2,0.3-0.1C1032.5,704.2,1032.5,704.5,1032.2,704.7 M1031.6,703.1c-0.7-0.5-1.3-1.1-1.8-1.9c0,0-0.1-0.2-0.1-0.2
		l0.1,0c0.8-0.4,1.5-0.9,2.2-1.4c0.4,0.1,0.5,0.3,0.5,0.6c0.1,0.4,0.2,0.7,0.3,1.1c0.1,0.2,0,0.3-0.2,0.2c-0.3,0-0.5,0-0.7,0.2
		c-0.1,0.2-0.2,0.4-0.3,0.6c-0.1,0.1,0.1,0.2,0.2,0.1c0.2-0.1,0.3-0.2,0.5-0.2c0,0,0,0,0,0c0.1,0,0.3,0,0.3,0
		c0.1,0.1-0.1,0.2-0.2,0.2c-0.1,0-0.2,0-0.3,0.1c-0.1,0-0.1,0.1-0.1,0.1c0,0,0.1,0.1,0.2,0.1c0.1,0,0.1,0,0.2,0
		c0.1,0,0.3,0.1,0.2,0.2c0,0.1-0.1,0.2-0.2,0.3C1032.3,703.4,1031.9,703.3,1031.6,703.1 M1031.9,698.9
		C1031.9,698.9,1031.9,699,1031.9,698.9c-0.2,0.3-0.4,0.5-0.6,0.6c-0.5,0.4-1,0.7-1.5,1c-0.4,0.2-0.9,0.4-1.4,0.4
		c0,0-0.2-0.2-0.2-0.3c-0.1-0.2-0.2-0.3-0.3-0.5c1.4,0,2.7-0.7,3.5-1.8C1031.6,698.5,1031.8,698.7,1031.9,698.9 M1029.7,698.6
		c-0.1,0.2-0.3,0.3-0.5,0.3C1028.9,698.6,1029.5,698.3,1029.7,698.6 M1029,701.5c0-0.3,0.3-0.4,0.5-0.5c0.4,0.8,0.9,1.5,1.7,2
		c0,0.1,0,0.1,0,0.1c-0.3-0.1-0.6-0.2-0.9-0.3c-0.2-0.1-0.2-0.2-0.2-0.3c0-0.1,0-0.2,0-0.2c0-0.1-0.1-0.2-0.2-0.1
		c-0.3,0.1-0.7-0.1-0.8-0.4C1029,701.7,1029,701.6,1029,701.5 M1030.2,703.5c-0.1,0-0.2-0.1-0.3-0.1c-0.1-0.1-0.2-0.2-0.1-0.3
		c0.1-0.1,0.2,0,0.3,0c0.2,0.1,0.4,0.2,0.6,0.3c0.3,0.1,0.9,0.2,1.2,0.3v0.2C1031.3,703.8,1030.8,703.7,1030.2,703.5 M1029.5,703.5
		c0.8,0.4,1.6,0.6,2.5,0.6v0.7c-0.3,0-0.6,0-0.9-0.1c-0.4-0.1-0.9-0.2-1.3-0.4C1029.5,704.2,1029.3,703.9,1029.5,703.5
		C1029.4,703.6,1029.5,703.5,1029.5,703.5 M1029.2,704.4c0.1,0.1,0.2,0.1,0.4,0.2c-0.5,0.3-0.9,0.6-1.4,0.9c0,0-0.1,0-0.2,0
		c-0.3-0.1-0.6-0.2-0.9-0.3c0,0,1.2-0.6,1.8-0.9C1029.1,704.3,1029.2,704.3,1029.2,704.4 M1027.6,705.9c0-0.1,0.2,0,0.2,0
		c0.4,0.2,0.7-0.1,1-0.3c0.4-0.3,0.8-0.5,1.2-0.8c0.1-0.1,0.3,0,0.4,0.1c0.3,0.1,0.6,0.1,1,0.2c0.1,0,0.3,0,0.3,0.2
		c0.1,0.5,0.1,0.8,0.2,1.3s0.1,0.7,0.1,1c0,0.3,0,0.7,0,1.1c-0.1,0-0.1,0-0.2,0.1c-0.1,0.1-0.1,0.3,0,0.4l0,0
		c-0.1-0.1-0.3-0.1-0.4-0.1c-0.1,0.1-0.2,0.4,0,0.5c-0.1-0.1-0.3-0.2-0.4-0.1c-0.1,0.1-0.2,0.3-0.1,0.5l0,0
		c-0.1-0.1-0.2-0.2-0.4-0.2c-0.2,0.1-0.2,0.3-0.2,0.4c-0.1-0.2-0.2-0.2-0.4-0.2c-0.2,0.1-0.2,0.3-0.2,0.4c-0.1-0.2-0.2-0.3-0.4-0.2
		c-0.2,0.1-0.3,0.3-0.2,0.4l0,0c0-0.2-0.2-0.3-0.3-0.3c0.1,0.2,0,0.3-0.2,0.4c-0.2,0.1-0.3,0-0.4-0.2c0,0,0,0,0-0.1
		c0.1-0.2,0.2-0.5,0.3-0.7c0.1-0.4,0.3-0.7,0.4-1.1c0-0.1,0-0.3-0.1-0.3c-0.1,0-0.2,0-0.2,0.2c-0.3,0.6-0.6,1.2-0.8,1.8
		c-0.2,0.6-0.6,1.1-1,1.5c-0.1,0.1-0.3,0.2-0.4,0.3s-0.1,0.2,0.1,0.3c0.1,0,0.2,0.1,0.2,0.1c0.1,0.5,0.2,1,0.4,1.5
		c0.1,0.4,0.3,0.8,0.4,1.2c0.1,0.3,0.2,0.4,0.3,0.7c0,0.1,0.2,0.5,0.3,0.6c0,0-0.1,0-0.2,0.1c0.2,0.1,0.2,0.3,0.2,0.5
		c0,0.4,0.2,0.8,0.5,1c0.2,0.1,0.3,0.3,0.5,0.5c0,0.1,0,0.2,0,0.3c0,0-0.1,0-0.2,0.1s-0.4-0.1-0.7-0.3c-0.3-0.1-0.3-0.2-0.4-0.2
		c0,0.1,0.3,0.4,1,0.6c0.1,0,0,0.3-0.1,0.3c-0.3-0.1-0.7-0.3-1-0.5c0,0,0,0.1,0.4,0.3s0.6,0.3,0.6,0.3s0,0.1-0.1,0.2
		c-0.1,0.1-0.9-0.4-0.9-0.4c0.2,0.2,0.4,0.4,0.6,0.5c0.1,0,0,0.1,0,0.1c-0.3,0-0.6-0.1-0.8-0.3c-0.1-0.2-0.3-0.6-0.5-0.9
		c-0.1-0.2-0.1-0.3,0.1-0.5c0.1-0.1,0.1-0.1,0.1-0.2c0-0.2,0-0.3,0.2-0.4c0.1,0,0.1-0.1,0.1-0.2c-0.1-0.3,0-0.4,0.2-0.5
		c0.1,0,0.1-0.1-0.1-0.1c-0.1,0-0.2,0-0.3,0.1c-0.1,0.1,0,0.4-0.1,0.5c0,0.1-0.2,0.1-0.3,0.2c-0.1,0.1,0,0.3-0.1,0.4
		c-0.1-0.2-0.3-0.7-0.4-0.9c-0.4-0.8-0.7-1.7-1.1-2.6c-0.4-0.8-0.5-1.6-0.5-2.5c0-0.6,0.2-1.2,0.4-1.8c0.1-0.3,0.9-2,1.1-2.3
		C1026.6,707.3,1027.1,706.6,1027.6,705.9 M1027.2,723.6L1027.2,723.6c0.1,0.2,0.1,0.3,0.2,0.5c0,0.6,0.1,1.2,0.1,1.8
		c0,0.4-0.1,0.8-0.2,1.2c-0.1,0.7-0.2,1.4-0.1,2.1c0,0.1,0,0.3-0.1,0.4c-0.1,0-0.2-0.1-0.3-0.1c-0.2,0-0.2-0.1-0.2-0.3
		c0-0.1,0-0.1,0-0.2c-0.3-0.3-0.2-0.8-0.2-1.1c0-0.5,0.1-1,0.3-1.5c0.1-0.3,0.2-0.5,0.2-0.8c0-0.2,0-0.4-0.1-0.5c0-0.1,0-0.2,0-0.3
		C1026.9,724.4,1027,724,1027.2,723.6 M1026.4,729.1c0.1,0.1,0,0.3-0.1,0.4c-0.1,0.1-0.2,0.2-0.5,0.1c0-0.1,0-0.2,0-0.4
		c0-0.2,0.1-0.3,0.3-0.3C1026.2,728.9,1026.3,729,1026.4,729.1 M1026.6,731.3c0,0.2-0.6,0.5-0.6,0.5l0-0.9
		C1025.9,731,1026.6,730.9,1026.6,731.3 M1028.5,733.5c-0.7,0.4-1.5,0.6-2.2,0.7c-0.2-0.3-0.9-1.1-0.1-1.7c0.3-0.2,0.5-0.4,0.7-0.6
		c0.2-0.2,0.3-0.5,0.1-0.8c0,0,0-0.1,0-0.1c-0.1-0.2-0.3-0.3-0.5-0.5l-0.2-0.1c0-0.1,0.1-0.2,0.1-0.4l0.4,0.2v0
		c0.1,0.1,0.2,0.1,0.3,0.2l0,0c0.3,0.2,0.6,0.5,0.8,0.8C1028.1,731.9,1028.2,732.8,1028.5,733.5 M1027.9,720.9l-0.5,0l-0.3-0.3
		l0.1-0.3l0.3,0.4l0.5,0L1027.9,720.9z M1028.1,722.5c0,0.8,0.1,1.5,0.2,2.2c0,0.4,0.1,0.9,0.1,1.3c0,0.2-0.1,0.4-0.1,0.6
		c-0.1,0.4-0.2,0.7-0.3,1.1c0,0.5,0,1,0,1.4c-0.3,0-0.3,0-0.3-0.2c0-0.3,0-0.6,0-1c0.1-0.6,0.1-1.2,0.2-1.7c0-0.3,0-0.6,0-0.9
		c0-0.5-0.1-0.9-0.1-1.4c0-0.3-0.2-1.4-0.2-1.4l0.4-1.2c0.1,0,0.2-0.1,0.3-0.1C1028.1,721.7,1028.1,722.1,1028.1,722.5
		 M1029.1,717.6c0.2,0.2,0.3,0.5,0.1,0.8c0,0,0,0,0,0C1028.9,718.1,1028.9,718,1029.1,717.6 M1028.6,716.2l0.5-1.5l0.3-0.1l0.3,0.1
		l0.1,0.3l-0.6-0.2L1028.6,716.2z M1028.2,711c-0.2,0-0.2,0-0.2,0c0-0.1,0-0.2,0.1-0.2c0.1,0,0.2,0,0.2,0.1c0,0,0,0,0,0
		C1028.4,710.9,1028.4,711,1028.2,711 M1028.8,710.9c-0.2,0-0.2,0-0.2,0c0-0.1,0-0.2,0.1-0.2c0.1,0,0.2,0,0.2,0.1c0,0,0,0,0,0
		C1029,710.8,1029,710.9,1028.8,710.9 M1029.5,710.7c-0.2,0-0.2,0-0.2,0c0-0.1,0-0.2,0.1-0.3c0.1,0,0.2,0,0.3,0.1c0,0,0,0,0,0
		C1029.6,710.6,1029.6,710.7,1029.5,710.7 M1030.1,710.5c-0.2,0.1-0.2,0-0.2,0c0-0.1,0-0.2,0.1-0.3s0.2,0,0.3,0.1c0,0,0,0,0,0
		C1030.3,710.4,1030.2,710.4,1030.1,710.5 M1030.7,710.3c-0.2,0.1-0.2,0-0.2,0c0-0.1,0-0.2,0.1-0.3c0.1,0,0.2,0,0.3,0.1c0,0,0,0,0,0
		C1030.8,710.1,1030.8,710.2,1030.7,710.3 M1031.2,709.9c-0.1,0.1-0.2,0.1-0.2,0.1c-0.1-0.1-0.1-0.2,0-0.3c0.1-0.1,0.2-0.1,0.3,0
		c0,0,0,0,0,0C1031.4,709.7,1031.4,709.8,1031.2,709.9 M1031.7,709.5c-0.1,0.1-0.2,0.1-0.2,0.1c-0.1-0.1-0.1-0.2,0-0.3
		c0.1-0.1,0.2-0.1,0.3,0c0,0,0,0,0,0C1031.9,709.3,1031.9,709.4,1031.7,709.5 M1029.2,717.2c0.1-0.3,0.3-0.9,0.3-0.9l0.5-1.4
		l-0.2-0.4l0.5-1.6l-0.4-0.1l-0.6,1.6l-0.4,0.1c0,0-0.6,1.8-0.6,1.8c-0.2-0.6-0.5-1.6-0.7-2.2c0.5,0.1,1,0.1,1.5,0.1
		c0.2-0.3,0.3-0.7,0.4-1.1c-0.3,0-1.4,0-1.9,0c0-0.1-0.1-0.3,0-0.3c0.1,0.1,0.2,0.1,0.3,0.1c0.1,0,0.1-0.1,0.2-0.2l0.2,0
		c0.1,0.1,0.2,0.2,0.3,0.1c0.1,0,0.2-0.1,0.2-0.2l0.2,0c0.1,0.1,0.2,0.1,0.3,0.1c0.1,0,0.2-0.1,0.2-0.2c0.1,0,0.2,0,0.3-0.1
		c0.1,0.1,0.2,0.1,0.3,0.1c0.1,0,0.2-0.1,0.2-0.2c0.1,0,0.2-0.1,0.3-0.1c0.1,0.1,0.2,0.1,0.3,0c0.1,0,0.2-0.1,0.2-0.2
		c0.1,0,0.2-0.1,0.2-0.1c0.1,0.1,0.3,0.1,0.4,0c0.1-0.1,0.1-0.1,0.1-0.2c0.1-0.1,0.2-0.1,0.3-0.2c0.1,0.1,0.2,0.1,0.3,0
		c0,0.6,0,1.5,0,1.5l-1.9,0.1l-0.3,1.2c0,0,1.9,0,2.2-0.1c0,0.5-0.1,0.9-0.1,1.3c0,0.4-0.1,0.9-0.3,1.3c-0.3,0.4-0.7,0.3-1.2,0.3
		C1030.1,717.2,1029.7,717.2,1029.2,717.2 M1030.6,732.1l-0.6-0.2c0-0.1,0-0.2,0-0.2C1030.2,731.8,1030.4,731.9,1030.6,732.1
		 M1032.3,708.8c0,0,0,0.1-0.1,0.2s-0.2,0.1-0.2,0.1c-0.1-0.1-0.1-0.2,0-0.3S1032.2,708.7,1032.3,708.8
		C1032.3,708.8,1032.3,708.8,1032.3,708.8 M1032.3,708.3c0.1-0.1,0.2-0.1,0.3-0.1c0,0,0,0.1,0,0.2s-0.1,0.1-0.1,0.1
		C1032.3,708.6,1032.3,708.4,1032.3,708.3 M1032.8,707.9c-0.1,0.1-0.1,0.1-0.1,0.1c-0.1,0-0.1-0.2-0.1-0.3s0.2-0.1,0.3-0.1
		c0,0,0,0,0,0C1032.9,707.7,1032.9,707.8,1032.8,707.9 M1033,707.3c0,0.2-0.1,0.2-0.1,0.2c-0.1,0-0.2-0.1-0.2-0.2s0.1-0.2,0.2-0.2
		c0,0,0,0,0,0C1033,707.1,1033.1,707.2,1033,707.3 M1033.2,706.8c0,0.2-0.1,0.2-0.1,0.2c-0.1,0-0.2-0.1-0.2-0.2s0.1-0.2,0.2-0.2
		c0,0,0,0,0,0C1033.2,706.5,1033.2,706.6,1033.2,706.8 M1033.2,705.5c0-0.1,0.2-0.2,0.3-0.1c0,0,0,0.1,0,0.2s-0.1,0.2-0.1,0.2
		C1033.2,705.7,1033.2,705.6,1033.2,705.5 M1033.3,706.2c0,0.2-0.1,0.2-0.1,0.2c-0.1,0-0.2-0.1-0.1-0.2c0-0.1,0.1-0.2,0.2-0.1
		c0,0,0,0,0,0C1033.3,706,1033.4,706,1033.3,706.2 M1034,714.8c0,0.2,0.1,0.3,0.2,0.3c0,0,0,0,0,0c0.4,0.1,0.4-0.1,0.4,0.3
		c0,0.3,0,0.6,0,0.9c0,0.4-0.2,0.6-0.6,0.7c-0.5,0.2-1.1,0.2-1.6-0.1c0-0.2,0-0.4,0-0.6c0.1-0.5,0.1-0.9,0.2-1.4
		c0-0.2,0-0.5,0.1-0.8l1.4-0.1C1034,714.3,1034,714.6,1034,714.8 M1037.4,723.5c-0.1-0.3-0.3-0.7-0.4-1s-0.3-0.7-0.4-1
		c-0.2-0.4-0.4-0.7-0.5-1.1c-0.3-0.8-0.6-1.6-0.9-2.4c0-0.1-0.1-0.1-0.1-0.2c-0.2-0.3-0.2-0.6,0-0.8c0.1-0.1,0.1-0.2,0.1-0.3
		c0-0.5,0-1,0-1.5c0-0.1,0.1-0.2,0.1-0.2c0.1-0.1,0.1-0.2,0.2-0.3c0-0.2,0-0.4,0-0.6l0.2-0.2v-1.5l-0.7-0.6c0-0.2,0-0.4,0-0.6
		c0.1,0.1,0.1,0.1,0.2,0.2c0.4,0.5,0.7,1,1.1,1.6c0.1,0.1,0.2,0.2,0.4,0.2c0.3,0,0.7,0,1,0c0.1,0,0.2,0,0.3-0.1
		c0.9-0.5,1.7-1,2.6-1.5l0.2-0.1c0,0.1,0,7.3,0,10.8c0,1.3,0.2,2.6,0.6,3.9l-0.7-1.4c0.1,0.5,0.2,1,0.3,1.3l-1.1-2.3
		c0.2,1.2,0.4,2.3,0.5,3l-1.2-1.6c0.3,0.7,0.6,1.3,0.8,1.8l-0.9-0.8c0.3,0.4,0.5,0.7,0.6,1.1l-2.1-1.4c0.7,0.7,1.3,1.4,1.9,2.1
		l-1.9-0.9c0.2,0.2,0.4,0.4,0.6,0.6l-1-0.3c0-0.1,0-0.2,0-0.2c0.2-0.6,0.4-1.3,0.5-2C1037.7,724.5,1037.6,724,1037.4,723.5
		 M1037.7,728.6l-0.6-0.1c0-0.1,0.1-0.3,0.1-0.4C1037.4,728.3,1037.5,728.4,1037.7,728.6 M1037.2,727.4c0.4,0.2,0.7,0.5,0.9,0.7
		l-0.9-0.3C1037.3,727.6,1037.3,727.5,1037.2,727.4 M1034.9,730.6c-0.2,0.1-0.4,0.2-0.6,0.3c0-0.4,0-0.8,0-1.2c0-0.3,0-0.6,0-0.9
		c0-0.2,0-0.4,0-0.7c0-0.2,0.1-0.5,0.2-0.7c0.7,0.3,1.4,0.4,2.1,0.2c-0.2,0.2-0.5,0.3-0.8,0.3c-0.1,0-0.3,0-0.4,0s-0.2,0-0.2,0.2
		c0,0.3,0,0.5-0.1,0.7c0,0.4-0.1,0.8-0.1,1.2C1035.1,730.3,1035.2,730.5,1034.9,730.6 M1031.3,730.4c0.2,0.3,0.4,0.7,0.6,1l-1.8-1.3
		c0-0.3,0.1-0.6,0.1-0.8c0,0,0-0.1,0-0.1c-0.3-0.3-0.1-0.7,0-1c0.1-0.3,0.1-0.7,0.1-1c0-0.4,0-0.7,0.1-1.1c0.2-1,0.5-2,0.8-3
		c0.2-0.9,0.5-1.7,0.7-2.6l0.1,0c0.2,0.3,0.3,0.5,0.5,0.8c0.2,0.4,0.4,0.8,0.6,1.2c0.4,0.7,0.8,1.5,1.2,2.2c0.1,0.2,0.3,0.4,0.4,0.7
		c0,0.1,0,0.1,0,0.2c-0.1,0.2-0.1,0.5-0.2,0.7c-0.1,0.3-0.1,0.6-0.2,1c-0.3,0.1-0.3,0.3-0.4,0.6c0,0.7,0,1.3,0,2c0,0.1,0,0.2,0,0.2
		l-0.2-0.7c0,0.4,0,0.7-0.1,1.1l-0.2-2c-0.1,0.8-0.2,1.5-0.3,2.1l-0.8-2.3c0.1,1,0.2,1.9,0.3,2.9l-1.1-1.6c0.3,0.6,0.5,1.2,0.7,1.7
		L1031.3,730.4z M1030.1,731.1c0.2,0.2,0.4,0.4,0.5,0.5l-0.6-0.2c0,0,0-0.1,0-0.1c0-0.4,0.1-0.8,0.1-1.2c0,0,0-0.1,0-0.1
		c0.6,0.6,1.1,1.3,1.7,1.9L1030.1,731.1z M1029.8,729.7c-0.3,0.2-0.7,0.3-1.1,0.3c-0.5,0-0.5,0-0.4,0.4c0,0,0,0,0,0.1l-0.8-0.7
		l0.2-0.4c0.3,0.4,0.9,0.5,1.4,0.4c0.3,0,0.5-0.1,0.9-0.2C1029.8,729.6,1029.9,729.7,1029.8,729.7 M1026.3,725.1
		c-0.3-0.1-0.6-0.1-0.7,0.2c-0.1,0.4-0.3,0.9-0.4,1.3c0,0.1,0,0.1,0,0.2c0.1-0.1,0.1-0.1,0.2-0.2c0.1-0.4,0.3-0.8,0.4-1.2
		c0-0.1,0-0.1,0.1-0.2c0.1,0,0.2,0.1,0.3,0.1c0.1,0.1,0.1,0.1,0.1,0.2c-0.2,0.6-0.4,1.2-0.6,1.7c-0.2-0.1-0.4-0.2-0.7-0.3
		c-0.1,0-0.2-0.1-0.1-0.2c0-0.1,0.4-1.3,0.5-1.8c0.1-0.2,0.2-0.4,0.4-0.5c0.1,0,0.1-0.1,0.2-0.1
		C1026.1,724.7,1026.2,724.9,1026.3,725.1 M1024.3,731.1c0.1,0.4,0,0.9-0.2,1.2c0,0.1-0.2,0.1-0.2,0.1c0,0,0,0,0,0
		c-0.2-0.1-0.2,0-0.2,0.1c0,0.2-0.1,0.4-0.1,0.7C1022.9,732.6,1023.3,731.5,1024.3,731.1 M1024.6,727.4c0.2,0.1,0.4,0.2,0.6,0.4
		c0.1,0,0.1,0.1,0.1,0.2c-0.1,0.5-0.3,1-0.5,1.4c-0.1,0.3-0.2,0.7-0.1,1c0,0.6,0,1.3,0,1.9c0,0.2,0,0.5-0.3,0.5c-0.2,0-0.3,0-0.5,0
		c0,0.2,0.1,0.4,0.1,0.7c-0.3,0-0.3,0-0.3-0.3c0-0.2,0.1-0.4,0.1-0.6c0,0,0.1,0,0.1,0c0.3,0,0.5-0.1,0.5-0.4
		c0.1-0.4,0.1-0.7,0.1-1.1c0-0.5-0.1-1-0.1-1.5c0-0.3-0.2-0.8-0.3-1.1C1024.3,728.2,1024.5,727.8,1024.6,727.4 M1084.1,707
		c0,0,0.7-0.4,0.8-0.4s0.1,0.1,0.1,0.1s-0.2,0.2-0.3,0.2s-0.4,0.3-0.5,0.3S1084,707,1084.1,707 M1086.6,731.7c0-0.4-0.2-0.9-0.5-1.2
		c-1.6-2-4.5-1.3-4.5-1.3c0-0.2-0.1-0.5-0.2-0.7c-0.2-0.4-0.3-0.7-0.4-1.2c-0.1-0.4-0.1-0.9-0.3-1.3c0.2,0,0.4,0.1,0.5,0.1
		c0.2,0,0.2,0,0.2-0.2c-0.1-0.2-0.2-0.4-0.2-0.6c-0.1-0.4-0.2-0.7-0.3-1.1c0-0.4,0-0.7,0-1.1c0.1-0.3,0.1-0.5,0.2-0.8
		c0.1,0.2,0.2,0.4,0.3,0.5c0,0.1,0.1,0.1,0.2,0.1c0-0.1,0.1-0.2,0.1-0.2c0-0.2,0-0.4,0-0.6c0.1-0.4,0.3-0.7,0.4-1.1
		c0-0.1,0.1-0.2,0.1-0.2c0,0.1,0,0.2,0,0.2c0,0.1,0.1,0.2,0.1,0.2c0.1,0,0.2-0.1,0.2-0.1c0.1-0.4,0.3-0.8,0.4-1.2
		c0.1-0.3,0.1-0.6,0.2-0.9c0.1-0.4,0.1-0.8,0-1.2c-0.1-0.3-0.1-0.6-0.1-0.9c0.1-0.6,0.2-1.3,0.3-1.9c0.1-0.5,0-1-0.2-1.4
		c-0.1-0.2-0.3-0.3,0-0.5c0,0,0,0,0-0.1c0-0.2,0.1-0.4,0.1-0.6c0-0.3,0-0.6-0.1-1c0-0.3-0.1-0.6-0.1-0.9c-0.1-0.5-0.3-1.1-0.4-1.6
		c0.3-0.2,0.8-0.5,0.8-0.7c0,0,0-0.1,0-0.1c0.1-0.1,0.3-0.2,0.4-0.3c0.2-0.1,0.6-0.3,0.4-0.4c0,0,0,0,0,0c0.1-0.1,0.2-0.2,0.4-0.3
		c0.2-0.1,0.5-0.3,0.4-0.4s-0.2-0.3-0.3-0.3s-0.7,0.4-0.9,0.5c0,0,0-0.1-0.1-0.1c-0.3,0.2-0.6,0.3-0.9,0.5c-0.1-0.1-0.2-0.1-0.3-0.1
		c-0.1,0.1-0.2,0.1-0.3,0.2c-0.1-0.2-0.2-0.4-0.3-0.5c-0.1-0.2-0.2-0.4-0.3-0.7c-0.2-0.3-0.4-0.7-0.7-0.9c-0.4-0.6-0.9-1-1.5-1.4
		c-0.1,0-1.7-0.8-1.7-1.1c0-0.1,0.6,0.2,0.8-1.8c0.3-0.7,0.3-1.6,0-2.3c-0.3-0.5-0.7-0.8-1.1-1.1c-0.8-0.5-1.8-0.7-2.7-0.4
		c-0.5,0.2-1,0.6-1.2,1.1c-0.1,0.2-0.1,0.5-0.1,0.7c-0.2,0.5-0.6,1.4-0.8,1.8c-0.1,0.1,0,0.3,0.1,0.4c0,0,0,0,0,0
		c0.1,0.1,0.2,0.1,0.2,0.2c0.1,0.1,0.2,0.3,0.1,0.4c0,0,0,0,0,0c-0.2,0.2-0.2,0.4-0.1,0.6c0.1,0.1,0.1,0.3,0.1,0.5
		c0,0.2,0,0.2,0.2,0.3c0.1,0,0.4,0.1,0.5,0.1c0,0,0,0,0.1,0c0,0.1-0.1,0.1-0.1,0.2c-0.1,0-0.2,0-0.2,0c-0.1,0-0.2,0.1-0.3,0.3
		s-0.2,0.2-0.4,0.3c-0.4,0.1-0.7,0.3-1,0.4c-0.1,0-0.2,0.1-0.3,0.2c-0.1,0.2-0.2,0.5-0.3,0.8c-0.3,0.9-0.6,1.8-0.9,2.6
		c0,0-0.1,0.1-0.1,0.1c-0.3-0.1-0.7,0-0.9,0.2c-0.4-0.3-0.9-0.4-1.3-0.3c-0.2,0.1-0.4,0-0.5-0.2c-0.1-0.2-0.4-0.4-0.7-0.4
		c-0.3,0-0.6,0-0.9,0c-0.5,0.1-1,0.1-1.6,0.1c-0.4,0.1-0.7,0.1-0.7,0.6c0,0-0.1,0.1-0.2,0.1c-0.1,0-1.3-0.1-1.7-0.1
		c-0.1,0-0.1-0.1-0.1-0.1c-0.1-0.8-0.4-1.6-0.8-2.3c-0.4-0.5-0.8-0.9-1.2-1.4c-0.1-0.1-0.2-0.2-0.1-0.3l0.4-0.1
		c-0.1-0.1-0.1-0.2-0.2-0.4c0-0.1,0.1-0.4,0.1-0.6c0.3,0.3,0.6,0.6,1,0.9c0,0,0,0,0,0.1c0,0.2,0,0.3,0,0.5c0.2,1.1,0.7,2.1,1.6,2.8
		c0.1,0.1,0.2,0.2,0.3,0.1c0.5-0.5,1-1.1,1.3-1.8c1.4,0.4,2.9,0.3,4.3-0.1c0.4-0.2,2.1-1.3,2.1-1.7c-0.8-0.1-1.7-0.1-2.5,0
		c-0.4,0-0.7,0-1.1-0.1c0.2-0.2,0.3-0.3,0.4-0.4c0.4-0.3,0.6-1.1,0.2-1.1c-0.4-0.1-0.7-0.1-1.1,0c-0.8,0-1.6-0.1-2.4-0.2
		c1.2,0,3.2-0.1,4.1-0.9c0.5-0.6,0.9-1.3,1.2-2c0.5,0.2,1,0.2,1.5,0c0.9-0.9,1.4-2.2,1.3-3.4c0-0.2-0.1-0.2-0.2-0.2
		c-0.3,0-0.6,0-0.9,0c-0.9,0-1.7,0.4-2.3,0.9c-0.1-1-0.5-1.9-1.3-2.5c0.3-0.3,0.7-0.4,1-0.2c0.1,0,0.1,0.1,0.1,0.1
		c0,0.3,0.1,0.5,0.1,0.8c0.1,0.4,0.4,0.7,0.8,0.9c0.3,0.1,0.7,0.1,1,0c0.2,0,0.5-0.3,0.5-0.5s0.1-0.3,0.1-0.5
		c0.4,0.1,0.8,0.1,1.1,0.2c0.4,0.1,0.7,0.2,0.8,0.7c0,0.1,0.1,0.1,0.2,0.2c0.1,0,0.2,0,0.2-0.1c0.1-0.1,0.1-0.3,0.1-0.4
		c0.3-0.8,0.1-1.8-0.5-2.4c-0.1-0.1-0.1-0.1,0-0.2c0.3-0.2,0.5-0.5,0.6-0.9c0.1-0.2-0.1-0.4-0.3-0.4c0,0,0,0,0,0
		c-0.2-0.1-0.3-0.1-0.5-0.1c-0.5-0.1-1-0.2-1.5-0.3c-0.4-0.1-0.8-0.1-1.1,0.1c-0.1,0-0.2,0.1-0.3,0.1c0.2-0.8,1.8-1.9,2.8-2.3
		c0.2-0.1,0.5-0.2,0.8-0.2c0,0.2-0.8,0.5-1.1,0.9c-0.2,0.3-0.3,0.6-0.4,0.9c-0.1,0.2,0,0.3,0.2,0.4c0.5,0.1,1,0.2,1.5,0.3
		c0.2,0,0.3,0,0.2,0.2c0,0.3,0.1,0.5,0.2,0.7c0.3,0.3,0.4,0.6,0.5,1c0,0.1,0,0.3,0.1,0.4c0,0.1,0.1,0.1,0.2,0.1
		c0.1,0,0.1-0.1,0.2-0.1c0.1-0.1,0.1-0.2,0.1-0.3c0.2-0.4,0.5-0.7,0.9-0.9c0.2-0.1,0.3-0.3,0.4-0.5c0.1-0.2,0.1-0.4,0.2-0.6
		c0,0,0.1,0,0.1,0c0.4,0,0.8-0.1,1-0.4c0.1-0.1,0.2-0.2,0.4-0.2c0.1,0,0.2,0,0.4,0c0.1,0,0.2-0.1,0.2-0.1c0-0.1,0-0.2-0.1-0.3
		c-0.1-0.1-0.2-0.2-0.3-0.3c-0.3-0.3-0.7-0.6-1-0.9c-0.2-0.2-0.4-0.7-0.7-0.8c-0.3,0-0.6-0.2-0.9-0.3c-0.7-0.7-1.5-1.2-2.4-1.5
		c-1-0.3-2.1-0.3-3.1,0c-0.9,0.3-1.7,0.8-2.3,1.5c-0.1-0.1-0.1-0.3-0.1-0.4c-0.1-0.4-0.3-0.8-0.6-1.1c0-0.3,0-0.6,0.1-0.9
		c0-0.4-0.1-0.8-0.3-1.2c-0.3-0.3-0.5-0.7-0.7-1.1c0,0-0.1-0.3-0.2-0.4c-0.1,0.1-0.2,0.3-0.2,0.3c-0.2,0.3-0.4,0.6-0.6,0.9
		c-0.4,0.2-0.6,0.6-0.7,1c-0.6-0.1-1.2-0.1-1.8,0.1c-0.4,0.2-0.5,0.1-0.8-0.1s-0.2-0.3-0.3-0.3s-0.2,0.3-0.2,0.5
		c0,0.4,0.1,0.8,0.2,1.2c0.3,0.7,0.8,1.2,1.6,1.4c-0.3,0.5-0.4,1.1-0.4,1.7c0.4,0.1,0.8,0.2,1.2,0.3c0.4,0,0.8,0,1.1-0.1
		c0.1,0.6,0.2,1.1,0.1,1.7c-0.2,0.4-0.4,0.7-0.6,1.1c-0.2,1.4,0.1,2.8,0.7,4c-0.3,0-0.5-0.1-0.8-0.1c-0.5,0-0.9,0.1-1.4,0.1
		c-0.3,0.1-0.4,0.2-0.3,0.5c0.1,0.3,0.2,0.5,0.3,0.8c0.3,0.5,0.8,0.8,1.3,0.9c0,0.3-1.1,2.5-4.4-0.3c0,0,0-0.1,0-0.1
		c0-0.2,0-0.3,0-0.5c0-0.2-0.1-0.3-0.3-0.3c-1.7-0.4-3.5-0.6-5.3-0.5c-2-0.1-4,0.1-5.9,0.5c-0.1,0-0.2,0.1-0.2,0.2
		c0,0.3-0.1,0.7,0.2,0.8c0,0-1.6,0.4-1.7,0.5c-0.4,0.2-0.7,0.8-1,0.8c-0.6,0.1-1.1,0-1.6-0.3c-1.2-0.7-0.7-1.6,0-1.9
		c0.3-0.1,0.7-0.2,1.1-0.2c0.3,0,0.4,0,0.3-0.3c-0.3-1.1-1.3-1.9-2.5-2c-0.1-0.4-0.2-5,0.8-5.1c0.8,0.2,1.7,0,2.4-0.5
		c0.1-0.1-0.1-0.1-0.3-1c0.1-0.9,0.4-1.8,1.1-2.5c0.1-0.1,0.1-0.2,0-0.2c0,0,0,0,0,0c-0.1-0.1-0.3-0.1-0.4-0.1
		c-0.8,0.1-1.8-0.8-2.5-0.5c-0.5,0.2-1.1,0.1-1.5-0.3c-0.6-0.4-1.1,0.2-1.5-0.3c-0.1-0.1-0.2-0.2-0.4-0.2c0,0.3,0,0.5,0,0.8
		c-0.1,0.3-0.2,0.6-0.3,0.9c-0.3,0.6,0.1,1.1,0.1,1.2c0,0.2-0.3,0.3-0.4,0.5c-0.1,0.4,0.4,1,0.2,1.1c-1.2-0.8-2.4-1.5-3.6-2.2
		c-1.1-0.3-2.2-0.4-3.4-0.2c-1.3,0.2-2.4,0.8-3.4,1.6c-0.5,0.4-0.8,1-1.1,1.6c-0.1,0.4-0.4,2.2,0.3,2.4c0.4,0.1,1.9-1.6,1.9-0.6
		c0,0.4,0,0.8,0.1,1.2c0.1,0.5,0.2,0.7,0.7,0.4c0.4-0.3,0.8-0.8,1.1-1.2c0.1-0.2,0.2-0.4,0.3-0.6c0.1-0.1,0.2-0.6,0.4-0.5
		c-0.1,0.3-0.4,0.5-0.3,0.9c0.1,0.3,0.3,0.3,0.5,0.5c0.2,0.2-0.3,0.5-0.5,0.6c-0.3,0.2-0.6,0-0.9,0.1c-0.1,0-0.1,0.1-0.2,0.1
		c0,0.1,0,0.1,0.1,0.2c0.7,0.4,0.7,1.4,1.6,1.7c0.3,0.1,0.7,0.1,1,0.1c0.3,0,0.6-0.2,0.8-0.1c0.2,0.1,0.3,0.2,0.3,0.4
		c0,0.1,0,0.3,0.1,0.4c0.2,0.2,0.9-0.3,1.1-0.4c0.5-0.3,0.4-0.7,0.8-1.1c0.5-0.3,1.1-0.4,1.6-0.3c-0.2,0.4-0.5,0.8-0.7,1.2
		c-0.3,0.3-0.4,0.7-0.4,1.1c-0.7-0.3-1.5-0.4-2.3-0.2c-0.4,0.1-0.7-0.2-1,0.2c-0.2,0.2,0.4,0.4,0.8,1.3s1.1,2.5,1.4,3
		c0.3,0.5,0.7,1,1.1,1.4c1.4,0.9,3.6,0.9,3.6,1c0.1,0.3-0.7,0.2-1,0.2c-0.6-0.1-1.7-0.6-1.9-0.5c0,0-0.1,0.2,0,0.2
		c0.1,0.4,0.2,0.8,0.3,1.2c-0.7,0.1-1.4,0.1-2.1,0c-0.3,0-0.6-0.1-0.8-0.4c-0.1-0.1-0.4-0.5-0.5-0.4s-0.1,0.4,0,1
		c0.4,1,1.2,1.8,2.3,2c1.2,0.3,2.5,0.2,3.7-0.3c0.2,0.4,0.4,0.7,0.5,1c0.2,0.3,0.5,0.6,0.8,0.7c0.1-0.3,0.3-0.6,0.7-0.7
		c0.8-0.2,1.5-0.8,1.9-1.5c0-0.1,0.1-0.2,0.2-0.3c0.1,0.2,0.4,1.3,0.4,1.3s0.1,0.3,0.3,0.2c0.8-0.4,1.6-0.9,2.2-1.5
		c0.1,0.1,0.1,0.2,0.2,0.2c0.2,0.3,0.3,0.3,0.1,0.7c-0.3,0.6-0.4,1.3-0.3,2c-1.6,0.1-3.7,0.3-5.3,0.5c-0.1-0.1,0-0.3-0.1-0.3
		c-0.3-0.1-0.2-0.2-0.4-0.3c-0.1-0.1-0.3,0-0.5,0c-0.1,0-0.3-0.2-0.4-0.3s-0.4,0.1-0.5,0.1s-0.4-0.2-0.6-0.2c-0.1,0-0.3,0-0.4,0.1
		c-0.2,0.2-0.3,0.3-0.5,0.5c-0.1,0.1-0.3,0.6-0.5,0.3c0,0-0.2,0-0.2,0.1c-0.5,0.3-0.9,0.6-1.4,0.8c-0.2,0.2-0.5,0.2-0.7,0.2
		c-0.2-0.1-0.3-0.1-0.4-0.2c-0.4-0.9-0.9-1.9-1.4-2.8c-0.2-0.4-0.3-0.7-0.5-1c0-0.1-0.1-0.1-0.1-0.2c0.1-0.3,0.1-0.5-0.1-0.6
		c-0.2-0.1-0.3-0.2-0.5-0.3c-0.3-0.1-0.7-0.3-1-0.4c-0.2-0.1-0.3,0-0.4,0.1c0,0,0,0,0,0c0,0.1-0.1,0.2-0.2,0.1c0,0,0,0,0,0
		c-0.1,0-0.2-0.1-0.2-0.2c0-0.2,0-0.5-0.3-0.6c0.1,0,0.2-0.1,0.3-0.1c0.3,0,0.4-0.3,0.4-0.5c0,0,0-0.1,0-0.1c0-0.1,0-0.2,0-0.3
		c0-0.3,0.2-0.5,0-0.8c0,0,0.1-0.1,0.1-0.1c0.2-0.1,0.2-0.2,0.2-0.4c-0.2-0.5-0.4-1-0.5-1.4c0.2,0,0.4,0,0.3-0.2
		c0-0.4-0.3-0.8-0.7-0.8c-0.2,0-0.3-0.1-0.4-0.3c-0.1-0.1-0.2-0.3-0.3-0.4c-0.1-0.2-0.3-0.4-0.5-0.4c-0.3-0.1-0.6-0.1-0.9-0.1
		c-0.3,0-0.5,0.1-0.7,0.2c-0.5,0.2-1,0.5-1.4,0.8c-0.2,0.2-0.4,0.5-0.6,0.7c-0.1,0.2-0.1,0.5-0.1,0.7c0.1,0.2,0.3,0.4,0.4,0.6
		c0.1,0.1,0.1,0.2,0.1,0.3c0,0.4,0.1,0.7,0.4,0.8c0.1,0,0.2,0.1,0.2,0.3c0.1,0.3,0.3,0.5,0.6,0.6c0.1,0,0.1,0,0.2,0v0.6
		c-0.3,0-0.3,0.1-0.3,0.4c0,0.1,0,0.2,0,0.3c0,0.1,0,0.1-0.1,0.1c-0.3,0.2-0.6,0.4-1,0.5c-0.4,0.2-1.1,0.5-1.5,0.7
		c-0.1,0.1-0.2,0.1,0,0.3c0.1,0.1,0.4,0.1,0.5,0.2c-0.1,0.2-0.2,0.4-0.4,0.6c-1.1,1.6-1.9,3.3-2.5,5.1c-0.1,0.3-0.1,0.5-0.1,0.8
		c0,0.4,0,0.7,0.1,1.1c0.1,0.4,0.2,0.9,0.3,1.3c0.3,0.6,0.5,1.2,0.8,1.9c0.3,0.7,0.6,1.3,1,1.9c0.1,0.1,0.1,0.3,0.1,0.4
		c0,0.2,0.1,0.4,0.3,0.6c0.1,0.1,0.2,0.3,0.2,0.4l-0.2,0.9l0.2,0.3l0,0.2c-0.3,0.9-0.6,1.7-0.9,2.6c-0.1,0.3-0.3,0.6-0.5,0.7
		c-0.1,0.1-0.2,0.2-0.3,0.3c-0.4,1.2-0.8,2.3-1.2,3.5c-0.1,0.2-0.1,0.4-0.4,0.4c0,0-0.1,0.1-0.1,0.1c0,0,0.1,0.1,0.1,0.1
		c0.1,0,0.2,0,0.3,0c0.1,0,0.2,0,0.2,0.2c-0.1,0-3.4,0.6-3.1,2.4s0.5,2.6,0.7,3.4c0.3,1.2,0.2,2.5-0.2,3.7c-0.1,0.3-0.1,1.1,0.3,1.3
		c1.8,0.8,3.9,1.1,5.9,0.8c6.7-0.9,12.6-4.2,15.5-6c-0.1,0.2-0.2,0.4-0.4,0.6l0.7-0.6c-0.2,0.4-0.4,0.9-0.6,1.3l1-1.2
		c-0.1,0.8-0.2,1.6-0.4,2.4l0.7-1.7c-0.1,0.3-0.1,0.6-0.2,1l0.5-0.9c-0.1,0.3-0.2,0.5-0.2,0.8c-0.3,1.3,0.2,5.3,3.4,4.1
		c3-1.1,3.7-1.6,6.4-1.6c2.7,0,3.8,0.7,6.8,1.8c3.5,0.7,2.4-4.9,2.4-5.3c0-0.1,0-0.1,0-0.2l0.6,1.3c-0.1-0.4-0.1-0.6-0.2-0.9
		l0.7,1.1c-0.2-0.5-0.3-1.1-0.5-1.6l0.8,1.1c-0.2-0.5-0.4-1-0.5-1.4l0.6,0.6c-0.2-0.3-0.3-0.6-0.4-0.8l1.4,1c-0.3-0.3-0.6-0.7-0.8-1
		c2.6,1.2,6.7,3.2,8,3.7c1.7,0.6,6.2,2.7,9.6,3.1s3.6-1.8,3.6-2.4c0-0.6,0-1.1,0-1.7C1085.8,736.2,1086.6,732.2,1086.6,731.7"/>
</g>
</svg>
